<!--?xml version="1.0" encoding="UTF-8" ?>
<!DOCTYPE svg PUBLIC "-//W3C//DTD SVG 1.1//EN" "http://www.w3.org/Graphics/SVG/1.1/DTD/svg11.dtd">
<svg width="2000pt" height="450pt" viewBox="0 0 2000 450" version="1.1" xmlns="http://www.w3.org/2000/svg"-->
<?xml version="1.0" standalone="no"?>
<!DOCTYPE svg PUBLIC "-//W3C//DTD SVG 20010904//EN" "http://www.w3.org/TR/2001/REC-SVG-20010904/DTD/svg10.dtd">
<svg height="45.000000pt" preserveAspectRatio="xMidYMid meet" version="1.0"
  viewBox="0 0 200.000000 45.000000" width="200.000000pt" xmlns="http://www.w3.org/2000/svg">
  <metadata>
    Created by potrace 1.10, written by Peter Selinger 2001-2011
  </metadata>
  <g fill="#880000" stroke="none"
    transform="translate(0.000000,45.000000) scale(0.100000,-0.100000)">
    <path
      d="M268 375 c-3 -3 -23 -8 -44 -11 -22 -2 -48 -6 -59 -9 -11 -2 -40 -4 -65 -5 -33 0
      -53 -7 -74 -26 -36 -31 -30 -39 16 -19 20 8 78 19 129 25 52 6 101 13 110 16 8 2
      25 -5 38 -17 29 -27 70 -38 100 -27 13 4 63 9 111 9 75 1 95 -3 139 -25 28 -14 54
      -25 58 -24 9 1 59 -10 83 -19 8 -4 20 -5 27 -4 23 3 136 -18 142 -27 3 -5 41 -12
      83 -16 66 -5 91 -2 187 24 61 16 135 30 165 30 29 0 91 10 137 21 100 26 327 31
      354 9 12 -10 24 -10 55 -1 54 16 50 32 -7 31 -27 0 -77 3 -113 6 -111 11 -240 2
      -302 -22 -21 -7 -77 -16 -125 -18 -49 -3 -102 -10 -118 -16 -105 -41 -264 -54 -308
      -25 -12 8 -40 16 -61 17 -22 2 -41 9 -44 16 -2 6 1 12 7 12 6 0 8 7 5 15 -4 8 -13
      15 -21 15 -8 0 -11 -4 -8 -10 3 -5 -1 -10 -9 -10 -9 0 -16 -7 -16 -16 0 -12 -5 -14
      -17 -9 -10 4 -42 13 -71 21 -29 7 -65 21 -80 31 -24 16 -46 18 -176 16 -147 -2
      -149 -2 -168 22 -18 23 -47 32 -60 20z m602 -109 c0 -3 -4 -8 -10 -11 -5 -3 -10 -1
      -10 4 0 6 5 11 10 11 6 0 10 -2 10 -4z"/>
  </g>
</svg>
