<?xml version="1.0" encoding="UTF-8" ?>
<!DOCTYPE svg PUBLIC "-//W3C//DTD SVG 1.1//EN" "http://www.w3.org/Graphics/SVG/1.1/DTD/svg11.dtd">
<svg width="2106pt" height="130pt" viewBox="0 0 2106 130" version="1.1" xmlns="http://www.w3.org/2000/svg">
<g id="#111111ff">
<path fill="#111111" opacity="1.00" d=" M 505.91 18.16 C 508.25 17.33 510.59 16.48 512.94 15.65 C 513.93 18.01 514.90 20.37 515.86 22.74 C 511.74 27.87 510.19 34.38 507.22 40.15 C 509.96 42.97 513.17 45.70 517.51 44.85 C 521.23 40.67 523.91 35.08 528.31 31.71 C 537.75 33.41 544.70 40.76 552.33 46.07 C 551.56 47.68 550.79 49.28 550.02 50.89 C 544.90 49.52 539.65 50.01 534.63 51.53 C 536.23 50.46 537.86 49.41 539.46 48.34 C 536.99 48.53 534.53 48.74 532.08 48.97 C 527.81 57.94 525.71 67.63 522.44 76.94 C 525.91 79.81 529.47 82.62 532.78 85.69 C 529.34 88.88 526.26 92.52 522.41 95.22 C 519.63 96.04 516.59 95.23 513.78 95.27 C 514.18 94.18 514.60 93.09 515.02 92.00 C 520.35 92.06 525.99 90.52 528.06 85.01 C 522.73 83.68 517.22 83.18 511.79 82.52 C 509.33 88.04 507.93 93.93 506.14 99.69 C 491.95 97.81 479.08 91.03 465.12 88.14 C 466.58 84.38 468.13 80.64 469.27 76.76 C 465.91 75.17 462.51 73.61 459.44 71.51 C 457.26 68.47 457.27 64.53 456.44 61.01 C 453.17 62.47 449.89 63.92 446.60 65.31 C 439.01 67.63 433.81 74.52 425.76 75.80 C 424.63 72.68 423.67 69.48 423.24 66.18 C 426.38 66.35 430.00 68.08 432.79 65.83 C 439.17 60.89 447.23 59.54 454.73 57.15 C 461.47 54.87 467.45 49.74 474.92 50.25 C 481.80 50.72 488.67 51.40 495.55 51.90 C 495.24 46.18 495.03 40.23 497.09 34.78 C 499.26 30.27 503.37 27.14 507.55 24.60 C 506.98 22.46 506.43 20.31 505.91 18.16 M 504.09 43.92 C 503.79 45.85 503.49 47.78 503.21 49.72 C 505.99 49.72 508.70 49.68 511.52 49.64 C 511.64 49.02 511.89 47.78 512.01 47.16 C 509.36 46.08 506.72 45.00 504.09 43.92 M 482.70 76.71 C 483.26 80.28 482.75 84.21 484.41 87.51 C 490.35 91.64 497.04 95.04 504.38 95.66 C 504.39 91.31 503.97 86.98 503.62 82.65 C 496.56 80.95 489.63 78.84 482.70 76.71 M 471.12 85.73 C 473.72 86.50 476.36 87.20 479.02 87.80 C 478.32 85.55 477.57 83.32 476.82 81.10 C 474.81 82.51 472.90 84.05 471.12 85.73 Z" />
<path fill="#111111" opacity="1.00" d=" M 310.04 16.92 C 314.00 15.95 317.55 19.95 316.51 23.76 C 315.11 30.14 312.92 36.32 310.58 42.41 C 313.76 43.71 317.12 45.19 320.64 44.86 C 322.73 42.18 324.12 38.90 324.00 35.45 C 327.79 33.70 332.48 31.00 336.64 33.35 C 342.25 36.61 347.54 40.41 352.65 44.39 C 354.73 45.89 354.62 49.80 351.72 50.23 C 346.54 50.05 341.46 48.59 336.26 48.54 C 333.00 51.67 332.06 56.32 330.31 60.33 C 327.12 67.69 324.64 75.44 319.89 81.99 C 322.27 84.96 324.66 87.92 327.04 90.90 C 326.62 91.96 326.20 93.02 325.80 94.08 C 319.10 94.86 312.40 95.58 305.66 95.56 C 299.93 103.38 289.42 101.83 280.77 102.10 C 281.20 101.02 281.65 99.94 282.10 98.86 C 284.96 98.65 287.82 98.55 290.69 98.33 C 287.05 95.64 282.88 93.80 278.55 92.51 C 277.28 95.65 276.64 99.22 274.10 101.64 C 273.67 99.02 273.75 96.37 274.13 93.75 C 268.89 90.64 263.60 87.61 258.38 84.49 C 261.28 81.92 264.36 79.58 267.40 77.17 C 264.56 74.75 261.61 72.46 258.74 70.10 C 258.66 67.17 258.63 64.24 258.59 61.30 C 249.46 64.51 242.71 72.16 233.83 75.78 C 227.90 76.47 224.94 69.99 223.17 65.40 C 226.84 64.81 230.46 65.68 233.97 66.72 C 240.86 61.98 248.64 58.93 256.85 57.41 C 261.59 56.69 265.25 53.49 269.59 51.83 C 278.59 51.11 287.51 52.97 296.51 52.81 C 296.68 46.92 298.44 41.18 301.08 35.95 C 303.10 32.35 306.41 29.68 308.58 26.18 C 309.42 23.16 308.76 19.83 310.04 16.92 M 307.01 44.47 C 306.19 46.77 305.38 49.07 304.62 51.39 C 308.76 50.65 312.98 50.08 316.92 48.51 C 313.76 46.83 310.41 45.55 307.01 44.47 M 282.74 75.77 C 280.56 79.86 279.07 84.28 278.28 88.86 C 283.68 91.23 289.07 93.64 293.95 96.98 C 296.32 98.86 299.60 97.49 301.04 95.14 C 303.46 91.19 304.73 86.69 306.25 82.35 C 298.27 80.66 290.32 78.79 282.74 75.77 M 266.96 83.02 C 267.01 83.71 267.12 85.10 267.18 85.79 C 269.41 86.97 271.63 88.17 273.88 89.33 C 273.91 87.46 273.97 83.72 274.00 81.85 C 271.64 82.23 269.30 82.61 266.96 83.02 M 312.32 84.05 C 310.68 87.14 309.08 90.24 307.52 93.35 C 312.72 93.59 317.85 92.65 322.94 91.67 C 319.58 88.89 315.96 86.44 312.32 84.05 Z" />
<path fill="#111111" opacity="1.00" d=" M 702.64 17.97 C 705.10 17.60 707.51 17.26 710.03 16.91 C 710.19 19.35 710.19 21.78 710.35 24.21 C 707.06 28.39 705.35 33.53 703.73 38.52 C 702.55 42.30 706.47 44.95 708.60 47.48 C 714.72 43.17 718.88 35.11 726.90 34.27 C 736.36 36.29 742.71 44.26 749.23 50.78 C 747.80 52.05 746.37 53.32 744.95 54.59 C 740.31 52.98 735.39 52.48 730.52 52.33 C 730.40 51.36 730.30 50.39 730.20 49.43 C 722.90 56.12 722.16 66.54 718.49 75.23 C 722.79 76.42 728.48 74.91 732.17 77.77 C 734.29 84.74 734.01 92.37 731.95 99.38 C 731.02 98.51 730.11 97.64 729.21 96.77 C 730.79 91.23 730.78 85.39 729.42 79.79 C 724.54 80.55 719.68 81.39 714.81 82.22 C 717.03 84.87 719.22 87.57 720.88 90.62 C 716.60 92.62 712.23 94.46 707.90 96.35 C 705.80 94.04 703.75 91.74 701.69 89.42 C 706.43 89.81 713.87 94.50 716.56 88.16 C 704.14 82.86 690.27 84.10 677.42 80.40 C 677.56 82.68 677.72 84.96 677.90 87.24 C 686.06 90.01 694.92 91.43 701.93 96.81 C 697.65 98.12 693.47 96.11 689.58 94.57 C 684.77 92.70 679.57 92.35 674.49 91.86 C 679.28 99.47 686.12 105.43 693.31 110.69 C 695.95 112.57 699.30 112.76 702.33 113.64 C 688.26 115.30 674.10 113.62 660.00 114.00 C 649.53 113.76 639.04 115.04 628.62 113.65 C 648.20 111.55 668.01 114.35 687.53 111.71 C 681.80 106.45 675.83 101.44 670.75 95.52 C 668.60 91.41 668.87 86.01 665.61 82.42 C 662.20 79.43 658.21 77.17 654.87 74.09 C 650.97 71.49 651.70 66.07 650.54 62.19 C 644.17 66.22 636.08 66.28 630.18 71.22 C 626.18 73.39 622.87 77.64 618.19 78.01 C 616.11 76.48 614.68 74.29 613.08 72.32 C 620.33 71.75 624.28 64.81 629.79 61.01 C 635.98 59.78 642.29 59.20 648.54 58.21 C 655.28 57.07 660.52 51.03 667.64 51.50 C 675.01 52.14 682.42 52.57 689.82 52.98 C 684.83 45.93 689.53 37.05 694.17 31.17 C 697.34 26.66 705.09 25.34 702.64 17.97 M 695.54 50.66 C 699.13 50.68 702.65 50.49 706.28 50.31 C 704.24 48.06 702.01 45.99 699.72 44.01 C 698.17 46.13 696.76 48.34 695.54 50.66 Z" />
<path fill="#111111" opacity="1.00" d=" M 111.90 19.49 C 113.83 18.88 115.77 18.28 117.71 17.69 C 118.45 25.84 116.34 33.81 115.12 41.79 C 116.47 43.12 119.16 45.77 120.50 47.10 C 126.85 44.07 132.38 39.41 136.46 33.70 C 144.13 36.53 151.71 39.87 158.31 44.74 C 160.84 46.09 158.76 48.96 158.52 51.04 C 152.70 50.52 146.86 50.41 141.04 50.04 C 137.08 60.94 129.93 70.20 125.81 81.01 C 122.00 85.43 115.51 87.29 112.88 92.79 C 110.71 97.44 109.47 102.53 109.27 107.66 C 112.94 111.68 118.38 114.31 123.95 113.36 C 132.62 112.72 141.31 112.57 149.98 113.44 C 158.14 113.16 166.28 113.62 174.40 114.36 C 158.06 115.37 141.68 116.18 125.31 115.40 C 96.77 116.18 68.11 117.55 39.63 114.76 C 61.46 111.89 83.47 114.92 105.35 112.54 C 105.64 108.99 106.15 105.46 106.65 101.94 C 100.54 99.52 94.31 97.38 87.99 95.58 C 88.17 94.88 88.54 93.47 88.73 92.77 C 94.52 93.92 99.69 97.89 105.70 97.73 C 110.33 95.12 109.37 88.31 111.07 83.84 C 102.11 83.44 93.81 80.12 85.19 78.12 C 77.70 77.83 70.95 81.98 63.73 83.57 C 66.07 86.40 69.02 88.82 70.77 92.09 C 72.04 95.53 72.21 99.30 72.70 102.91 C 70.79 100.93 69.20 98.66 68.19 96.09 C 65.65 90.23 61.10 85.67 56.49 81.40 C 55.41 88.36 55.39 97.84 46.75 99.34 C 46.59 98.59 46.25 97.08 46.09 96.33 C 47.99 94.58 50.82 93.33 51.43 90.59 C 51.89 85.43 52.19 80.26 52.31 75.08 C 56.18 75.03 60.04 74.99 63.91 74.95 C 62.18 70.21 60.17 65.41 60.35 60.27 C 54.68 65.23 48.55 70.24 41.08 72.10 C 38.30 72.63 34.99 73.45 32.77 71.25 C 30.30 68.59 29.72 64.81 28.84 61.42 C 32.53 62.98 36.52 65.32 40.65 63.63 C 50.29 58.71 60.61 54.73 71.46 53.72 C 81.02 52.67 90.66 55.71 100.13 53.61 C 100.28 45.53 102.63 37.38 108.54 31.53 C 111.96 28.47 112.17 23.79 111.90 19.49 M 109.50 44.80 C 109.36 46.80 109.07 50.81 108.93 52.81 C 113.09 52.56 117.09 51.34 121.00 49.97 C 117.58 47.45 113.58 45.90 109.50 44.80 Z" />
<path fill="#111111" opacity="1.00" d=" M 889.76 19.81 C 892.28 18.97 894.81 18.21 897.39 17.51 C 899.70 26.42 894.84 34.68 890.60 42.24 C 894.13 44.54 899.05 49.35 903.04 45.07 C 907.51 40.26 912.86 36.38 919.63 35.60 C 926.24 40.96 932.50 46.74 938.38 52.90 C 937.17 54.24 935.98 55.58 934.79 56.91 C 929.99 55.32 925.01 54.39 920.04 53.56 C 921.05 52.89 922.07 52.22 923.10 51.55 C 911.68 52.89 910.53 65.90 908.12 74.80 C 911.82 75.34 915.51 75.84 919.24 76.41 C 923.98 84.31 932.44 89.03 937.57 96.71 C 936.19 96.73 934.83 96.75 933.47 96.77 C 929.63 90.63 923.71 85.74 916.67 83.82 C 914.13 87.42 913.02 92.91 908.40 94.37 C 906.43 95.10 904.40 95.59 902.39 96.08 C 902.58 94.86 902.81 93.65 903.03 92.44 C 907.89 91.68 911.03 87.88 913.53 83.97 C 897.63 83.33 881.69 83.82 865.84 82.21 C 867.43 85.67 868.32 90.03 872.06 91.90 C 877.85 95.39 884.23 97.88 890.80 99.44 C 890.85 100.21 890.95 101.77 891.00 102.54 C 882.16 101.76 874.36 97.33 866.82 93.02 C 863.32 90.11 861.26 85.88 858.77 82.14 C 858.08 82.10 856.71 82.02 856.02 81.98 C 852.88 87.53 849.12 92.89 847.24 99.03 C 847.58 102.57 849.45 105.73 850.64 109.04 C 853.43 109.66 856.26 110.26 859.08 110.93 C 859.31 112.50 859.53 114.07 859.74 115.65 C 856.09 115.02 852.42 114.34 848.79 113.68 C 846.85 107.58 842.97 102.21 841.42 96.02 C 842.32 92.16 845.30 89.03 845.75 85.04 C 844.14 79.57 839.60 75.33 838.52 69.64 C 838.20 67.05 839.12 64.52 839.66 62.02 C 831.86 65.16 823.60 67.66 816.87 72.86 C 812.54 76.17 807.92 79.09 803.08 81.59 C 807.22 75.59 807.08 66.83 814.06 63.02 C 819.70 58.35 827.82 60.36 834.58 59.00 C 842.05 58.74 848.47 54.13 855.82 53.45 C 863.56 54.05 871.30 54.71 879.07 54.97 C 877.83 52.51 875.30 50.29 875.54 47.37 C 877.92 38.76 882.85 30.33 891.66 27.05 C 891.12 24.65 889.99 22.22 889.76 19.81 M 887.97 44.48 C 887.09 47.01 886.28 49.56 885.56 52.13 C 889.18 51.75 892.80 51.34 896.44 50.87 C 893.76 48.56 890.95 46.39 887.97 44.48 Z" />
<path fill="#111111" opacity="1.00" d=" M 1282.67 20.86 C 1285.28 19.97 1287.91 19.16 1290.58 18.42 C 1292.95 27.16 1288.10 34.97 1285.58 43.00 C 1290.81 46.85 1297.32 46.63 1303.51 45.87 C 1303.39 44.30 1303.27 42.73 1303.19 41.16 C 1308.64 40.67 1314.15 39.24 1319.68 39.43 C 1326.84 44.14 1331.32 51.96 1334.74 59.62 C 1333.14 60.13 1331.58 60.64 1330.01 61.14 C 1325.44 58.16 1320.60 55.08 1315.13 54.24 C 1312.01 55.96 1309.89 59.04 1307.52 61.56 C 1303.90 65.34 1304.17 70.90 1303.04 75.70 C 1316.45 78.34 1327.71 86.32 1337.23 95.76 C 1335.95 96.11 1334.71 96.46 1333.47 96.81 C 1329.30 92.54 1325.11 87.96 1319.55 85.57 C 1314.38 83.67 1308.76 83.55 1303.38 82.85 C 1307.20 92.16 1312.33 101.19 1320.08 107.80 C 1322.72 109.97 1325.15 112.40 1327.40 114.97 C 1315.34 115.90 1303.22 114.61 1291.17 115.35 C 1266.12 116.52 1241.03 116.94 1215.98 115.78 C 1213.37 115.61 1210.89 114.71 1208.44 113.89 C 1212.75 113.51 1217.18 113.18 1221.55 112.84 C 1221.03 106.35 1220.60 99.67 1222.46 93.33 C 1224.27 90.46 1226.60 87.94 1228.82 85.37 C 1220.03 87.62 1212.81 93.26 1205.72 98.63 C 1202.07 101.84 1197.12 101.99 1192.62 103.00 C 1192.43 102.21 1192.04 100.63 1191.85 99.84 C 1198.01 98.43 1204.32 96.59 1208.93 91.94 C 1214.29 86.56 1221.47 83.33 1226.50 77.63 C 1228.20 72.88 1228.73 67.75 1230.03 62.86 C 1216.86 67.50 1203.49 74.14 1189.18 72.87 C 1194.58 68.54 1200.66 64.72 1207.62 63.56 C 1218.96 61.18 1230.11 57.76 1241.69 56.63 C 1252.06 56.56 1262.37 59.57 1272.76 57.38 C 1270.55 51.78 1269.37 45.27 1272.71 39.87 C 1274.43 33.91 1279.38 30.53 1284.80 28.23 C 1284.07 25.78 1283.33 23.33 1282.67 20.86 M 1281.11 45.87 C 1280.66 48.38 1280.22 50.89 1279.84 53.40 C 1284.19 52.60 1288.62 51.71 1292.74 50.00 C 1288.80 48.61 1284.99 47.25 1281.11 45.87 M 1245.37 78.60 C 1239.62 85.11 1232.47 90.19 1226.50 96.44 C 1225.47 100.40 1225.24 104.49 1225.14 108.56 C 1227.83 108.79 1230.54 109.02 1233.27 109.22 C 1232.03 109.88 1230.81 110.54 1229.60 111.19 C 1258.70 115.10 1288.28 113.48 1317.61 113.63 C 1317.64 113.10 1317.69 112.04 1317.72 111.51 C 1313.36 107.92 1311.19 102.58 1307.72 98.25 C 1303.74 93.00 1299.57 87.92 1295.00 83.19 C 1285.59 83.97 1275.96 85.51 1266.66 83.21 C 1259.58 81.61 1252.61 79.38 1245.37 78.60 Z" />
<path fill="#111111" opacity="1.00" d=" M 1472.94 20.71 C 1475.88 19.99 1478.38 19.35 1481.52 18.73 C 1482.16 26.41 1478.28 33.06 1475.66 39.95 C 1478.58 42.10 1481.28 44.74 1484.62 46.30 C 1488.87 47.51 1493.03 45.93 1497.07 44.82 C 1496.39 43.42 1495.71 42.02 1495.04 40.63 C 1500.37 40.64 1505.68 39.00 1510.99 39.23 C 1517.97 43.42 1522.54 50.45 1526.76 57.21 C 1527.36 58.86 1525.77 59.94 1524.74 60.91 C 1519.02 59.72 1513.90 56.59 1508.93 53.63 C 1505.51 57.00 1502.00 60.35 1499.18 64.23 C 1496.49 67.77 1498.08 72.61 1497.60 76.67 C 1508.43 83.80 1518.94 93.82 1533.10 92.41 C 1532.93 93.04 1532.60 94.30 1532.43 94.94 C 1517.17 96.41 1505.56 84.07 1490.83 82.50 C 1490.49 89.93 1488.86 97.61 1491.00 104.90 C 1493.49 109.23 1498.28 111.26 1501.66 114.77 C 1488.98 115.47 1476.23 114.73 1463.60 113.55 C 1471.92 112.70 1480.32 111.89 1488.71 112.36 C 1487.22 102.99 1485.55 93.65 1484.11 84.27 C 1472.78 84.76 1461.00 84.98 1450.31 80.69 C 1445.10 78.66 1439.18 77.09 1433.70 78.72 C 1425.98 82.12 1419.27 87.43 1413.18 93.18 C 1407.27 98.94 1402.63 106.67 1394.47 109.55 C 1395.65 104.79 1399.89 102.30 1402.95 98.93 C 1406.65 94.74 1409.79 90.08 1412.98 85.50 C 1402.34 87.59 1393.63 96.10 1382.04 93.65 C 1384.00 91.70 1386.49 90.46 1389.28 90.24 C 1395.62 89.50 1400.83 85.55 1406.06 82.23 C 1409.85 79.89 1414.73 79.42 1417.94 76.15 C 1419.75 70.35 1420.96 64.29 1423.91 58.90 C 1414.31 65.16 1404.27 72.68 1392.02 71.02 C 1386.99 72.39 1383.79 68.50 1381.27 65.07 C 1389.64 63.02 1398.37 63.37 1406.80 61.54 C 1413.18 59.77 1419.21 56.25 1426.02 56.20 C 1438.82 54.74 1451.49 58.32 1464.28 57.04 C 1462.88 54.68 1461.39 52.38 1459.98 50.04 C 1462.71 44.35 1463.15 37.48 1467.83 32.85 C 1469.76 30.60 1472.21 28.89 1474.67 27.24 C 1474.09 25.06 1473.50 22.89 1472.94 20.71 M 1470.84 44.52 C 1470.08 47.79 1469.53 51.10 1469.35 54.45 C 1474.87 53.57 1480.26 51.90 1485.36 49.60 C 1480.74 47.34 1475.85 45.65 1470.84 44.52 Z" />
<path fill="#111111" opacity="1.00" d=" M 1664.44 20.66 C 1667.97 19.35 1673.72 17.69 1674.33 23.14 C 1672.74 29.37 1670.41 35.45 1669.78 41.93 C 1673.88 44.30 1677.79 47.78 1682.99 47.04 C 1687.48 46.83 1689.33 42.22 1691.37 38.94 C 1696.31 39.33 1702.65 36.09 1706.63 40.38 C 1711.52 45.09 1716.57 49.88 1720.47 55.49 C 1721.95 57.56 1719.32 60.32 1717.15 59.47 C 1710.99 58.03 1704.66 57.24 1698.38 56.81 C 1695.33 64.12 1685.68 70.07 1689.15 78.85 C 1696.89 89.83 1705.19 102.14 1718.89 106.08 C 1718.12 107.62 1717.33 109.17 1716.59 110.71 C 1703.32 104.84 1696.21 90.76 1682.99 84.94 C 1679.73 83.23 1675.83 85.08 1673.40 87.39 C 1667.64 93.66 1662.64 100.65 1658.67 108.19 C 1667.67 114.13 1678.70 114.13 1689.05 113.39 C 1697.55 112.58 1705.96 114.17 1714.37 115.38 C 1698.01 115.35 1681.55 113.90 1665.30 116.22 C 1655.72 117.46 1646.10 115.73 1636.61 114.55 C 1644.58 114.17 1652.61 114.01 1660.62 113.61 C 1658.76 112.13 1656.83 110.74 1654.91 109.38 C 1658.83 101.55 1662.96 93.82 1667.01 86.05 C 1660.17 85.10 1653.14 84.93 1646.69 82.27 C 1641.98 80.67 1637.39 77.73 1632.23 78.49 C 1620.22 83.49 1607.30 86.37 1596.09 93.17 C 1591.46 96.88 1585.42 96.38 1579.91 96.56 C 1579.97 95.68 1580.09 93.93 1580.15 93.06 C 1584.63 91.21 1589.60 90.38 1593.65 87.58 C 1597.11 84.34 1599.45 80.14 1602.12 76.25 C 1605.54 76.28 1608.96 76.32 1612.43 76.28 C 1613.09 70.90 1613.62 65.44 1615.32 60.25 C 1606.69 64.67 1598.69 72.60 1588.12 70.87 C 1583.25 68.88 1579.56 64.66 1576.68 60.38 C 1583.86 61.70 1591.19 62.64 1598.49 62.04 C 1604.17 59.70 1609.53 56.24 1615.83 55.68 C 1629.62 53.28 1643.17 58.63 1657.02 57.12 C 1655.24 53.68 1652.26 50.04 1654.55 45.93 C 1655.47 41.65 1656.15 36.74 1659.57 33.61 C 1662.02 31.44 1664.78 29.59 1667.50 27.72 C 1666.40 25.40 1665.38 23.04 1664.44 20.66 M 1664.65 44.49 C 1664.06 47.66 1663.53 50.86 1663.23 54.07 C 1667.98 53.25 1672.80 52.39 1677.28 50.50 C 1674.13 46.81 1668.79 46.33 1664.65 44.49 M 1703.15 54.15 C 1702.04 53.80 1699.96 55.25 1701.45 56.19 C 1703.03 57.54 1705.83 54.70 1703.15 54.15 Z" />
<path fill="#111111" opacity="1.00" d=" M 2053.61 21.75 C 2056.93 20.37 2060.11 19.24 2063.64 18.24 C 2065.54 27.06 2061.09 35.08 2058.68 43.28 C 2062.15 45.17 2065.70 46.93 2069.34 48.56 C 2072.06 41.29 2078.95 34.88 2087.12 35.80 C 2093.51 38.48 2098.63 43.71 2103.42 48.65 C 2105.51 50.36 2103.96 53.07 2103.68 55.24 C 2097.21 53.17 2089.77 52.73 2083.97 56.91 C 2079.14 63.91 2076.50 72.16 2072.46 79.59 C 2070.80 82.72 2067.37 84.09 2064.44 85.67 C 2064.09 90.38 2063.98 95.10 2063.65 99.81 C 2058.40 99.51 2053.21 98.83 2048.03 98.10 C 2044.86 101.60 2041.83 105.19 2038.87 108.86 C 2039.67 110.51 2040.49 112.17 2041.32 113.83 C 2057.66 114.56 2074.24 111.19 2090.41 114.41 C 2079.64 114.95 2068.87 114.81 2058.15 115.49 C 2037.72 118.27 2017.05 115.73 1996.60 114.54 C 2009.17 114.05 2021.80 113.96 2034.37 112.87 C 2035.93 108.32 2037.74 103.70 2041.60 100.58 C 2044.19 98.63 2045.39 95.59 2044.98 92.39 C 2048.47 90.63 2051.54 88.10 2053.87 84.95 C 2044.79 83.22 2035.94 80.78 2027.00 78.57 C 2023.96 81.54 2020.98 84.53 2018.01 87.52 C 2024.26 90.72 2031.19 94.32 2032.55 101.88 C 2031.16 101.87 2029.80 101.86 2028.47 101.84 C 2026.49 95.12 2019.52 92.67 2013.49 90.70 C 2013.37 94.86 2013.24 99.02 2013.11 103.18 C 2010.04 100.35 2010.14 96.18 2009.30 92.44 C 2006.90 87.74 2002.79 84.17 1999.56 80.07 C 2003.47 78.75 2007.47 77.69 2011.41 76.38 C 2009.67 74.44 2007.95 72.51 2006.25 70.58 C 2005.80 68.10 2006.81 65.68 2006.79 63.21 C 1997.78 68.56 1988.17 74.53 1977.19 73.12 C 1976.30 70.03 1974.49 67.37 1972.40 64.97 C 1973.02 64.92 1974.25 64.82 1974.86 64.77 C 1974.17 63.38 1973.46 61.99 1972.82 60.59 C 1978.25 59.54 1983.75 58.85 1989.33 58.69 C 1994.09 58.90 1998.87 60.25 2003.58 58.57 C 2008.82 57.67 2013.50 54.86 2018.73 53.87 C 2027.06 52.75 2035.32 56.87 2043.60 54.46 C 2044.51 49.13 2044.42 43.45 2046.46 38.36 C 2048.86 34.03 2052.97 31.03 2056.45 27.59 C 2055.48 25.65 2054.52 23.70 2053.61 21.75 M 2055.29 47.52 C 2054.79 49.19 2054.30 50.85 2053.85 52.52 C 2056.86 52.51 2059.87 52.27 2062.87 51.80 C 2060.44 50.18 2057.88 48.81 2055.29 47.52 M 2084.48 53.74 C 2086.82 53.37 2089.15 52.84 2091.44 52.13 C 2089.07 52.52 2086.74 53.01 2084.48 53.74 M 2008.84 83.01 C 2009.02 84.18 2009.23 85.35 2009.47 86.53 C 2010.08 86.66 2011.30 86.94 2011.91 87.07 C 2012.71 85.77 2013.51 84.46 2014.33 83.14 C 2012.47 83.08 2010.65 83.04 2008.84 83.01 M 2051.50 94.56 C 2054.30 95.54 2057.13 96.48 2059.98 97.36 C 2059.28 94.43 2059.31 91.54 2058.76 88.63 C 2056.28 90.58 2053.87 92.54 2051.50 94.56 Z" />
<path fill="#111111" opacity="1.00" d=" M 1085.15 20.96 C 1087.89 20.59 1090.57 20.24 1093.39 19.88 C 1094.85 28.49 1087.38 34.80 1085.75 42.86 C 1089.25 44.67 1092.17 48.74 1096.70 47.36 C 1103.55 45.15 1108.89 39.62 1115.83 37.69 C 1122.45 39.03 1127.03 44.16 1130.44 49.62 C 1132.47 52.83 1137.65 57.74 1132.80 60.89 C 1126.17 59.02 1119.69 56.48 1112.85 55.35 C 1108.83 61.37 1104.30 67.99 1105.30 75.65 C 1109.80 76.40 1114.61 76.23 1118.84 78.11 C 1120.15 81.86 1119.68 85.95 1120.61 89.79 C 1124.66 95.99 1132.40 97.54 1139.18 98.58 C 1138.39 99.77 1137.59 100.96 1136.82 102.14 C 1130.38 100.88 1124.45 98.11 1119.16 94.21 C 1118.08 95.80 1115.90 98.99 1114.82 100.58 C 1113.57 97.51 1114.05 94.34 1115.71 91.53 C 1110.22 88.79 1105.21 84.26 1098.92 83.56 C 1091.61 83.88 1084.31 85.17 1076.99 84.93 C 1068.67 85.22 1060.81 82.10 1052.73 80.68 C 1053.57 88.07 1051.47 96.47 1056.00 103.02 C 1058.89 108.94 1065.29 111.50 1069.82 115.90 C 1067.22 115.79 1062.01 115.56 1059.41 115.45 C 1055.44 111.33 1053.14 105.84 1050.11 101.01 C 1047.92 95.20 1047.06 88.88 1044.02 83.37 C 1037.62 86.98 1031.49 91.12 1026.05 96.07 C 1022.87 98.84 1021.71 103.07 1020.01 106.77 C 1022.68 109.55 1025.02 112.66 1026.81 116.10 C 1023.61 116.35 1020.41 116.38 1017.21 116.24 C 1017.74 114.96 1018.30 113.68 1018.84 112.40 C 1017.52 111.34 1016.22 110.28 1014.93 109.20 C 1016.79 104.65 1018.39 99.99 1020.55 95.57 C 1022.05 90.28 1027.88 88.21 1030.23 83.53 C 1031.13 77.36 1031.27 71.11 1032.27 64.95 C 1026.42 66.23 1020.44 67.05 1014.73 68.85 C 1007.68 71.82 1002.77 77.97 996.80 82.51 C 997.86 77.53 999.23 72.56 1001.89 68.17 C 1000.49 67.96 999.10 67.75 997.73 67.54 C 1002.75 65.77 1007.65 63.64 1012.75 62.06 C 1020.80 60.79 1029.20 61.61 1037.02 58.87 C 1049.16 54.34 1062.28 58.20 1074.85 57.23 C 1073.21 54.87 1071.15 52.66 1070.36 49.85 C 1070.27 45.80 1072.41 42.09 1073.62 38.34 C 1075.50 32.97 1081.14 30.80 1085.72 28.28 C 1085.69 25.84 1084.90 23.39 1085.15 20.96 M 1080.44 45.51 C 1080.23 48.86 1080.86 52.18 1082.47 55.13 C 1085.76 53.84 1089.11 52.72 1092.39 51.35 C 1088.83 48.65 1084.58 47.05 1080.44 45.51 M 1110.76 81.88 C 1112.39 83.55 1114.10 85.13 1115.90 86.63 C 1115.69 84.65 1115.49 82.67 1115.29 80.69 C 1113.76 81.08 1112.25 81.48 1110.76 81.88 Z" />
<path fill="#111111" opacity="1.00" d=" M 1859.99 22.80 C 1862.84 21.95 1865.71 21.18 1868.62 20.49 C 1870.71 28.79 1866.27 36.24 1864.29 44.01 C 1868.48 45.88 1872.67 49.58 1877.58 48.56 C 1882.93 45.27 1887.30 40.50 1892.86 37.49 C 1900.72 41.15 1906.51 47.93 1913.31 53.14 C 1912.55 54.63 1911.81 56.11 1911.08 57.60 C 1904.48 56.78 1897.80 56.70 1891.25 57.83 C 1886.01 67.32 1880.25 76.53 1875.48 86.26 C 1872.75 93.00 1871.22 101.57 1874.68 108.32 C 1886.26 118.23 1902.93 111.71 1916.62 114.25 C 1908.62 116.71 1900.37 118.28 1892.00 117.87 C 1875.44 117.48 1858.89 116.67 1842.34 116.52 C 1826.78 117.82 1810.86 118.14 1795.59 114.50 C 1820.66 113.95 1845.75 112.87 1870.83 113.59 C 1870.43 105.44 1869.16 97.35 1867.50 89.37 C 1861.59 93.86 1859.06 103.50 1850.43 103.51 C 1844.69 104.94 1838.75 104.71 1833.04 103.43 C 1838.81 97.84 1847.86 103.87 1853.91 98.92 C 1857.29 95.29 1858.23 90.12 1860.26 85.71 C 1852.70 85.02 1845.32 83.38 1838.25 80.73 C 1834.71 79.36 1830.80 80.05 1827.42 81.48 C 1822.27 83.66 1816.51 83.71 1811.09 84.41 C 1812.07 87.51 1813.63 90.55 1813.61 93.86 C 1813.12 96.83 1811.38 99.39 1809.86 101.92 C 1807.86 95.62 1810.65 88.47 1806.19 82.91 C 1805.39 82.94 1803.81 83.02 1803.01 83.06 C 1800.76 86.44 1799.03 90.22 1796.33 93.25 C 1793.26 94.45 1790.18 95.50 1787.08 96.42 C 1787.06 95.07 1787.06 93.72 1787.09 92.37 C 1796.00 91.65 1798.45 82.67 1802.15 76.14 C 1806.02 76.43 1809.90 76.73 1813.82 77.02 C 1812.16 72.18 1811.64 67.05 1812.07 61.95 C 1805.40 67.07 1797.95 72.94 1789.11 72.86 C 1783.22 71.54 1781.74 64.58 1778.57 60.24 C 1786.77 61.58 1795.44 62.56 1803.39 59.50 C 1817.32 54.60 1832.40 53.93 1846.64 58.00 C 1846.46 57.07 1846.31 56.14 1846.18 55.21 C 1847.57 55.44 1848.98 55.67 1850.42 55.90 C 1850.54 46.33 1853.49 35.86 1861.88 30.35 C 1861.27 27.82 1860.62 25.31 1859.99 22.80 M 1860.54 47.72 C 1860.70 50.35 1861.09 52.97 1861.56 55.57 C 1864.79 54.69 1868.26 53.73 1871.49 52.61 C 1867.90 50.83 1864.17 49.29 1860.54 47.72 M 1891.64 55.60 C 1893.74 55.79 1895.88 55.96 1898.03 56.14 C 1897.99 55.49 1897.90 54.20 1897.86 53.55 C 1895.76 54.21 1893.69 54.90 1891.64 55.60 Z" />
<path fill="#111111" opacity="1.00" d=" M 472.59 112.72 C 494.77 110.22 517.10 111.67 539.33 112.55 C 527.87 113.85 516.47 116.26 504.87 115.50 C 494.02 115.93 483.07 115.88 472.59 112.72 Z" />
<path fill="#111111" opacity="1.00" d=" M 708.59 112.57 C 716.85 111.16 725.46 110.22 733.50 113.33 C 725.19 113.80 716.86 113.31 708.59 112.57 Z" />
<path fill="#111111" opacity="1.00" d=" M 883.52 114.12 C 893.53 113.09 903.55 111.98 913.59 111.23 C 913.58 111.86 913.58 113.11 913.58 113.74 C 903.62 115.08 893.50 115.07 883.52 114.12 Z" />
<path fill="#111111" opacity="1.00" d=" M 237.59 113.53 C 254.73 112.73 271.90 113.24 289.04 112.32 C 296.53 112.37 304.40 111.01 311.65 113.59 C 297.15 115.46 282.49 113.50 267.96 114.84 C 257.84 115.87 247.55 115.64 237.59 113.53 Z" />
<path fill="#111111" opacity="1.00" d=" M 318.50 112.89 C 327.41 112.14 336.37 112.00 345.31 112.22 C 336.46 113.44 327.38 114.27 318.50 112.89 Z" />
<path fill="#111111" opacity="1.00" d=" M 706.14 112.13 C 707.65 112.57 706.58 114.84 705.25 114.26 C 703.72 113.82 704.82 111.61 706.14 112.13 Z" />
<path fill="#111111" opacity="1.00" d=" M 869.65 113.70 C 872.86 113.19 876.21 112.79 879.50 112.92 C 876.08 113.21 872.99 113.56 869.65 113.70 Z" />
<path fill="#111111" opacity="1.00" d=" M 1449.45 113.55 C 1454.02 111.98 1458.83 112.37 1463.47 113.60 C 1458.85 114.74 1454.09 114.03 1449.45 113.55 Z" />
<path fill="#111111" opacity="1.00" d=" M 1501.56 113.87 C 1503.83 113.16 1506.14 112.63 1508.52 112.26 C 1506.24 112.99 1503.89 113.48 1501.56 113.87 Z" />
<path fill="#111111" opacity="1.00" d=" M 819.60 113.72 C 822.76 113.51 826.17 113.35 829.40 113.28 C 826.03 113.46 822.91 113.66 819.60 113.72 Z" />
<path fill="#111111" opacity="1.00" d=" M 834.62 114.59 C 838.83 113.46 843.22 113.42 847.48 114.28 C 843.17 114.41 838.89 114.51 834.62 114.59 Z" />
<path fill="#111111" opacity="1.00" d=" M 864.32 112.99 C 865.46 112.10 868.36 113.42 866.24 114.53 C 864.57 116.22 861.03 114.06 864.32 112.99 Z" />
<path fill="#111111" opacity="1.00" d=" M 1053.53 113.12 C 1054.94 110.94 1056.69 115.02 1054.10 114.41 C 1053.96 114.09 1053.68 113.44 1053.53 113.12 Z" />
<path fill="#111111" opacity="1.00" d=" M 1080.59 114.69 C 1089.98 114.12 1099.41 113.11 1108.84 113.38 C 1120.29 114.65 1131.79 115.06 1143.31 115.59 C 1133.74 117.27 1123.98 116.25 1114.34 116.40 C 1103.13 114.71 1091.72 116.86 1080.59 114.69 Z" />
<path fill="#111111" opacity="1.00" d=" M 1193.82 113.16 C 1194.56 111.87 1197.16 112.86 1196.31 114.34 C 1195.56 115.64 1193.06 114.59 1193.82 113.16 Z" />
<path fill="#111111" opacity="1.00" d=" M 1201.67 113.04 C 1203.05 113.18 1204.44 113.33 1205.84 113.49 C 1205.52 115.07 1205.17 116.65 1204.83 118.22 C 1203.75 116.50 1202.70 114.78 1201.67 113.04 Z" />
<path fill="#111111" opacity="1.00" d=" M 1408.57 113.67 C 1416.49 113.24 1424.47 113.03 1432.43 113.33 C 1424.46 113.75 1416.51 113.97 1408.57 113.67 Z" />
<path fill="#111111" opacity="1.00" d=" M 1625.00 113.98 C 1627.65 113.98 1630.32 113.98 1633.00 113.98 L 1633.00 115.02 C 1630.32 115.02 1627.65 115.02 1625.00 115.02 L 1625.00 113.98 Z" />
</g>
</svg>
