<?xml version="1.0" encoding="UTF-8" ?>
<!DOCTYPE svg PUBLIC "-//W3C//DTD SVG 1.1//EN" "http://www.w3.org/Graphics/SVG/1.1/DTD/svg11.dtd">
<svg height="375pt" version="1.1" viewBox="0 0 1500 375" width="1500pt"
  xmlns="http://www.w3.org/2000/svg">
  <g id="#8f1719ff">
    <path
      d=" M 449.94 22.74 C 452.57 23.26 455.37 23.81 458.03 24.42 C 459.04 29.47 456.78
      33.73 454.30 37.78 C 453.24 42.77 453.46 47.99 452.52 53.03 C 454.22 59.78
      465.13 59.17 465.53 66.68 C 466.86 73.38 459.59 77.53 456.99 83.00 C 453.45
      86.70 457.07 91.55 459.01 95.06 C 455.37 93.41 451.72 91.79 448.11 90.10 C
      451.76 83.59 453.78 76.29 457.66 69.90 C 452.84 69.70 448.03 69.33 443.22 69.04
      C 436.71 78.17 428.43 85.86 422.09 95.10 C 418.42 98.39 420.19 103.23 420.35
      107.42 C 417.78 105.03 415.24 102.62 412.73 100.18 C 416.85 94.88 418.48 88.07
      423.15 83.15 C 431.09 73.93 435.76 61.40 433.96 49.19 C 436.33 42.50 442.51
      37.74 446.40 31.94 C 447.61 28.89 448.75 25.80 449.94 22.74 Z" fill="#8f1719" opacity="1.00"/>
    <path
      d=" M 576.27 23.32 C 580.27 23.00 584.83 27.28 582.52 31.61 C 581.45 34.82 577.91
      37.31 578.70 41.00 C 579.45 45.96 579.97 51.52 583.71 55.29 C 586.51 59.26
      591.75 58.65 595.98 59.22 C 595.50 61.00 595.03 62.79 594.59 64.58 C 587.43
      62.50 580.81 59.02 574.38 55.34 C 574.30 56.40 574.23 57.45 574.17 58.51 C
      579.39 61.25 586.02 62.51 590.05 66.98 C 591.75 74.53 589.10 82.31 588.84 89.92
      C 591.27 90.97 593.73 91.95 596.20 92.93 C 592.53 94.08 588.77 95.04 585.08
      96.06 C 584.24 87.77 582.57 79.28 584.58 71.04 C 578.28 70.94 571.69 69.42
      565.50 70.62 C 552.83 79.62 538.32 88.06 530.68 102.15 C 528.87 93.37 534.86
      86.40 540.57 80.69 C 546.48 77.29 550.85 72.12 554.57 66.51 C 548.09 60.98
      555.30 52.01 555.61 45.43 C 560.38 40.56 566.63 37.32 572.12 33.32 C 572.44
      29.79 571.82 24.41 576.27 23.32 M 556.88 60.77 C 562.67 58.12 562.15 51.81
      561.69 46.28 C 558.76 50.58 557.71 55.73 556.88 60.77 Z" fill="#8f1719" opacity="1.00"/>
    <path
      d=" M 1199.94 22.74 C 1202.45 23.26 1205.42 23.81 1208.03 24.42 C 1209.03 29.47
      1206.78 33.73 1204.31 37.78 C 1203.28 43.02 1203.26 48.45 1202.55 53.74 C
      1205.59 58.58 1210.84 60.89 1215.85 63.07 C 1215.45 65.86 1215.63 68.73 1215.07
      71.48 C 1212.05 76.27 1208.25 80.53 1205.50 85.48 C 1205.12 89.15 1207.39 92.06
      1209.01 95.06 C 1205.37 93.41 1201.71 91.79 1198.11 90.10 C 1201.76 83.58
      1203.78 76.29 1207.67 69.89 C 1202.86 69.70 1198.07 69.35 1193.29 69.08 C
      1186.44 77.95 1178.05 85.55 1172.00 95.02 C 1168.44 98.40 1170.18 103.22 1170.35
      107.42 C 1167.77 105.03 1165.25 102.63 1162.75 100.20 C 1166.68 94.78 1168.44
      88.03 1173.15 83.15 C 1181.34 73.81 1185.66 61.02 1184.04 48.66 C 1188.74 39.60
      1197.65 33.11 1199.94 22.74 Z" fill="#8f1719" opacity="1.00"/>
    <path
      d=" M 1324.31 24.10 C 1327.65 23.18 1330.89 25.06 1334.15 25.61 C 1334.02 30.79
      1330.52 34.54 1328.67 38.99 C 1329.10 44.54 1328.91 51.48 1333.95 55.06 C
      1336.70 58.34 1341.06 56.98 1344.76 57.30 C 1344.32 57.69 1343.90 58.08 1343.49
      58.46 C 1345.07 59.29 1346.65 60.13 1348.22 61.00 C 1347.36 62.08 1346.51 63.15
      1345.69 64.24 C 1338.28 62.07 1330.96 59.38 1324.31 55.43 C 1324.25 56.46
      1324.22 57.49 1324.20 58.51 C 1330.15 61.38 1335.76 64.92 1340.97 68.99 C
      1340.19 76.42 1339.32 83.85 1339.09 91.31 C 1341.80 92.03 1344.54 92.70 1347.25
      93.47 C 1343.16 94.66 1339.17 95.85 1335.12 97.04 C 1334.20 88.77 1332.97 80.45
      1333.73 72.12 C 1328.24 71.30 1322.77 70.25 1317.22 70.27 C 1311.31 74.98
      1307.35 82.24 1300.09 85.13 C 1292.77 88.78 1283.14 91.32 1280.40 100.10 C
      1279.92 96.73 1279.58 93.35 1279.20 89.97 C 1288.37 84.10 1299.95 80.27 1304.98
      69.89 C 1308.72 62.44 1313.03 54.82 1311.50 46.03 C 1308.20 51.03 1307.21 56.93
      1306.30 62.73 C 1304.57 62.74 1302.85 62.74 1301.15 62.72 C 1302.64 56.42
      1303.76 49.99 1306.04 43.93 C 1310.81 39.95 1316.49 37.23 1321.70 33.85 C
      1322.44 30.59 1322.69 27.10 1324.31 24.10 Z" fill="#8f1719" opacity="1.00"/>
    <path
      d=" M 325.94 24.74 C 328.61 25.26 331.39 25.82 334.07 26.43 C 334.41 30.81 333.08
      34.86 331.17 38.66 C 328.99 46.31 326.31 53.80 323.91 61.38 C 329.31 66.33
      337.10 70.49 337.50 78.75 C 329.05 84.04 316.52 87.35 315.01 99.02 C 314.49
      97.35 313.98 95.67 313.48 94.00 C 311.25 96.25 309.03 98.50 306.84 100.80 C
      308.97 102.59 311.13 104.33 313.27 106.12 C 308.93 105.50 304.64 104.68 300.37
      103.70 C 304.33 96.24 308.64 88.32 316.12 83.89 C 314.81 77.37 311.37 71.48
      309.70 65.14 C 311.74 55.87 312.02 45.24 319.08 38.12 C 323.01 34.65 323.98
      29.37 325.94 24.74 M 324.00 73.92 C 324.00 75.64 324.00 77.36 324.00 79.08 C
      325.22 78.28 326.43 77.49 327.66 76.70 L 327.66 76.30 C 326.43 75.51 325.22
      74.71 324.00 73.92 Z" fill="#8f1719" opacity="1.00"/>
    <path
      d=" M 701.22 25.02 C 705.40 24.42 711.15 27.82 708.90 32.90 C 707.98 36.24 704.07
      38.50 704.72 42.24 C 705.05 45.88 705.64 49.50 706.14 53.12 C 712.07 54.34
      718.16 54.07 724.18 53.88 C 724.02 58.30 719.33 59.30 716.02 58.81 C 710.36
      58.88 704.66 58.18 699.24 56.53 C 696.35 65.17 708.20 68.94 710.78 76.05 C
      712.59 82.92 713.42 90.02 715.15 96.92 C 718.12 96.78 721.26 96.62 724.28 96.43
      C 720.92 99.08 717.58 101.73 714.16 104.29 C 710.82 97.45 706.97 90.64 705.94
      82.97 C 705.08 76.38 697.29 74.93 692.37 72.03 C 688.79 76.77 687.04 84.33
      680.83 86.52 C 674.36 84.88 669.05 80.16 662.56 78.57 C 658.72 77.73 655.27
      79.45 651.87 80.81 C 654.09 77.63 656.31 74.45 658.57 71.30 C 665.04 74.84
      672.68 75.18 679.22 78.62 C 682.55 67.92 686.59 57.39 688.19 46.23 C 686.70
      45.71 685.21 45.18 683.74 44.66 C 681.04 49.00 678.42 53.46 677.38 58.54 C
      676.99 58.06 676.60 57.59 676.23 57.11 C 675.94 58.59 675.66 60.06 675.38 61.54
      C 673.88 60.46 672.40 59.36 670.95 58.23 C 674.65 52.41 678.17 46.49 681.23
      40.31 C 686.27 38.77 692.21 38.92 696.62 35.66 C 699.10 32.67 698.70 28.08
      701.22 25.02 Z" fill="#8f1719" opacity="1.00"/>
    <path
      d=" M 1075.94 24.74 C 1078.49 25.26 1081.44 25.82 1084.07 26.43 C 1085.01 32.66
      1080.92 37.54 1079.74 43.29 C 1078.25 49.36 1075.79 55.10 1073.66 60.95 C
      1079.30 65.91 1085.62 70.72 1088.66 77.83 C 1080.37 84.17 1066.40 86.63 1065.20
      98.94 C 1064.64 97.29 1064.07 95.64 1063.54 93.98 C 1061.31 96.19 1059.13 98.39
      1056.97 100.64 C 1058.77 102.47 1060.60 104.27 1062.37 106.14 C 1058.33 105.54
      1054.35 104.63 1050.39 103.67 C 1054.34 95.87 1059.12 88.10 1066.73 83.37 C
      1064.71 77.17 1061.22 71.43 1059.70 65.14 C 1061.73 55.86 1062.01 45.24 1069.08
      38.12 C 1073.01 34.65 1073.97 29.37 1075.94 24.74 M 1074.00 73.92 C 1073.99
      75.64 1073.99 77.36 1074.00 79.08 C 1075.21 78.28 1076.43 77.49 1077.66 76.70 L
      1077.66 76.30 C 1076.43 75.51 1075.21 74.71 1074.00 73.92 Z" fill="#8f1719" opacity="1.00"/>
    <path
      d=" M 1452.29 25.99 C 1456.65 24.10 1462.18 28.06 1460.06 33.04 C 1459.58 36.24
      1456.74 38.36 1455.53 41.24 C 1454.91 45.24 1455.88 49.33 1455.84 53.34 C
      1460.67 53.52 1465.72 53.41 1469.65 50.20 C 1469.59 50.62 1469.47 51.45 1469.41
      51.87 C 1470.98 51.23 1472.55 50.60 1474.16 49.98 C 1473.50 52.11 1473.91 55.55
      1471.06 56.04 C 1463.83 57.52 1456.09 60.52 1448.86 57.67 C 1448.62 60.45
      1448.45 63.40 1450.02 65.87 C 1455.46 75.98 1457.61 87.57 1463.71 97.35 C
      1465.77 100.77 1470.29 98.50 1473.45 98.57 C 1470.45 101.15 1467.47 103.73
      1464.40 106.20 C 1459.77 99.82 1453.42 94.37 1451.26 86.50 C 1449.24 81.77
      1445.98 77.74 1442.76 73.80 C 1440.41 77.78 1438.77 82.25 1435.72 85.77 C
      1434.57 87.32 1432.17 87.43 1430.69 86.34 C 1425.47 82.24 1422.00 76.19 1416.43
      72.52 C 1413.11 72.24 1409.97 72.79 1406.79 73.51 C 1409.65 70.77 1412.53 68.00
      1415.40 65.25 C 1420.39 69.41 1425.70 73.16 1430.98 76.95 C 1433.89 66.44
      1437.13 56.00 1439.09 45.26 C 1437.63 44.87 1436.21 44.46 1434.79 44.05 C
      1430.56 48.43 1427.91 53.88 1424.85 59.05 C 1419.31 54.10 1426.18 48.37 1428.79
      43.85 C 1432.05 35.85 1441.98 40.25 1447.61 35.69 C 1449.79 32.83 1450.08 28.89
      1452.29 25.99 Z" fill="#8f1719" opacity="1.00"/>
    <path
      d=" M 76.27 27.98 C 80.65 26.07 86.18 30.06 84.06 35.04 C 83.59 38.24 80.74 40.35
      79.53 43.24 C 78.93 47.23 79.95 51.29 79.83 55.29 C 85.88 56.22 91.45 53.57
      97.14 52.08 C 97.40 53.83 97.63 55.58 97.80 57.34 C 89.61 57.86 81.29 62.71
      73.06 59.94 C 74.99 68.34 85.81 71.38 87.19 80.01 C 86.62 86.65 85.55 93.23
      84.85 99.85 C 87.65 100.41 90.44 100.96 93.24 101.54 C 89.46 103.25 85.60 104.79
      81.63 106.03 C 80.51 97.49 78.75 88.71 80.72 80.15 C 76.85 78.36 73.01 76.52
      69.13 74.75 C 67.45 78.88 66.18 83.21 63.99 87.11 C 62.61 89.10 60.86 92.09
      57.66 89.26 C 52.50 85.86 47.77 81.77 42.24 78.93 C 38.85 78.14 35.27 78.53
      31.81 78.53 C 34.62 76.16 37.46 73.80 40.30 71.47 C 45.51 75.83 52.04 78.04
      58.07 81.00 C 58.65 70.23 60.47 59.66 62.96 49.16 C 61.57 48.68 60.18 48.19
      58.79 47.70 C 55.61 52.19 53.08 57.07 50.64 61.99 C 49.27 61.55 47.90 61.11
      46.53 60.68 C 48.43 56.65 50.56 52.72 52.73 48.83 C 55.56 40.66 65.45 41.56
      72.01 38.58 C 73.34 35.03 73.79 30.99 76.27 27.98 Z" fill="#8f1719" opacity="1.00"/>
    <path
      d=" M 200.41 29.31 C 203.97 25.91 209.76 30.27 208.81 34.67 C 208.70 39.29 203.22
      41.66 203.52 46.39 C 203.90 51.00 202.34 55.32 200.25 59.30 C 205.12 61.56
      210.76 60.93 215.54 63.36 C 215.11 65.17 215.04 67.78 212.91 68.41 C 207.78
      66.92 203.01 64.34 197.77 63.16 C 200.49 71.07 209.00 76.68 207.83 85.73 C
      204.24 91.09 198.35 94.82 195.84 100.89 C 197.63 102.98 199.98 104.45 202.17
      106.08 C 197.98 106.02 193.80 105.96 189.61 105.90 C 190.91 101.13 192.58 96.48
      194.12 91.79 C 184.90 91.00 175.33 90.33 166.42 93.31 C 169.29 90.43 171.20
      84.38 176.12 85.50 C 181.53 85.76 186.93 84.93 192.31 84.46 C 190.01 79.44
      186.46 75.01 184.59 69.81 C 184.59 65.62 186.31 61.63 186.71 57.49 C 183.84
      61.93 181.65 66.75 179.21 71.43 C 178.07 70.50 176.94 69.57 175.80 68.65 C
      180.69 57.64 187.45 47.60 195.48 38.65 C 198.21 36.14 198.35 32.22 200.41 29.31
      Z" fill="#8f1719" opacity="1.00"/>
    <path
      d=" M 826.19 27.17 C 829.23 27.72 834.02 28.39 834.61 32.29 C 835.14 36.66 831.37
      39.73 829.53 43.27 C 828.90 47.27 829.91 51.36 829.81 55.38 C 835.69 56.45
      840.97 53.48 846.51 52.17 C 848.34 57.32 844.50 57.85 841.58 58.54 C 835.81
      59.73 829.94 60.40 824.08 60.88 C 823.83 61.81 823.59 62.73 823.37 63.65 C
      828.46 68.55 835.62 72.69 837.32 79.97 C 836.88 86.79 835.53 93.52 835.11 100.35
      C 837.87 100.76 840.66 101.19 843.46 101.64 C 839.70 103.59 835.70 105.02 831.60
      106.05 C 830.11 97.86 829.94 89.56 830.09 81.27 C 827.74 77.92 822.99 76.78
      819.43 74.76 C 817.80 79.29 816.16 83.84 814.08 88.18 C 813.10 89.44 811.31
      91.48 809.63 90.29 C 804.10 86.99 799.42 82.35 793.66 79.39 C 790.10 78.06
      786.20 78.49 782.49 78.18 C 785.30 75.88 788.22 73.74 791.16 71.58 C 796.01
      75.93 802.29 77.98 808.04 80.83 C 809.24 70.19 810.30 59.60 812.98 49.17 C
      811.58 48.69 810.19 48.20 808.81 47.71 C 803.63 52.47 804.11 63.48 795.64 63.98
      C 797.09 56.77 801.46 50.55 805.64 44.66 C 810.63 41.43 816.71 40.58 822.19
      38.44 C 823.48 34.67 824.78 30.90 826.19 27.17 Z" fill="#8f1719" opacity="1.00"/>
    <path
      d=" M 950.41 29.31 C 953.97 25.91 959.75 30.27 958.81 34.67 C 958.69 39.29 953.22
      41.66 953.52 46.39 C 953.88 50.96 952.38 55.25 950.29 59.20 C 954.81 60.94
      959.52 62.03 964.19 63.31 C 963.44 64.90 962.69 66.49 961.94 68.07 C 957.35
      66.11 952.68 64.27 947.79 63.22 C 950.45 70.86 957.89 76.45 958.62 84.69 C
      955.01 90.58 948.52 94.40 945.84 100.89 C 947.63 102.98 949.98 104.45 952.17
      106.08 C 947.97 106.02 943.78 105.96 939.61 105.90 C 940.89 101.17 942.54 96.56
      944.08 91.91 C 934.86 91.23 925.15 89.55 916.41 93.42 C 919.28 90.56 921.16
      84.18 926.11 85.58 C 931.51 86.10 936.86 84.64 942.25 84.28 C 939.93 79.34
      936.42 74.96 934.58 69.81 C 934.61 65.61 936.30 61.61 936.71 57.46 C 933.27
      62.23 931.40 67.83 929.00 73.14 C 927.53 72.08 926.07 71.02 924.61 69.97 C
      930.19 60.02 935.50 49.74 943.34 41.31 C 947.21 38.19 948.10 33.37 950.41 29.31
      Z" fill="#8f1719" opacity="1.00"/>
    <path
      d=" M 1457.76 163.57 C 1461.82 161.34 1466.87 166.57 1464.59 170.60 C 1463.94
      174.49 1459.76 175.54 1456.51 176.22 C 1456.26 177.13 1456.02 178.03 1455.81
      178.94 C 1462.42 184.28 1469.96 189.28 1478.69 189.88 C 1482.04 189.73 1482.26
      193.49 1483.23 195.81 C 1473.64 194.13 1464.32 191.19 1455.53 187.01 C 1454.50
      189.52 1453.25 192.02 1453.07 194.77 C 1457.73 199.59 1465.30 200.25 1470.20
      204.80 C 1471.19 206.28 1472.41 208.53 1471.19 210.21 C 1467.18 215.74 1462.48
      220.75 1458.38 226.21 C 1460.56 227.63 1462.78 228.97 1465.05 230.27 C 1461.09
      230.18 1457.12 230.03 1453.21 229.76 C 1453.71 227.43 1454.27 225.12 1454.85
      222.82 C 1448.75 221.77 1442.53 220.63 1436.35 221.13 C 1434.80 223.61 1434.00
      226.45 1433.02 229.18 C 1431.85 225.26 1430.78 221.31 1429.75 217.37 C 1436.58
      216.62 1443.36 215.53 1450.20 214.71 C 1447.66 211.09 1444.44 207.91 1442.40
      204.00 C 1441.40 197.89 1440.79 191.70 1439.68 185.61 C 1435.68 189.21 1432.60
      193.65 1431.38 198.93 C 1430.16 198.75 1428.96 198.56 1427.78 198.37 C 1432.01
      187.49 1439.39 177.73 1449.27 171.37 C 1452.65 169.39 1454.90 166.14 1457.76
      163.57 M 1457.02 208.73 C 1457.77 210.52 1458.55 212.31 1459.33 214.10 C 1460.63
      212.77 1461.92 211.45 1463.23 210.11 C 1461.15 209.63 1459.08 209.17 1457.02
      208.73 Z" fill="#8f1719" opacity="1.00"/>
    <path
      d=" M 83.78 166.45 C 87.03 166.62 91.62 167.98 91.68 171.97 C 91.19 177.31 86.35
      180.26 82.47 183.15 C 86.83 185.98 91.43 188.45 95.52 191.67 C 94.67 192.70
      93.82 193.75 92.97 194.79 C 89.31 192.28 85.39 190.14 81.21 188.63 C 80.40
      189.97 79.59 191.31 78.79 192.66 C 83.83 194.79 88.93 196.75 93.93 198.96 C
      93.57 199.95 93.20 200.95 92.84 201.95 C 87.01 199.60 81.14 197.20 74.78 196.80
      C 78.94 200.20 86.22 201.88 86.98 207.98 C 84.25 214.46 78.85 219.59 75.48
      225.80 C 77.78 227.39 80.09 228.95 82.37 230.57 C 78.20 230.67 74.04 230.83
      69.87 230.73 C 71.91 223.08 74.59 215.58 78.76 208.81 C 75.14 208.17 71.54
      207.51 67.90 207.03 C 66.90 211.16 68.04 217.97 63.02 220.03 C 56.77 221.02
      50.43 218.76 44.13 219.25 C 40.95 220.02 39.11 223.08 36.92 225.26 C 37.24
      221.60 37.60 217.94 38.00 214.29 C 44.99 214.38 51.96 213.87 58.95 213.77 C
      58.92 207.83 52.56 200.81 57.50 195.46 C 61.60 190.48 63.78 184.13 68.42 179.60
      C 74.49 176.25 80.80 173.05 83.78 166.45 Z" fill="#8f1719" opacity="1.00"/>
    <path
      d=" M 673.30 169.90 C 675.37 170.48 677.44 171.05 679.53 171.62 C 679.32 178.83
      680.48 185.97 680.76 193.16 C 685.57 192.68 690.38 191.51 695.26 191.44 C 697.60
      191.39 700.49 192.66 700.25 195.43 C 700.30 203.18 702.08 210.97 700.67 218.68 C
      698.87 223.59 693.18 225.56 689.10 228.17 C 683.84 231.67 677.47 229.10 671.64
      229.38 C 672.46 220.56 670.21 211.70 662.87 206.12 C 659.76 201.77 654.58 204.26
      650.61 205.53 C 652.87 202.53 655.15 199.55 657.45 196.57 C 663.97 201.13 671.04
      205.16 676.30 211.25 C 677.84 208.42 679.39 205.60 680.90 202.75 C 678.56 200.98
      675.73 199.40 674.60 196.54 C 674.27 187.69 677.03 178.33 673.30 169.90 Z" fill="#8f1719" opacity="1.00"/>
    <path
      d=" M 1323.29 174.21 C 1327.24 173.21 1330.91 177.64 1329.61 181.41 C 1329.41
      185.00 1326.00 186.61 1323.27 188.10 C 1325.08 192.49 1326.21 197.85 1330.78
      200.27 C 1334.96 203.11 1341.21 199.38 1344.76 203.16 C 1346.99 210.26 1345.26
      217.77 1343.79 224.84 C 1345.72 224.64 1347.67 224.42 1349.62 224.22 C 1349.88
      226.30 1350.15 228.38 1350.50 230.45 C 1346.88 230.53 1343.24 230.60 1339.69
      230.64 C 1338.57 225.44 1336.96 220.34 1336.28 215.06 C 1331.79 217.01 1327.36
      219.20 1322.59 220.38 C 1321.01 220.87 1319.26 220.03 1318.44 218.67 C 1315.48
      214.15 1313.32 209.20 1310.77 204.47 C 1308.27 208.93 1306.34 213.92 1302.43
      217.39 C 1305.09 206.11 1307.19 194.09 1315.00 185.00 C 1318.17 181.73 1319.40
      176.77 1323.29 174.21 Z" fill="#8f1719" opacity="1.00"/>
    <path
      d=" M 216.18 179.28 C 219.36 180.03 223.02 182.90 220.89 186.86 C 219.36 190.94
      214.41 192.09 211.85 195.40 C 218.15 201.05 225.07 205.98 231.24 211.78 C 233.09
      213.43 232.60 216.13 232.90 218.34 C 225.69 211.57 217.32 206.38 208.59 201.80 C
      209.53 204.38 210.29 207.00 210.65 209.74 C 207.44 215.20 203.59 220.27 200.47
      225.80 C 202.77 227.39 205.09 228.95 207.38 230.57 C 203.22 230.67 199.07 230.82
      194.92 230.74 C 196.96 223.25 199.28 215.81 202.70 208.82 C 198.20 208.89 193.72
      208.97 189.23 209.09 C 187.06 213.30 185.21 218.22 180.87 220.66 C 175.93 222.26
      170.77 223.15 165.85 224.87 C 166.32 227.27 166.82 229.66 167.30 232.06 C 164.04
      229.59 161.39 226.44 158.70 223.39 C 165.27 219.92 172.49 217.59 178.83 213.75 C
      178.77 209.12 177.84 204.58 177.09 200.03 C 182.58 196.66 187.83 192.94 192.56
      188.56 C 197.12 183.93 203.92 185.26 209.75 185.65 C 211.60 183.28 213.21 180.38
      216.18 179.28 Z" fill="#8f1719" opacity="1.00"/>
    <path
      d=" M 523.73 183.76 C 525.33 182.45 526.95 181.16 528.60 179.91 C 534.90 185.22
      542.36 189.02 548.15 194.97 C 554.03 191.25 559.58 186.82 566.19 184.39 C 571.61
      192.81 583.99 197.15 583.38 208.63 C 582.50 214.92 581.29 221.18 579.40 227.25 C
      576.61 226.60 574.29 226.10 571.64 225.45 C 572.73 226.73 573.84 227.99 574.96
      229.25 C 572.41 229.44 569.85 229.84 567.30 229.55 C 564.03 226.36 561.06 222.84
      559.17 218.67 C 561.48 218.73 563.80 218.86 566.10 219.13 C 565.46 215.11 564.76
      211.10 564.56 207.03 C 562.05 210.93 560.54 215.83 556.60 218.55 C 549.79 220.85
      542.22 219.32 535.36 221.47 C 532.33 222.64 530.49 225.50 528.46 227.87 C 528.83
      224.09 529.40 220.32 530.00 216.57 C 537.69 216.28 545.17 214.15 552.61 212.39 C
      553.87 208.92 554.16 205.18 554.93 201.58 C 540.56 204.19 536.94 185.29 523.73
      183.76 Z" fill="#8f1719" opacity="1.00"/>
    <path
      d=" M 819.01 181.13 C 822.29 184.81 825.86 188.22 829.08 191.95 C 830.05 198.45
      827.23 204.59 826.70 210.97 C 827.96 215.75 831.34 219.81 832.11 224.79 C 826.74
      228.81 819.44 228.07 813.23 230.05 C 807.23 233.05 802.24 228.58 798.24 224.78 C
      794.37 220.41 791.12 215.38 789.53 209.71 C 791.91 207.68 795.82 206.48 796.33
      202.97 C 797.70 196.78 800.97 189.91 807.70 188.41 C 805.50 193.51 801.09 197.53
      800.48 203.31 C 806.42 199.83 812.23 196.02 817.20 191.22 C 818.97 188.23 818.45
      184.48 819.01 181.13 M 816.12 204.61 C 815.66 207.23 818.04 208.90 819.53 210.67
      C 822.27 204.40 825.73 198.09 825.05 190.97 C 820.48 194.14 814.77 198.12 816.12
      204.61 M 811.19 203.91 C 809.53 204.36 810.42 206.96 812.01 206.29 C 813.67
      205.87 812.75 203.22 811.19 203.91 Z" fill="#8f1719" opacity="1.00"/>
    <path
      d=" M 1193.28 187.11 C 1195.06 182.26 1203.10 185.48 1202.98 189.99 C 1202.95
      193.96 1199.62 196.53 1197.43 199.43 C 1198.01 203.86 1203.21 205.27 1207.03
      204.70 C 1213.66 205.81 1222.62 203.68 1226.82 210.40 C 1224.40 210.35 1222.00
      210.26 1219.61 210.20 C 1222.83 218.23 1227.19 226.10 1234.96 230.53 C 1228.36
      230.76 1221.82 229.80 1215.24 229.70 C 1213.70 226.03 1211.97 222.44 1210.02
      218.98 C 1206.69 222.99 1203.63 227.26 1199.68 230.68 C 1195.11 230.28 1190.96
      227.97 1186.74 226.37 C 1185.86 218.99 1183.78 211.61 1184.22 204.14 C 1185.94
      197.87 1191.07 193.22 1193.28 187.11 M 1199.17 210.17 C 1198.63 211.79 1199.19
      212.35 1200.83 211.83 C 1201.34 210.20 1200.78 209.65 1199.17 210.17 M 1216.85
      219.89 C 1217.04 221.45 1217.23 223.01 1217.44 224.57 C 1219.01 224.73 1220.58
      224.88 1222.18 225.04 C 1220.39 223.31 1218.62 221.60 1216.85 219.89 M 1189.27
      222.54 C 1188.11 223.41 1189.57 225.38 1190.73 224.46 C 1191.85 223.58 1190.39
      221.62 1189.27 222.54 Z" fill="#8f1719" opacity="1.00"/>
    <path
      d=" M 308.87 190.11 C 316.25 189.72 323.47 188.04 330.81 187.37 C 335.14 188.77
      339.11 191.06 342.88 193.59 C 345.81 191.65 350.98 188.17 353.02 193.06 C 355.91
      199.42 346.27 200.73 342.47 201.86 C 338.07 202.68 341.19 208.35 341.03 210.91 C
      341.69 215.70 346.61 217.65 349.60 220.81 C 346.83 220.39 344.10 219.77 341.40
      219.05 C 342.75 222.50 343.88 226.36 341.49 229.67 C 337.73 222.95 334.70 215.88
      332.27 208.58 C 330.73 206.95 328.66 205.98 326.79 204.79 C 328.52 208.81 333.72
      212.98 330.61 217.58 C 324.27 220.99 316.58 220.91 309.76 223.05 C 310.69 225.85
      311.69 228.63 312.68 231.41 C 309.25 228.68 305.85 225.95 302.52 223.11 C 308.59
      219.54 314.62 215.81 321.14 213.08 C 317.46 210.15 314.18 206.49 309.80 204.59 C
      300.41 208.61 291.76 214.39 284.02 221.04 C 280.89 223.49 281.76 227.87 281.10
      231.39 C 279.09 228.31 277.11 225.21 275.18 222.08 C 278.64 220.00 281.61 217.24
      284.24 214.19 C 287.85 209.16 294.37 207.92 298.53 203.52 C 302.65 199.59 304.78
      194.01 308.87 190.11 Z" fill="#8f1719" opacity="1.00"/>
    <path
      d=" M 434.66 187.00 C 441.95 188.23 449.40 189.13 456.43 191.54 C 463.85 193.76
      462.64 204.71 470.37 206.82 C 472.35 207.89 475.30 209.77 473.32 212.27 C 470.89
      216.46 465.80 213.81 462.14 213.36 C 462.41 218.13 465.05 222.05 467.67 225.82 C
      462.56 224.65 457.34 225.40 452.21 225.98 C 453.13 223.44 455.35 220.77 454.10
      217.98 C 452.05 213.38 448.52 209.65 445.49 205.70 C 444.15 210.65 447.21 217.94
      442.73 221.75 C 436.10 223.38 428.97 221.52 422.34 223.41 C 419.53 225.01 420.90
      228.92 420.89 231.57 C 418.62 228.24 416.47 224.84 414.37 221.41 C 421.92 218.56
      429.71 216.31 437.79 215.70 C 435.70 210.93 433.82 206.07 431.89 201.25 C 419.02
      204.84 404.84 203.73 392.74 209.98 C 393.14 208.01 393.57 206.05 394.01 204.10 C
      402.49 203.19 409.95 198.37 418.53 197.84 C 425.10 196.42 429.87 191.34 434.66
      187.00 Z" fill="#8f1719" opacity="1.00"/>
    <path
      d=" M 962.43 195.41 C 966.79 195.06 968.57 190.66 970.82 187.58 C 970.77 191.40
      970.72 195.22 970.68 199.05 C 962.97 199.89 955.62 202.87 947.77 202.73 C 949.12
      204.20 950.66 205.52 951.85 207.14 C 951.53 209.36 950.65 211.47 950.19 213.66 C
      953.38 213.83 956.88 212.68 959.85 214.17 C 962.30 215.90 963.99 218.46 965.92
      220.71 C 968.43 219.78 970.96 218.86 973.53 218.05 C 973.74 219.79 973.94 221.52
      974.16 223.26 C 967.92 225.06 961.40 224.42 956.17 220.39 C 954.05 223.98 952.01
      227.59 949.87 231.16 C 942.17 230.25 934.43 229.58 926.71 229.08 C 919.31 225.71
      916.82 217.28 914.71 210.13 C 913.94 207.59 913.64 203.73 916.64 202.54 C 919.61
      201.11 922.44 203.72 924.95 205.06 C 926.99 203.19 928.64 200.72 931.14 199.39 C
      941.45 197.30 951.99 196.72 962.43 195.41 M 934.15 202.05 C 931.92 205.60 930.37
      209.78 933.68 213.24 C 935.24 212.41 938.38 210.74 939.95 209.91 C 940.10 207.36
      940.42 204.86 940.65 202.33 C 939.02 202.26 935.78 202.12 934.15 202.05 Z" fill="#8f1719" opacity="1.00"/>
    <path
      d=" M 1051.66 197.92 C 1051.45 194.42 1052.76 187.06 1057.88 188.05 C 1062.77
      188.68 1062.55 194.39 1063.10 198.11 C 1070.92 200.26 1078.40 204.85 1086.81
      203.84 C 1096.59 201.38 1101.08 212.98 1109.45 215.31 C 1112.39 215.42 1115.48
      215.21 1118.43 214.83 C 1115.75 217.56 1113.13 220.32 1110.41 223.00 C 1105.36
      219.00 1099.65 215.90 1093.52 213.95 C 1093.37 216.69 1093.07 222.17 1092.92
      224.91 C 1095.56 224.68 1098.20 224.44 1100.86 224.26 C 1099.80 229.18 1095.24
      231.20 1090.37 229.95 C 1088.73 226.22 1087.64 222.31 1086.32 218.48 C 1082.49
      221.30 1079.39 224.95 1076.16 228.40 C 1069.55 225.86 1063.29 222.38 1057.45
      218.40 C 1050.30 214.28 1051.01 204.93 1051.66 197.92 M 1067.75 204.11 C 1068.00
      205.29 1068.26 206.47 1068.54 207.65 C 1071.78 208.14 1075.13 208.63 1078.42
      208.99 C 1078.60 208.22 1078.96 206.68 1079.14 205.90 C 1075.36 205.23 1071.51
      204.70 1067.75 204.11 Z" fill="#8f1719" opacity="1.00"/>
    <path
      d=" M 454.18 250.41 C 457.81 250.48 462.20 253.64 460.07 258.03 C 459.68 261.82
      455.74 263.74 453.27 266.17 C 453.57 268.27 453.88 270.37 454.20 272.49 C 456.51
      272.83 458.84 273.19 461.17 273.58 C 462.91 277.49 464.39 281.81 469.11 283.09 C
      472.08 284.22 472.62 286.78 471.47 289.55 C 468.65 288.48 465.89 287.28 463.16
      286.01 C 464.47 289.35 465.22 292.88 464.89 296.48 C 467.48 297.47 469.69 298.21
      472.45 299.28 C 468.61 300.19 464.73 301.00 460.89 301.83 C 460.12 298.29 459.43
      294.79 458.42 291.34 C 456.94 294.51 454.79 297.49 454.07 300.97 C 455.14 303.66
      457.15 305.84 458.70 308.27 C 455.11 306.77 451.52 305.26 447.94 303.77 C 449.83
      298.15 451.73 292.52 453.25 286.78 C 447.92 288.84 442.99 293.06 437.01 292.63 C
      432.98 291.59 431.19 286.36 432.63 282.65 C 435.37 273.84 440.65 265.78 447.53
      259.61 C 450.18 256.92 450.17 251.70 454.18 250.41 Z" fill="#8f1719" opacity="1.00"/>
    <path
      d=" M 317.90 261.54 C 319.55 258.14 319.63 249.13 325.66 251.28 C 330.59 252.35
      331.00 258.00 328.66 261.75 C 327.80 264.01 325.24 266.44 327.00 268.88 C 330.95
      275.94 338.91 279.21 345.97 282.23 C 349.74 283.36 347.88 287.71 347.43 290.39 C
      344.39 289.39 341.39 288.31 338.40 287.20 C 339.15 290.77 338.96 294.88 340.90
      298.14 C 342.77 300.19 345.60 300.92 348.03 302.07 C 344.50 303.09 340.92 303.98
      337.37 304.93 C 335.51 297.95 333.04 291.14 331.59 284.05 C 329.11 285.91 326.65
      287.77 324.16 289.61 C 327.68 293.45 332.20 296.66 334.65 301.35 C 336.46 305.35
      329.67 307.42 326.94 306.72 C 319.80 307.54 309.42 307.34 308.65 317.05 C 307.67
      313.39 306.80 309.70 306.03 306.00 C 311.49 305.14 316.79 303.35 321.43 300.31 C
      316.85 298.39 312.18 296.66 307.56 294.86 C 308.07 283.06 312.49 271.88 317.90
      261.54 Z" fill="#8f1719" opacity="1.00"/>
    <path
      d=" M 579.48 250.23 C 581.97 251.23 585.21 251.92 586.89 254.33 C 589.19 262.20
      577.95 263.39 579.02 270.85 C 581.46 271.70 584.23 272.15 586.48 273.57 C 588.87
      277.08 587.63 283.10 593.28 283.85 C 592.91 284.16 592.54 284.47 592.18 284.79 C
      593.47 284.98 594.76 285.17 596.06 285.36 C 595.54 286.89 595.03 288.42 594.54
      289.95 C 592.04 289.16 589.58 288.25 587.12 287.34 C 587.83 289.99 587.93 293.12
      589.35 295.60 C 591.55 297.28 594.35 297.81 596.93 298.69 C 594.47 299.42 592.03
      300.18 589.63 301.03 C 591.18 301.68 592.73 302.33 594.29 302.99 C 590.78 303.38
      587.23 304.21 583.71 303.70 C 581.29 297.55 577.04 292.50 573.61 286.94 C 569.20
      288.44 563.49 293.16 559.18 289.84 C 556.09 286.54 556.49 281.16 558.46 277.37 C
      562.00 270.95 566.12 264.44 572.39 260.36 C 576.16 258.19 577.47 253.81 579.48
      250.23 M 576.43 283.44 C 577.60 286.07 579.16 288.50 580.98 290.73 C 582.57
      286.29 579.00 285.05 576.43 283.44 Z" fill="#8f1719" opacity="1.00"/>
    <path
      d=" M 704.32 250.37 C 707.50 251.39 712.25 252.61 711.85 256.90 C 711.83 261.41
      707.54 263.56 704.22 265.60 C 704.19 267.71 704.17 269.82 704.16 271.95 C 712.63
      272.20 713.14 281.77 718.53 286.26 C 718.27 287.38 717.99 288.50 717.70 289.62 C
      716.06 289.53 714.43 289.43 712.80 289.33 C 712.84 295.72 717.71 298.58 723.08
      299.78 C 720.64 300.32 718.21 300.88 715.78 301.44 C 717.26 302.64 718.76 303.83
      720.26 305.04 C 716.28 305.01 712.32 304.98 708.38 304.95 C 708.56 298.07 706.74
      291.37 705.69 284.62 C 703.32 285.34 700.98 286.11 698.64 286.90 C 699.75 290.76
      701.20 294.51 702.13 298.42 C 700.71 298.68 699.29 298.94 697.89 299.21 C 696.88
      295.94 696.02 292.61 695.11 289.33 C 690.73 292.37 682.91 293.26 681.35 286.67 C
      680.81 276.91 688.55 268.55 695.32 262.43 C 699.92 259.75 702.02 254.87 704.32
      250.37 Z" fill="#8f1719" opacity="1.00"/>
    <path
      d=" M 828.28 253.20 C 832.06 252.55 836.09 256.91 834.75 260.68 C 833.30 265.58
      827.17 267.44 826.98 273.03 C 826.06 275.79 825.05 278.52 824.03 281.24 C 828.50
      282.11 833.96 281.92 837.48 285.35 C 839.73 291.32 839.74 297.96 842.12 303.91 C
      843.56 307.41 848.11 307.62 851.01 309.11 C 847.20 310.12 843.46 311.13 839.71
      312.24 C 841.82 313.62 843.97 314.93 846.13 316.25 C 842.25 316.30 838.36 316.10
      834.50 315.96 C 833.45 308.23 831.27 300.65 831.20 292.80 C 825.00 293.61 817.54
      293.73 814.86 300.80 C 810.35 298.84 806.22 294.02 805.39 289.15 C 808.36 279.37
      811.72 268.55 820.75 262.67 C 824.47 260.52 824.60 255.32 828.28 253.20 Z" fill="#8f1719" opacity="1.00"/>
    <path
      d=" M 191.68 253.07 C 195.48 253.57 200.45 255.18 200.30 259.84 C 200.68 263.27
      198.18 266.10 196.80 269.01 C 200.50 273.61 204.64 278.31 210.26 280.55 C 214.60
      281.86 219.07 282.77 223.41 284.14 C 222.66 285.83 221.87 287.50 221.05 289.16 C
      218.58 288.47 216.11 287.77 213.65 287.06 C 214.31 292.48 213.61 298.64 216.34
      303.59 C 218.58 305.30 221.43 305.90 224.04 306.84 C 220.43 307.94 216.78 308.97
      213.17 310.04 C 210.97 302.96 208.18 296.09 206.23 288.94 C 203.21 291.34 199.69
      293.28 197.29 296.37 C 197.07 303.01 205.27 310.70 199.76 316.79 C 192.71 318.14
      185.32 316.19 178.34 318.40 C 175.29 319.62 173.46 322.54 171.43 324.95 C 171.98
      321.21 172.64 317.52 173.38 313.83 C 180.02 313.50 186.39 311.42 192.92 310.36 C
      189.60 306.25 185.85 302.47 182.84 298.14 C 181.93 289.95 184.91 281.92 185.02
      273.76 C 189.65 267.66 191.21 260.52 191.68 253.07 Z" fill="#8f1719" opacity="1.00"/>
    <path
      d=" M 939.10 266.54 C 941.08 263.70 940.66 257.71 945.11 257.03 C 949.83 256.37
      952.82 262.56 950.30 266.40 C 945.28 274.17 946.09 283.92 944.98 292.70 C 950.11
      296.14 956.04 298.92 959.94 303.84 C 961.53 311.10 962.41 318.53 964.11 325.78 C
      966.35 325.68 968.62 325.59 970.91 325.49 C 970.80 326.66 970.70 327.83 970.63
      329.01 C 967.68 330.42 964.75 331.83 961.80 333.19 C 958.50 325.23 954.45 317.22
      954.34 308.44 C 947.74 306.63 941.02 305.36 934.51 303.26 C 933.27 302.83 931.84
      302.06 931.73 300.60 C 931.55 294.85 932.15 289.11 931.81 283.37 C 928.41 288.52
      927.99 294.81 927.17 300.76 C 925.78 300.52 924.40 300.27 923.03 300.02 C 923.93
      294.16 924.05 288.13 925.58 282.39 C 928.81 276.13 935.07 272.20 939.10 266.54
      Z" fill="#8f1719" opacity="1.00"/>
    <path
      d=" M 60.89 267.15 C 60.94 262.61 68.90 263.28 69.95 267.12 C 71.36 271.79 68.86
      276.49 69.14 281.18 C 70.07 284.53 71.58 287.70 72.80 290.96 C 77.23 289.33
      82.24 285.00 87.05 287.72 C 87.62 289.07 87.83 290.53 88.16 291.95 C 84.28
      292.48 80.38 292.78 76.52 293.42 C 81.01 294.29 85.55 294.83 90.09 295.47 C
      89.91 296.89 89.74 298.31 89.56 299.73 C 82.90 299.08 76.29 298.00 69.63 297.34
      C 75.96 299.21 82.73 300.12 88.34 303.84 C 86.76 311.09 84.59 318.24 84.09
      325.68 C 85.89 327.68 87.97 329.42 89.93 331.28 C 86.03 331.07 82.13 330.85
      78.24 330.63 C 78.82 323.05 78.88 315.40 80.37 307.94 C 76.71 308.62 73.04
      309.29 69.38 310.02 C 69.80 315.62 71.11 321.38 69.87 326.97 C 66.26 332.82
      60.82 337.35 57.41 343.36 C 56.81 346.21 58.64 348.95 59.46 351.63 C 56.17
      349.73 52.98 347.67 49.87 345.50 C 54.51 338.69 58.12 331.25 63.00 324.60 C
      62.29 318.53 58.20 313.15 55.49 307.76 C 57.74 300.07 56.40 292.13 55.70 284.35
      C 57.25 278.52 61.60 273.56 60.89 267.15 Z" fill="#8f1719" opacity="1.00"/>
    <path
      d=" M 1063.18 278.61 C 1064.61 275.17 1065.97 266.09 1071.90 269.00 C 1078.42
      271.73 1074.15 279.88 1071.05 283.81 C 1069.32 291.10 1070.95 298.92 1070.61
      306.40 C 1075.10 311.10 1081.62 314.95 1083.08 321.74 C 1084.50 328.31 1085.64
      334.95 1087.45 341.44 C 1090.06 341.55 1092.89 341.73 1095.59 341.88 C 1091.42
      344.58 1087.18 347.23 1082.46 348.86 C 1079.92 340.35 1075.28 332.02 1076.56
      322.82 C 1073.07 321.28 1069.71 318.30 1065.65 319.05 C 1063.76 319.11 1061.17
      320.17 1060.18 317.88 C 1053.76 311.00 1059.62 301.07 1055.83 293.19 C 1050.50
      297.26 1048.22 303.66 1047.83 310.15 C 1046.06 309.70 1044.30 309.24 1042.55
      308.80 C 1044.23 303.61 1046.02 298.39 1048.60 293.57 C 1052.35 287.60 1059.06
      284.25 1063.18 278.61 Z" fill="#8f1719" opacity="1.00"/>
    <path
      d=" M 1318.22 277.07 C 1321.22 276.99 1324.56 278.46 1325.79 281.37 C 1327.47
      287.08 1320.76 290.47 1321.83 295.99 C 1322.57 301.96 1321.56 307.90 1320.30
      313.71 C 1325.97 316.97 1331.35 320.71 1336.72 324.46 C 1335.23 336.53 1316.65
      338.50 1319.54 351.86 C 1317.86 350.17 1316.18 348.50 1314.42 346.92 C 1314.85
      350.14 1315.50 353.40 1316.30 356.56 C 1313.03 354.73 1309.77 352.74 1306.60
      350.82 C 1311.49 344.73 1316.45 338.69 1321.91 333.08 C 1317.03 329.30 1311.64
      326.20 1306.99 322.15 C 1307.34 314.54 1305.83 306.86 1307.33 299.32 C 1308.67
      295.12 1311.71 291.75 1314.10 288.10 C 1316.38 284.77 1315.04 279.89 1318.22
      277.07 Z" fill="#8f1719" opacity="1.00"/>
    <path
      d=" M 1191.67 280.40 C 1194.79 277.00 1201.12 280.23 1200.71 284.68 C 1200.85
      289.40 1195.61 292.35 1196.02 297.07 C 1196.52 303.31 1195.86 309.56 1195.39
      315.78 C 1200.22 319.76 1206.14 322.91 1209.93 327.98 C 1211.41 335.41 1209.63
      343.26 1210.06 350.81 C 1212.51 352.11 1214.97 353.39 1217.40 354.75 C 1210.75
      355.40 1204.05 355.71 1197.39 355.85 C 1198.67 347.73 1198.50 339.13 1202.61
      331.79 C 1197.79 329.86 1192.90 327.99 1187.91 326.59 C 1185.13 327.38 1182.89
      329.51 1179.93 329.89 C 1180.63 321.83 1182.17 313.84 1182.47 305.75 C 1176.60
      309.49 1173.78 315.64 1171.94 322.06 C 1170.44 321.25 1168.94 320.44 1167.47
      319.63 C 1172.55 308.90 1179.48 299.23 1187.71 290.69 C 1190.54 287.96 1190.32
      283.83 1191.67 280.40 M 1204.23 345.57 C 1203.74 347.83 1203.31 350.10 1202.95
      352.38 C 1203.82 352.56 1205.57 352.92 1206.44 353.10 C 1205.75 350.57 1205.03
      348.06 1204.23 345.57 Z" fill="#8f1719" opacity="1.00"/>
  </g>
</svg>
