<?xml version="1.0" encoding="UTF-8" ?>
<!DOCTYPE svg PUBLIC "-//W3C//DTD SVG 1.1//EN" "http://www.w3.org/Graphics/SVG/1.1/DTD/svg11.dtd">
<svg height="450pt" version="1.1" viewBox="0 0 2000 450" width="2000pt"
  xmlns="http://www.w3.org/2000/svg">
  <g id="#8f1719cc">
    <path
      d=" M 273.11 72.82 C 280.40 69.82 287.92 65.11 296.10 67.89 C 302.74 70.43 307.25
      76.53 313.85 79.22 C 320.80 81.97 323.86 89.38 327.95 95.07 C 323.44 89.70
      319.51 83.16 312.85 80.24 C 307.72 77.97 303.65 74.06 299.10 70.91 C 294.20
      67.47 287.33 67.05 282.16 70.21 C 269.72 76.57 255.84 79.15 242.72 83.73 C
      252.31 78.67 262.93 76.34 273.11 72.82 Z" fill="#8f1719" opacity="0.80"/>
    <path
      d=" M 203.49 87.68 C 214.33 83.98 225.96 85.46 237.19 84.98 C 227.79 85.99 218.26
      85.70 208.90 87.13 C 199.69 89.85 191.03 94.67 181.13 94.65 C 168.69 97.54
      155.92 94.28 143.48 97.08 C 116.89 99.61 90.31 102.62 63.61 103.68 C 53.84
      105.56 46.38 112.89 39.24 119.31 C 45.59 111.46 53.68 103.60 64.15 102.19 C
      74.21 100.40 84.50 102.47 94.53 100.48 C 124.82 95.96 155.57 96.44 185.93 92.76
      C 192.12 92.38 197.65 89.42 203.49 87.68 Z" fill="#8f1719" opacity="0.80"/>
    <path
      d=" M 331.27 99.67 C 340.95 107.59 347.12 121.00 361.09 121.85 C 384.38 126.20
      407.93 119.56 431.33 119.40 C 414.55 121.80 397.69 123.66 380.79 124.92 C 370.44
      124.38 359.86 123.41 350.09 119.82 C 342.14 114.95 337.44 106.41 331.27 99.67 Z" fill="#8f1719" opacity="0.80"/>
    <path
      d=" M 472.05 113.21 C 495.97 107.94 520.63 108.09 545.00 107.93 C 564.10 108.02
      583.30 107.61 602.31 109.91 C 610.51 111.43 618.41 114.19 626.38 116.62 C 633.71
      118.84 641.35 119.93 648.61 122.44 C 655.89 124.94 662.26 129.37 669.06 132.87 C
      678.86 137.96 688.44 143.45 697.93 149.09 C 706.31 154.10 715.31 158.57 725.17
      159.54 C 707.81 160.14 694.51 147.48 679.94 140.14 C 665.34 133.22 651.91 122.67
      635.52 120.30 C 620.04 116.72 605.29 109.75 589.11 109.65 C 558.41 108.20 527.59
      108.69 496.92 110.84 C 478.36 112.06 460.51 118.87 441.74 117.80 C 451.92 116.86
      462.04 115.29 472.05 113.21 Z" fill="#8f1719" opacity="0.80"/>
    <path
      d=" M 433.08 119.27 C 433.60 118.01 434.53 117.47 435.86 117.68 C 435.51 119.05
      434.58 119.58 433.08 119.27 Z" fill="#8f1719" opacity="0.80"/>
    <path
      d=" M 10.64 138.42 C 19.05 130.81 29.57 126.34 38.74 119.86 C 31.03 128.14 20.12
      132.54 10.64 138.42 Z" fill="#8f1719" opacity="0.80"/>
    <path
      d=" M 1704.39 128.41 C 1712.74 124.62 1722.01 123.81 1731.06 123.15 C 1748.05
      122.79 1765.73 122.06 1781.97 128.06 C 1791.32 131.76 1801.31 133.06 1811.13
      134.99 C 1816.93 136.13 1822.52 133.51 1828.12 132.44 C 1836.51 130.13 1845.32
      131.13 1853.94 131.10 C 1866.21 131.77 1878.71 131.57 1890.76 134.39 C 1904.64
      139.80 1918.26 145.88 1932.08 151.46 C 1912.97 148.55 1897.21 134.23 1877.60
      133.43 C 1859.67 132.27 1841.31 130.36 1823.66 134.67 C 1811.34 138.14 1799.00
      132.92 1786.92 131.01 C 1765.11 122.27 1740.95 122.65 1718.02 125.98 C 1707.44
      127.03 1698.51 133.63 1688.01 135.00 C 1659.29 141.96 1629.57 136.98 1600.51
      140.73 C 1584.60 142.71 1568.10 143.48 1553.34 150.36 C 1543.95 154.97 1533.53
      156.73 1524.00 160.97 C 1512.41 165.94 1500.28 169.44 1488.33 173.38 C 1481.40
      176.17 1473.77 175.42 1466.51 175.48 C 1434.51 174.72 1402.44 174.32 1370.49
      176.65 C 1357.69 177.73 1345.25 181.13 1332.51 182.55 C 1312.89 184.82 1293.63
      190.43 1275.81 198.91 C 1267.58 203.12 1258.99 206.87 1249.84 208.47 C 1239.42
      210.14 1228.78 210.46 1218.45 212.63 C 1199.38 218.30 1180.67 225.36 1161.12
      229.27 C 1152.51 231.62 1143.60 233.00 1134.70 231.72 C 1161.59 231.20 1186.75
      220.27 1212.28 213.09 C 1225.36 208.60 1239.49 209.26 1252.93 206.50 C 1265.44
      203.76 1276.21 196.50 1288.13 192.15 C 1302.97 186.91 1318.27 182.74 1333.93
      180.84 C 1346.72 179.51 1359.18 175.85 1372.07 175.21 C 1397.33 173.36 1422.69
      173.96 1448.00 174.10 C 1459.57 173.98 1471.34 175.77 1482.84 173.69 C 1496.06
      169.47 1509.50 165.74 1522.31 160.29 C 1533.68 155.16 1546.11 152.91 1557.34
      147.36 C 1590.45 136.13 1626.14 138.94 1660.51 137.44 C 1675.37 136.16 1690.65
      134.66 1704.39 128.41 Z" fill="#8f1719" opacity="0.80"/>
    <path
      d=" M 1933.73 150.95 C 1947.92 141.42 1965.55 139.30 1982.22 138.82 C 1965.68
      141.14 1948.87 143.49 1933.73 150.95 Z" fill="#8f1719" opacity="0.80"/>
    <path
      d=" M 866.87 140.89 L 867.33 141.49 C 867.53 143.14 864.96 143.38 865.27 141.59 C
      865.67 141.41 866.47 141.06 866.87 140.89 Z" fill="#8f1719" opacity="0.80"/>
    <path
      d=" M 869.45 141.94 C 870.94 142.41 872.46 142.90 873.97 143.40 C 872.54 144.13
      871.13 144.88 869.74 145.66 L 869.66 145.01 C 869.56 143.99 869.49 142.96 869.45
      141.94 Z" fill="#8f1719" opacity="0.80"/>
    <path
      d=" M 877.92 144.60 C 879.55 144.05 881.20 143.51 882.84 142.93 C 883.73 143.75
      884.62 144.56 885.55 145.37 C 882.99 145.25 880.41 145.18 877.92 144.60 Z" fill="#8f1719" opacity="0.80"/>
    <path
      d=" M 861.37 147.03 C 860.07 146.35 860.22 144.51 861.63 144.09 C 861.57 144.82
      861.43 146.29 861.37 147.03 Z" fill="#8f1719" opacity="0.80"/>
    <path
      d=" M 886.55 146.22 C 886.69 144.56 889.39 144.90 888.82 146.60 C 888.25 146.50
      887.12 146.32 886.55 146.22 Z" fill="#8f1719" opacity="0.80"/>
    <path
      d=" M 861.98 147.64 C 863.72 149.38 865.41 151.18 867.08 153.00 C 865.33 151.25
      863.65 149.45 861.98 147.64 Z" fill="#8f1719" opacity="0.80"/>
    <path
      d=" M 888.80 148.35 C 890.05 148.30 891.18 149.40 891.13 150.68 C 889.71 151.61
      888.44 149.61 888.80 148.35 Z" fill="#8f1719" opacity="0.80"/>
    <path
      d=" M 894.98 152.88 C 894.69 151.55 895.23 150.83 896.60 150.72 C 896.95 152.08
      896.41 152.81 894.98 152.88 Z" fill="#8f1719" opacity="0.80"/>
    <path
      d=" M 867.61 153.54 C 868.80 152.92 869.83 153.10 870.71 154.10 C 869.54 154.95
      868.51 154.77 867.61 153.54 Z" fill="#8f1719" opacity="0.80"/>
    <path
      d=" M 883.48 154.46 C 883.20 157.26 877.66 154.74 880.45 153.10 C 881.31 153.79
      882.39 154.20 883.48 154.46 Z" fill="#8f1719" opacity="0.80"/>
    <path
      d=" M 891.56 154.93 C 891.89 153.51 892.77 152.85 894.22 152.94 C 893.85 154.28
      892.96 154.95 891.56 154.93 Z" fill="#8f1719" opacity="0.80"/>
    <path
      d=" M 887.74 156.66 C 888.06 156.45 888.72 156.05 889.04 155.84 C 889.16 156.44
      889.38 157.63 889.49 158.22 C 889.05 157.83 888.18 157.05 887.74 156.66 Z" fill="#8f1719" opacity="0.80"/>
    <path
      d=" M 867.14 159.20 C 867.05 157.70 867.73 157.06 869.16 157.26 C 869.14 158.57
      868.47 159.22 867.14 159.20 Z" fill="#8f1719" opacity="0.80"/>
    <path
      d=" M 730.79 159.37 C 734.93 159.01 739.06 158.76 743.23 158.91 C 739.09 159.08
      734.92 159.31 730.79 159.37 Z" fill="#8f1719" opacity="0.80"/>
    <path
      d=" M 745.88 159.07 C 751.31 159.45 756.45 161.20 761.38 163.44 C 756.28 161.73
      751.15 160.13 745.88 159.07 Z" fill="#8f1719" opacity="0.80"/>
    <path
      d=" M 860.91 161.29 C 862.39 159.75 864.43 159.01 866.57 159.23 C 865.20 160.97
      863.04 161.61 860.91 161.29 Z" fill="#8f1719" opacity="0.80"/>
    <path
      d=" M 893.19 159.87 C 894.90 160.36 895.48 162.30 895.11 163.89 C 893.59 163.18
      892.76 161.49 893.19 159.87 Z" fill="#8f1719" opacity="0.80"/>
    <path
      d=" M 846.08 161.71 C 847.13 160.64 849.77 160.26 849.76 162.38 C 848.47 162.52
      847.25 162.30 846.08 161.71 Z" fill="#8f1719" opacity="0.80"/>
    <path
      d=" M 851.72 162.20 C 854.27 161.96 856.83 161.72 859.39 161.46 C 856.85 161.76
      854.20 161.95 851.72 162.20 Z" fill="#8f1719" opacity="0.80"/>
    <path
      d=" M 841.08 165.26 C 841.02 163.92 841.72 163.15 843.18 162.96 C 843.13 164.42
      842.43 165.18 841.08 165.26 Z" fill="#8f1719" opacity="0.80"/>
    <path
      d=" M 836.26 169.53 C 836.46 167.35 837.88 165.07 840.35 165.32 C 839.71 167.31
      837.97 168.52 836.26 169.53 Z" fill="#8f1719" opacity="0.80"/>
    <path
      d=" M 768.74 166.36 C 778.07 169.73 787.64 172.52 797.52 173.74 C 805.67 175.18
      812.15 180.96 819.51 184.31 C 824.84 186.40 830.46 187.62 836.13 188.39 C 836.03
      188.83 835.84 189.71 835.74 190.14 C 829.85 189.12 824.07 187.44 818.53 185.27 C
      810.99 181.58 804.06 176.05 795.53 174.83 C 786.22 173.36 777.15 170.60 768.74
      166.36 Z" fill="#8f1719" opacity="0.80"/>
    <path
      d=" M 887.24 167.50 C 888.85 167.56 890.47 167.62 892.11 167.65 C 888.97 168.74
      886.31 170.79 883.95 173.07 C 885.08 171.23 886.14 169.36 887.24 167.50 Z" fill="#8f1719" opacity="0.80"/>
    <path
      d=" M 834.96 175.88 C 835.20 174.62 835.67 172.11 835.91 170.86 C 836.78 172.45
      837.13 175.16 834.96 175.88 Z" fill="#8f1719" opacity="0.80"/>
    <path
      d=" M 876.80 184.24 C 876.68 182.18 878.17 180.67 879.74 179.57 C 879.65 181.53
      878.92 183.71 876.80 184.24 Z" fill="#8f1719" opacity="0.80"/>
    <path
      d=" M 836.78 180.98 C 837.62 183.01 837.47 185.13 836.32 187.36 C 835.19 185.32
      835.22 182.79 836.78 180.98 Z" fill="#8f1719" opacity="0.80"/>
    <path
      d=" M 863.89 184.97 C 864.58 182.87 867.67 185.45 865.96 186.68 C 865.06 186.35
      864.37 185.78 863.89 184.97 Z" fill="#8f1719" opacity="0.80"/>
    <path
      d=" M 848.98 188.70 C 847.89 186.96 850.79 184.58 852.34 185.88 C 851.60 187.21
      850.33 188.10 848.98 188.70 Z" fill="#8f1719" opacity="0.80"/>
    <path
      d=" M 852.61 185.48 C 856.08 185.29 859.68 185.13 863.20 185.01 C 859.65 185.19
      856.12 185.35 852.61 185.48 Z" fill="#8f1719" opacity="0.80"/>
    <path
      d=" M 874.56 186.98 C 874.54 185.55 875.25 184.90 876.71 185.02 C 876.62 186.38
      875.91 187.04 874.56 186.98 Z" fill="#8f1719" opacity="0.80"/>
    <path
      d=" M 840.60 188.87 C 841.48 188.25 842.42 187.69 843.35 187.09 C 845.38 189.07
      840.19 191.84 840.60 188.87 Z" fill="#8f1719" opacity="0.80"/>
    <path
      d=" M 874.53 190.51 C 874.53 189.66 874.54 188.80 874.56 187.95 C 881.46 191.12
      888.62 194.32 896.27 195.04 C 888.73 195.21 881.71 192.29 874.53 190.51 Z" fill="#8f1719" opacity="0.80"/>
    <path
      d=" M 847.27 189.62 C 850.60 189.67 853.85 189.86 857.20 190.13 C 853.83 190.02
      850.58 190.04 847.27 189.62 Z" fill="#8f1719" opacity="0.80"/>
    <path
      d=" M 901.69 195.12 C 904.55 195.05 907.41 195.09 910.28 195.10 C 907.43 195.16
      904.47 195.11 901.69 195.12 Z" fill="#8f1719" opacity="0.80"/>
    <path
      d=" M 916.97 194.96 C 918.32 194.51 920.41 194.37 920.96 196.08 C 919.50 196.55
      918.00 196.01 916.97 194.96 Z" fill="#8f1719" opacity="0.80"/>
    <path
      d=" M 940.78 197.10 C 948.57 198.35 956.75 198.51 963.97 202.05 C 970.88 205.17
      977.54 208.91 983.55 213.58 C 989.01 217.44 992.72 223.53 999.03 226.20 C 995.19
      225.75 991.55 224.00 989.28 220.76 C 976.69 207.24 958.77 199.89 940.78 197.10
      Z" fill="#8f1719" opacity="0.80"/>
    <path
      d=" M 1016.63 226.03 C 1033.20 223.76 1049.76 226.31 1066.17 228.65 C 1082.84
      229.42 1099.65 228.59 1116.22 231.06 C 1098.04 230.34 1079.75 231.75 1061.67
      229.22 C 1046.80 226.38 1031.72 225.68 1016.63 226.03 Z" fill="#8f1719" opacity="0.80"/>
    <path
      d=" M 1002.78 226.47 C 1005.95 226.47 1009.01 226.36 1012.26 226.28 C 1009.12
      226.46 1005.87 226.46 1002.78 226.47 Z" fill="#8f1719" opacity="0.80"/>
    <path
      d=" M 1122.01 231.81 C 1122.83 229.61 1125.64 230.02 1127.13 231.26 C 1125.85
      231.40 1123.29 231.67 1122.01 231.81 Z" fill="#8f1719" opacity="0.80"/>
  </g>
  <g id="#8f1719ff">
    <path
      d=" M 282.16 70.21 C 287.33 67.05 294.20 67.47 299.10 70.91 C 303.65 74.06 307.72
      77.97 312.85 80.24 C 319.51 83.16 323.44 89.70 327.95 95.07 C 329.03 96.62
      330.09 98.19 331.27 99.67 C 337.44 106.41 342.14 114.95 350.09 119.82 C 359.86
      123.41 370.44 124.38 380.79 124.92 C 397.69 123.66 414.55 121.80 431.33 119.40 C
      431.77 119.37 432.64 119.30 433.08 119.27 C 434.58 119.58 435.51 119.05 435.86
      117.68 C 437.81 117.80 439.77 117.86 441.74 117.80 C 460.51 118.87 478.36 112.06
      496.92 110.84 C 527.59 108.69 558.41 108.20 589.11 109.65 C 605.29 109.75 620.04
      116.72 635.52 120.30 C 651.91 122.67 665.34 133.22 679.94 140.14 C 694.51 147.48
      707.81 160.14 725.17 159.54 C 727.04 159.57 728.91 159.46 730.79 159.37 C 734.92
      159.31 739.09 159.08 743.23 158.91 C 743.89 158.95 745.22 159.03 745.88 159.07 C
      751.15 160.13 756.28 161.73 761.38 163.44 C 763.83 164.39 766.28 165.38 768.74
      166.36 C 777.15 170.60 786.22 173.36 795.53 174.83 C 804.06 176.05 810.99 181.58
      818.53 185.27 C 824.07 187.44 829.85 189.12 835.74 190.14 C 835.84 189.71 836.03
      188.83 836.13 188.39 L 836.32 187.36 C 837.47 185.13 837.62 183.01 836.78 180.98
      C 836.18 179.27 835.58 177.56 834.96 175.88 C 837.13 175.16 836.78 172.45 835.91
      170.86 C 836.00 170.53 836.18 169.86 836.26 169.53 C 837.97 168.52 839.71 167.31
      840.35 165.32 L 841.08 165.26 C 842.43 165.18 843.13 164.42 843.18 162.96 C
      844.14 162.55 845.11 162.13 846.08 161.71 C 847.25 162.30 848.47 162.52 849.76
      162.38 C 850.25 162.33 851.23 162.24 851.72 162.20 C 854.20 161.95 856.85 161.76
      859.39 161.46 C 859.77 161.41 860.53 161.33 860.91 161.29 C 863.04 161.61 865.20
      160.97 866.57 159.23 L 867.14 159.20 C 868.47 159.22 869.14 158.57 869.16 157.26
      C 871.22 157.60 873.28 158.02 875.34 158.43 C 873.80 156.98 872.22 155.57 870.71
      154.10 C 869.83 153.10 868.80 152.92 867.61 153.54 L 867.08 153.00 C 865.41
      151.18 863.72 149.38 861.98 147.64 L 861.37 147.03 C 861.43 146.29 861.57 144.82
      861.63 144.09 C 862.85 143.27 864.05 142.42 865.27 141.59 C 864.96 143.38 867.53
      143.14 867.33 141.49 C 868.14 142.63 868.91 143.81 869.66 145.01 L 869.74 145.66
      C 871.13 144.88 872.54 144.13 873.97 143.40 C 875.27 143.82 876.58 144.24 877.92
      144.60 C 880.41 145.18 882.99 145.25 885.55 145.37 C 885.87 145.66 886.20 145.94
      886.55 146.22 C 887.12 146.32 888.25 146.50 888.82 146.60 C 888.82 147.04 888.81
      147.91 888.80 148.35 C 888.44 149.61 889.71 151.61 891.13 150.68 C 892.75 149.97
      894.34 149.18 895.94 148.40 C 896.16 149.17 896.37 149.94 896.60 150.72 C 895.23
      150.83 894.69 151.55 894.98 152.88 L 894.22 152.94 C 892.77 152.85 891.89 153.51
      891.56 154.93 C 890.71 155.23 889.87 155.53 889.04 155.84 C 888.72 156.05 888.06
      156.45 887.74 156.66 C 888.18 157.05 889.05 157.83 889.49 158.22 C 890.72 158.75
      891.96 159.30 893.19 159.87 C 892.76 161.49 893.59 163.18 895.11 163.89 C 894.99
      165.14 894.88 166.39 894.80 167.64 C 894.13 167.64 892.78 167.65 892.11 167.65 C
      890.47 167.62 888.85 167.56 887.24 167.50 C 886.14 169.36 885.08 171.23 883.95
      173.07 C 882.53 175.23 881.08 177.37 879.74 179.57 C 878.17 180.67 876.68 182.18
      876.80 184.24 L 876.71 185.02 C 875.25 184.90 874.54 185.55 874.56 186.98 L
      874.56 187.95 C 874.54 188.80 874.53 189.66 874.53 190.51 C 881.71 192.29 888.73
      195.21 896.27 195.04 C 898.07 195.14 899.88 195.13 901.69 195.12 C 904.47 195.11
      907.43 195.16 910.28 195.10 C 911.95 195.07 915.30 195.00 916.97 194.96 C 918.00
      196.01 919.50 196.55 920.96 196.08 C 927.56 195.05 934.24 196.06 940.78 197.10 C
      958.77 199.89 976.69 207.24 989.28 220.76 C 991.55 224.00 995.19 225.75 999.03
      226.20 C 1000.26 226.38 1001.51 226.47 1002.78 226.47 C 1005.87 226.46 1009.12
      226.46 1012.26 226.28 C 1013.70 226.21 1015.16 226.11 1016.63 226.03 C 1031.72
      225.68 1046.80 226.38 1061.67 229.22 C 1079.75 231.75 1098.04 230.34 1116.22
      231.06 C 1118.15 231.24 1120.08 231.48 1122.01 231.81 C 1123.29 231.67 1125.85
      231.40 1127.13 231.26 C 1129.62 231.41 1132.14 231.57 1134.70 231.72 C 1143.60
      233.00 1152.51 231.62 1161.12 229.27 C 1180.67 225.36 1199.38 218.30 1218.45
      212.63 C 1228.78 210.46 1239.42 210.14 1249.84 208.47 C 1258.99 206.87 1267.58
      203.12 1275.81 198.91 C 1293.63 190.43 1312.89 184.82 1332.51 182.55 C 1345.25
      181.13 1357.69 177.73 1370.49 176.65 C 1402.44 174.32 1434.51 174.72 1466.51
      175.48 C 1473.77 175.42 1481.40 176.17 1488.33 173.38 C 1500.28 169.44 1512.41
      165.94 1524.00 160.97 C 1533.53 156.73 1543.95 154.97 1553.34 150.36 C 1568.10
      143.48 1584.60 142.71 1600.51 140.73 C 1629.57 136.98 1659.29 141.96 1688.01
      135.00 C 1698.51 133.63 1707.44 127.03 1718.02 125.98 C 1740.95 122.65 1765.11
      122.27 1786.92 131.01 C 1799.00 132.92 1811.34 138.14 1823.66 134.67 C 1841.31
      130.36 1859.67 132.27 1877.60 133.43 C 1897.21 134.23 1912.97 148.55 1932.08
      151.46 C 1932.49 151.33 1933.32 151.08 1933.73 150.95 C 1948.87 143.49 1965.68
      141.14 1982.22 138.82 C 1988.12 138.74 1994.03 138.89 2000.00 138.94 L 2000.00
      450.00 L 0.00 450.00 L 0.00 139.33 C 3.55 139.08 7.10 138.80 10.64 138.42 C
      20.12 132.54 31.03 128.14 38.74 119.86 L 39.24 119.31 C 46.38 112.89 53.84
      105.56 63.61 103.68 C 90.31 102.62 116.89 99.61 143.48 97.08 C 155.92 94.28
      168.69 97.54 181.13 94.65 C 191.03 94.67 199.69 89.85 208.90 87.13 C 218.26
      85.70 227.79 85.99 237.19 84.98 C 239.07 84.76 240.91 84.28 242.72 83.73 C
      255.84 79.15 269.72 76.57 282.16 70.21 M 883.48 154.46 C 885.28 152.78 881.13
      151.11 880.45 153.10 C 877.66 154.74 883.20 157.26 883.48 154.46 M 840.60 188.87
      C 840.19 191.84 845.38 189.07 843.35 187.09 C 844.22 185.62 844.63 183.92 845.20
      182.32 C 843.42 184.32 841.92 186.54 840.60 188.87 M 863.89 184.97 L 863.20
      185.01 C 859.68 185.13 856.08 185.29 852.61 185.48 L 852.34 185.88 C 850.79
      184.58 847.89 186.96 848.98 188.70 C 848.55 188.93 847.70 189.39 847.27 189.62 C
      850.58 190.04 853.83 190.02 857.20 190.13 C 860.19 190.40 862.94 190.76 866.02
      191.05 C 865.99 189.59 865.97 188.13 865.96 186.68 C 867.67 185.45 864.58 182.87
      863.89 184.97 Z" fill="#8f1719" opacity="1.00"/>
  </g>
</svg>
