<svg height="375" viewBox="0 0 3000 300" width="3750" xmlns="http://www.w3.org/2000/svg"><g style="fill:#511"><path d="m1229 0h7.2c2 2.9 3.4 6.2 5.1 9.3.7-1.7 2-5.2 2.6-6.9 1.5 4.7 2 9.7 1.3 14.7.8-.2 1.6-.3 2.5-.5 2-.1 2.7-2.1 2.9-3.8 2.5-2.1 5.2-5.1 8.8-4.7 3 .6 4.2 3.8 5.9 6-1.6-.7-3.2-1.3-4.8-2 .4-1.7-1.9-4.3-3.1-2.2-1.7 2.7-3.4 5.5-4.6 8.4.2 2.9 1.5 5.7 2.3 8.5 1.6.1 3.2.2 4.9.3-.3.6-.8 1.8-1 2.3-.6 1.5-1.2 3-1.9 4.5 1.9 1.9 3.7 3.9 5.5 5.9-2 1.4-4.1 2.9-5.8 4.6.6 2.6 2.1 4.9 3.4 7.2-.4.1-1.1.4-1.5.6-1.6 1.2-3.1 2.4-4.6 3.7 1.7 1.3 3.3 2.7 5.1 3.8 1.8 1.4 4 1.2 6.2.9.4 0 1.1 0 1.4-.1 1.2 0 2.2-.4 3.1-1.3 2.6 1.9 5.6.4 8.2-.8 1.3-.5 2.6-1.4 3.6-2.4.2.2.6.6.8.9.6 1.8 2.5 3.2 4.3 2.1.4-.1 1.1-.4 1.5-.5.1-3.7.2-7.3.2-11-.4-.1-1.3-.4-1.8-.5-1.3-.3-2.4.2-3.1 1.4-3.1-1.1-6.1-2.3-8.8-4 2.3-.3 4.7-.5 7-.6-.8-1.1-1.5-2.3-2.3-3.4-2.5.4-5.1.7-7.6 1.1 3.3-3.5 7.7-6.3 9.6-11 0-.1.1-.3.2-.3.3 1.2 1.1 1.7 2.4 1.6l.7.2c2.1.8 2.2-2 1.3-3.2 0-.6-.1-2-.1-2.6 1.5.8 2.4-1.6 1-2.3-.4-.4-1.1-1.2-1.5-1.6 2.6.5 5.3 1 7.9 1.4-.1 1.4-.1 2.8-.2 4.3 2.6.4 5.6.3 8.1 1.4 1.6 2.5 2 5.6 2.8 8.4-3.3-.1-5.6-.2-8.7-.4 1.3 2.7 2.6 5.3 3.9 8-4.4-.9-10.7-.5-10.2 6 3.4-.8 6.8-1.3 10.3-1.4-.3 1.6-.5 3.2-.7 4.9-2.2.6-.9 3.6.8 1.7 1.3-1 2.6-1.9 3.9-2.9.9 3 1.6 6.1 2.4 9.2-1.6.6-3.1 1.3-4.7 1.9 4.4 1.3 8.9 1.1 13.4 1.3-.1-2.6-.1-5.2-.1-7.7-1.4-.3-2.9-.6-4.3-.9-.1-.6-.3-1.8-.4-2.4.5-.2 1.4-.5 1.9-.7.1-2.3.4-4.6.7-6.9-1.9.6-3.8 1.3-5.7 1.9.3-2.7.7-5.4 1-8.1.9-1.1 1.3-3.5-.7-3.5 2.9-6.6 11.7-3.5 17.3-4.6-.5-1.7-1.1-3.4-1.6-5.1-.2-1.5-1.6-2.3-3-2.1-2.8-.1-6-.3-8.8-.5 2.1-1.4 4.3-2.8 6.6-4.1 1.3.1 2.2-.4 2.5-1.7 1.4.7 2.8 1.6 4.3 2.4-.6-3.3-3-8 1.1-10.1.8 1.7 3.3.9 3.1-.9 1-.1 2-.1 3-.2 2.6 5.4 4.5 11.2 4.5 17.3 3.1-2.8 6.3-6.3 10.8-6.4 2.6.4 4.6 2.4 6.7 3.9-3.3-.3-6.5-.8-9.8-1.2-.9.8-1.7 1.6-2.5 2.4-1.5.6-.6 3 .9 2.3v.7c-1.6.6-2 1.5-1.3 2.7 4.8 1.9 9.8 3.4 14.8 4.9.8-1.3 1.5-2.5 2.3-3.8.1-.6.3-1.8.4-2.4-1.6-6.2-.8-12.6-.7-19 1.4.1 2-.6 2-2 0-.5 0-1.6 0-2.1 1.3.3 2-.2 2.1-1.5 5.7 2.9 11.8 5.5 15.5 11 3.6-.1 7.1-.1 10.8-.2-2.1 6.8-5.7 13-6.6 20.3-1.6.1-2.2.8-1.7 2.3.6 2 1.2 4.1 1.8 6.1.3 1.3 1.1 1.9 2.5 1.8 3.7 9 5.2 18.8 8.8 27.9 1.2 2.6 2.9 6.5 6.4 4.9 1.4-.2 2.8-.4 4.2-.7.6 1.8 1.2 3.7 1.8 5.5 0 .4-.1 1.2-.1 1.6 2.9-4.1 6.5-7.6 9.6-11.6 1.6.8 3.4.2 4.7-.9 3.6-2.3 7.2-4.6 10.6-7.3.6.3 1.3.6 1.9.9-.1 1.4.5 2.2 1.9 2.5 2.5.7 4.7 2.2 6.9 3.7 1.5 1.3 3.3 2.1 5.3 2.5.9.3 1.8.5 2.8.8-.3 1.5 1.2 2.9 2.7 2.3 2.1-.4 4.3-.6 6.5-.4-.1 1.9 2.4 3.4 3.5 1.5.2-.2.5-.6.6-.8 1.7-.6 3.3-1.3 4.8-2.2l.8-.2c.5.5 1.4 1.6 1.8 2.1-.8 3.4-1.8 6.7-2.8 10 2.2 1.4 4.4 2.8 6.7 4-.4 1.5 1.3 2.5 2.5 1.4 4.7-2 9.8-2.5 14.7-3.9 1.4 1.4 3.3 1.9 5.2 2 3.3.4 6.3 1.7 9.2 3.2-.3 2.3 2.4 4.8 4.1 2.4l.4-.5c1-.9 1.5-2.1 1.4-3.5 2.2-1 4.2-2.6 5.8-4.4.7.1 2 .3 2.7.3l.3.8c1 2.8 3.3-1.1 1-2 .7-1.3 1.4-2.6 2.2-4 3.9-.1 7.8-.1 11.7.2 1.3.2 2.1-.3 2.3-1.6 2.9.9 5.9 1.4 9 1.1 1.7.1 3.7 0 4.8-1.6 1.3.3 2.6.7 3.9 1.1.8 1.2 1.9 1.5 3.2 1.1 6.1 2 12.4 3.3 18.6 4.7.6 0 1.9.1 2.5.1 1.2-.2 2.4-.4 3.7-.6.2.6.7 1.7.9 2.2 2 1.7 4.4 3.1 7.2 2.5 2.1 0 1.1-3.1-.5-3.2.2-1.8.4-3.5.6-5.2 1.5.2 3.1.3 4.7.5 1.3.3 2.7.3 3.9-.4.3.4 1 1.2 1.3 1.6 1.4 1.9 3-1.3 1.7-2.5 1.2-1.4 2.3-2.9 3.4-4.4 2.8 2.9 5.2 6.1 7.3 9.5-.9 1.2-.8 2.3.2 3.2.7.6 1.3 1.2 2 1.7.7-.9 1.4-1.9 2.1-2.8.6.2 1.7.7 2.3 1v1c-.2 1.6.4 2.4 1.8 2.4 1.7-.1 3.3-.2 5-.6 0-.6.1-2 .2-2.6 3.3-2.1 6.6-4.2 10.4-5.4.1-.7.2-1.5.4-2.2 1.2.1 2.3-.1 3.3-.8 1-.6 2-1.2 3-1.8-.9-1.5-1.8-2.9-2.7-4.3 1.8-1.3 3.6-2.5 5.5-3.8.3 1.4.7 2.8 1 4.2.1 2 2.5.6 2.5-.8 1.1-.6 2.1-1.2 3.2-1.8 1 .9 3.8-.2 2.1-1.5-.8-.8-1.6-1.5-2.4-2.3-.2-1.4-.9-2.1-2.2-2.1.2-2.5.5-5 .7-7.5 1.9.2 3.9.5 5.9.7-.4-1.5-.7-3-1-4.5 2.5-2.3 3.9-5.4 4.8-8.6 3.1-.6 6.3-1.3 9.3-2.1 1.3.6 3.8.1 3.1-1.9 2-.2 4-.4 6.1-.6.2 1.2.4 2.4.6 3.5 3.1-1.3 6.2-2.6 9.4-3.8-.1 1.4 1.1 2.3 2.4 2.6 2 .8 4.1 1.5 6.3 2 .1.6.3 1.8.4 2.4.2.2.5.7.7 1 .3.1.9.4 1.2.5 1.3.3 2.1-.3 2.5-1.8 1.4-1.5 2.8-2.9 4.2-4.3.2.4.5 1.2.6 1.6l.1.9c-1.5-.5-2.4 2-.7 2.3.3.2.9.5 1.3.7l.7.4c.3-.6 1-1.9 1.3-2.6 1.6-.8 3.2-1.6 5-2.2 2.4-.5 4.9-1 7.4-1.4 5-1.1 6.6 5.3 8.3 8.8-.6.3-1.9 1-2.6 1.4l-.8-.6c-1.4-1.4-3.3.5-2.5 2 .1.6.2 1.9.3 2.6 2.3-.2 4.6-.3 6.9-.4 2 .3 4.9-.5 4.4-3.2 0-1 .1-2 .1-3 1.5-.3 3-.6 4.6-.9 1 1.4 3 1.8 4.6 1.1 1.5 1.5 2.9 3.1 4.4 4.6 1.9-3.1 3.7-6.2 6-9 .8-.8 1.3-1.7 1.6-2.8.4 0 1.3.1 1.8.2 1.4.4 2.3-.1 2.7-1.4 2 .6 4.1 1.2 6.1 1.8-.8 1.6.6 3.5 2.4 3.2 4.9.7 9.3-1.9 14-2.7 3.9-.7 7.9-1.4 11.7-2.9.2 1.3.9 1.7 2.2 1.3-.6 1.3-1.2 2.5-1.9 3.6-1.2 1 0 3.1 1.4 2.1l.6-.2c1.3-.1 2.7-.1 3.9-.9.5 1.8.9 3.8 2.3 5.2 1.5-.2 2.9-.7 4.3-1.1.7 2.6 1.3 5.2 1.9 7.8 1.6-.7 3.2-1.4 4.8-2-.7 1.7 1.6 1.8 2.4.8 3.7-2.9 8.3-2.1 12.6-1.4.2 1.5 1 2.2 2.4 2.2 2.9-.5 5.7-1.3 8.7-1.4 1.3.1 2.1-.5 2.3-1.8.2-1 .4-2.1.7-3.1 1.1.2 2.1-.1 2.9-.9.2.4.6 1.2.8 1.6.4.5 1.3 1.5 1.7 2 1 1 1.9 2 3 2.9 1.1.9 2.3.9 3.5 0 3 2.6 7 4.6 7.8 8.8 0 2.5 3 3.3 4 .8.5.1 1.4.4 1.9.5-1.3 3.6-2.1 7.4-2.5 11.2 1.5-.5 3.1-1 4.6-1.5.3-.2 1.1-.5 1.4-.7 1.4-.8 2.8-1.7 4.2-2.5 1.7-.7 2.6-2.5 2.6-4.3.5-.2 1.1-.4 1.7-.6 1.7 2.4 3.7 4.5 5.8 6.5 0-1.1 0-2.1.1-3.2-2.2-2-2.5-5.5-.4-7.6 2.9-3.7 6.5-6.8 9.4-10.6 2.5.7 5 1.4 7.4 2.4.9 1.1 2.7.7 2.9-.8 2.2-1.1 4.3-2.4 6.4-3.7.2 2.2.4 4.3.7 6.5-.1 2.1 2.5.9 2.5-.6 4.1-2.4 8.3-6.8 13.5-5-1.4.4-2.7.9-4 1.3.7 1.1 1.4 2.2 2.1 3.4-.3.2-.9.5-1.3.7-1.3 1-1.2 1.8.3 2.4 1.5-1 3-2.1 4.6-3.2.5 0 1.6 0 2.1 0-.2 1.3.4 2.1 1.8 2.4 0 .8 0 1.5 0 2.3 2.3.2 4.7.4 7 .6.3 1.7.7 3.4 1.1 5.1-.2 1.5 1.4 3.1 2.7 1.8 0 .2.1.5.2.6-.1 1-.3 2-.5 3 1.2 1.6 2.3 3.3 3.4 5-1.2.7-2 1.9-2.5 3.2-.2.4-.5 1.1-.7 1.5.9.3 1.9.5 2.8.8-.3 1.5.4 3 1 4.4l.1.4c.2 1.4 1.8 2.3 3.2 1.7 1.4 3.8-.6 7.6-1.7 11.3-1.5 2.6 1.7 3.9 3.8 3 .4.4 1.1 1.1 1.5 1.5-1.8.2-5.3.6-7 .8 0 .5.1 1.4.1 1.9 4 1.2 7.9 2.7 11.8 4 .9-5.1 2.3-10.6.5-15.7-.8-3-2.5-7 .6-9.3 5.2-4.4 8.8-10 12.3-15.8 1.3 1 2.9.1 4-.7 8-3.5 13-12.2 22-13.3.3 1.4 1.1 1.8 2.5 1.2 4.4-2 9.2-2.4 13.9-3 1 1.7 2.8 2.7 4.7 3 1.3.4 2.6.8 3.9 1.2.4-1 .8-2 1.3-3 1.2.3 2.4.4 3.7.3v.5c-.8 2.2 1.4 3.8 3.3 2.4 1.1 1.5 2.3 2.9 3.7 4.2 1.2 1.4 3 2.1 4.7 2.9 2.4 5.6 3.1 11.8 4.3 17.7-1.3.5-2.4 2.6-.9 3.5 5.7 5.8 15 3.7 22.3 3.8 2.9-.2 4.2-3.4 4.9-5.8-.2-.6-.7-1.7-1-2.3 1.6-2.1 3.2-4.2 4.9-6.2-.4 2.2-.7 4.3-1.1 6.5 3.8-3.7 8.4-6.9 13.9-7.2-.1-.9-.2-1.9-.2-2.8 3.5.5 7.1 1.1 9.9 3.4-.1 1.5.5 2.4 2 2.7.2 2 .4 4.1.4 6.1 5-.7 10 0 14.5 2.5-.8 1.7 1.5 3.3 2.7 1.8 1-.8 1.9-1.5 2.9-2.3-2-4.6-4.2-9.2-6.3-13.7l-.5-1.1c-.5-1.2-1-2.3-1.5-3.5.8.6 1.5 1.2 2.3 1.8 0 1.5.7 2.3 2.1 2.3h.9c.3 1.4 2.9 2 2.8 0 1.9.5 3.8 1.1 5.8 1.6-2.1-2.1-5.1-3.6-6.5-6.3-.4-3.2.4-6.3.7-9.5-3.4-3.9-6.9-7.8-10.2-11.7 3.1 2.4 6.2 4.9 9.3 7.2-.2-4 .4-8.1-.6-12-1.5-3-3.4-5.8-5.2-8.6 2.5 2.4 4.9 4.7 7.4 7.1 1-1.2 2.1-2.4 3.1-3.5-.6-2.5-.1-4.9-.5-7.4.2-2.5-2.2-4-4.4-3.6-1.7-1.8-3.4-3.4-5.1-5.2 3.2 1.7 6.4 3.4 9.6 5 .3-2.9 1.4-5.7 2-8.6.2 4.7.2 9.4.5 14 1.3-1.5 3.1-2.8 3.8-4.8.1-3.6-1-7.2-1.6-10.8 1.6 2.6 3.3 5.3 5.2 7.8l.5.6c.3-.3.8-.8 1.1-1.1.7-1.3 1.4-2.6 2.1-3.9.3-.3.8-1 1-1.3.3 1.8.5 3.6.8 5.4 3.3-2.4 5.6-5.9 6-10.2l.4-.6c-.1 2.7-.1 5.4-.1 8.1 1.8-.7 3.7-2.7 5.9-1.9 6 1.8 12 3 18.3 4 .2 1.3.4 2.5.7 3.8-1.4.1-2 .8-1.8 2.2 0 1.7.1 3.4.2 5.1 1.2-.7 2.4-1.5 3.7-2.2 1.1 1.1 2.6 1.8 4.1 2.2 2 .6 4.1 1.3 6.2 2 .5 8.3 2.8 16.9.3 25-1.4-.1-2.3.5-2.6 1.8-.6 1.6-1.2 3.3-1.7 4.9 2.1-.5 4.2-1 6.4-1.3h.6c-1.5 1.1-2.9 2.3-4.3 3.6-.1.5-.3 1.4-.4 1.9-.7 0-2.2.1-2.9.1-1.3-.2-3.6.8-2.7 2.3 2 5.3 8.3 2.1 12.3 1.4.4 1.4.9 2.8 1.3 4.3 1.7-.8 3.3-1.5 5-2.3.6.8 1.2 1.5 2 2.2 1.7 2.7 4.3-1 1-1.2l.2-.8c.8-3.5 1.7-7 2.5-10.5 1.6-.1 3-1.6 2.8-3.3.5-.1 1.5-.3 2-.5 1.3-.2 2-1 2.1-2.3l.8-.2c1.6-.1 3.1-1.2 3.2-2.9 1.3 0 2.7.1 4.1.2 1.4-3.9 3.4-7.8 2.8-12 0-2.1-2.9-1.2-3.4.1-1 1.2-2 2.3-3 3.5-2-2-4.4-3.6-6.8-5-1.5-1-3.4-.7-5-.7-.1-.2-.4-.6-.6-.8 1.3-.4 3.8-1.2 5-1.6.1-.3.2-.8.2-1.1 2.8 2.2 6.3 2.9 9.8 2.7 0-5.1-.3-10.3-1.4-15.3-.1-1.4-.9-2-2.2-1.8-.1-.5-.2-1.4-.2-1.9 1 .1 2 .3 3.1.4.1-1.5.2-2.9.4-4.3 2.5 2.9 4.8 5.9 7.2 8.8.6-3.2 1.3-6.4 2.1-9.5.3 1.6.8 4.9 1 6.6 3.1-1.7 6.2-3.4 9.3-4.9 1.6 3.2 3.9 6 6.3 8.8 0 1.5.7 2.3 2.1 2.3 1.1.1 2.1.1 3.3.1-1.2-2.5-2.6-4.9-4-7.3.5.1 1.4.4 1.8.6 1.3.5 2.1 0 2.4-1.4 1-3.6 1.8-7.1 2.5-10.8 1.3 0 2.7 0 4.1.1 1 .1 2-.1 3-.5.3 5.2 2.9 10 6.7 13.5-.5.8-1.1 1.6-1.6 2.4-1.2 1.2-1.2 3.1-.1 4.3-2.6 3-5.4 6.6-3.2 10.7 2.6-2.8 4.8-5.9 6.8-9.1 1.4.2 2.4-.5 2.8-1.9 5.5-2.6 11.5-4.1 17.6-4.8.1.5.2 1.4.3 1.8-2.4.5-4.7 1.1-7 1.6.6-1.6-1.8-2.1-2.3-.8-1.3 1.2-2.5 2.4-3.8 3.6-1-1.4-4.3-.3-2.6 1.3 1.9 2 3.9 3.9 5.3 6.3.5 1.2 1.4 1.8 2.7 1.7 1.7 1 3.4 2.1 5.1 3.1-4.2-.7-8.3-.2-12.5.1-.4-1.4-3.5-1.8-2.6.1.1.2.2.6.3.8.3 1.4 1.5 2.6 3 2.5 1 .2 2 .3 3 .5 0 1.3.6 2.1 1.9 2.4 1.3.4 2.7.9 4.1 1.3-.4 1.7 1.4 2.6 2.9 2.8l.4.3c-.5 1.4-.1 2.3 1.2 2.9l.5.2c2.1 1.4 4.2 2.8 6.4 4.2-.2.6-.4 1.8-.6 2.4.7.1 1.4.1 2.1.2 1.8.4 3.3-.8 4.7-1.7l.6.1c-.1.7-.2 2-.3 2.6-2.7 1.4.7 4 1.4 1.1.3-.5.8-1.4 1-1.9 1.3 2.7 1.9 6.8 5.5 7.5 3 1.2 5.7-1 7.7-3.1 0-.6-.1-1.8-.1-2.4 2-.9 4.5-1.9 6.7-2.9.7 1.6 4.4.8 2.9-1-1.6-1.9-3.7-3.4-5-5.5-.4-3.7.2-7.4.5-11.1 2 .1 3.2-1.7 4-3.4.6-.6 1.3-1.3 1.9-1.9 2 .5 5.1-.5 4.6-3.1-.2-1.8-.5-3.5-.7-5.3-.2-1.4-1-1.9-2.4-1.6-.1-.3-.2-.9-.3-1.2 4.3.5 6.2-2.2 4.9-5.4-.8-3.9-2.2-7.6-3.1-11.4 2.5 1.4 5.1 2.9 7.6 4.2-1.6-4-3.2-8-4.5-12-.4-1.3-1.2-1.7-2.4-1.3-.2-2.1-.3-4.2-.4-6.4 5.1.4 10.3.8 15.3 1.9-.8 1.9-1.5 3.8-2.3 5.8 1.8 1 3.6 2 5.4 3 1-2.6 2.1-5.3 3.2-7.8.2 1.5.3 2.9.5 4.4-1.4.1-2 .8-1.8 2.1.2 1.4.4 2.7.6 4 0 1.6.8 2.3 2.3 2.1.2 1.2.5 2.3.8 3.5 1.4-.7 2.9-1.5 4.4-2.2 1.6-.4 3-1.9 2.7-3.7 1.7-.9 3.3-1.8 4.9-2.8-2.8 3.8-3.8 8.5-4.1 13 5.5-1.1 11-2.8 16.7-3 .9-1.1 1.9-2.2 2.8-3.3 7.7 5.8 13.9 13.7 23 17.3.8 3.2 1.8 6.4 2.6 9.6.2.6.7 1.9.9 2.5 1.4 2.2 2.8 4.5 3.9 6.9.2 1.3 1.9 2.6 3 1.3 2.4-2.5 5.3-4.2 8.7-4.8.6-1.4 1.2-2.9 1.8-4.3 1.6.3 3.5-.7 3.4-2.5.1-.4.2-1.2.2-1.6.6 0 1.8 0 2.4.1 2.2-.7 4.4-1.1 6.7-1.4-.5-1.4-1-2.7-1.5-4.1 3.8-.9 7.4-2.5 10.3-5.1 2.9 5.8 8.3 11 7.4 18 3.5-3.6 5.8-8 7.3-12.8 1.7 1.7 3.5 3.4 5.3 5 0 1.5.6 2.3 2 2.4.2 0 .7.1.9.1 1-2.4 1.8-5.6 4-7.5 1.3.6 2.6 1.5 3.9 2.3-.3 1.4 2 3.1 2.4 1 .2-.5.5-1.6.7-2.1.3-.3 1-.8 1.3-1.1 3.9-1.7 8.2-2.5 11.9-4.6 0 .6-.1 1.9-.1 2.5-.6 1.9 2.1 2.6 2.9 1 .3-.4 1-1.1 1.3-1.4.4-.4 1.1-1.3 1.5-1.7.8 1.7 1.6 3.4 2.4 5.2 2-.9 4-1.8 6-2.7.3.5.9 1.6 1.2 2.1 1 1.9 2 3.8 2.9 5.8 2.1-.4 4.2-.7 6.3-.8.8 1.8 2.4 3.3 4.5 3.2 3.2.2 6.5.4 9.8.5 1.1 1.2 2.7 1.6 4.2 1.1 7.3 2.9 17 1 21.8-5.5 1.6-5.2-.5-10.6-1.6-15.8 5.1 1.5 8.4 5.8 11.9 9.5.6-1.2 1.3-2.4 1.9-3.6.3.4.8 1.1 1.1 1.4-.5 3.6-.8 7.3-1.3 10.9 3.6-1.9 7.3-3.8 11-5.5-2.7 3.6-5.5 7.3-7.8 11.3 3.9-1 7.9-2.1 11.8-3.1-.8 1-1.6 2-2.4 2.9-.2.3-.7 1-.9 1.4-.3-.3-.8-1-1-1.3-.9-2.3-3.9-.2-2 1.4-.9.5-2.8 1.4-3.8 1.9-.5.3-1.5.9-2 1.1 4.1.5 8.4 1.3 12.6 1.7-.2 2.6 3.8 3 2.8.1-.3-1.7-.5-3.4-.7-5.2.7 0 2 .2 2.7.2 4.2 1.7 8.6 2.9 13 3.7-.3.6-.5 1.1-.8 1.7-.9 1.1-1.2 2.3-.7 3.5l.3.7c5-1.6 10-3.4 15-5.3-1.2-2.4-1.8-4.8-2.9-7.2-.4-1.3-1.2-1.7-2.4-1.3 1.1-3.1 2-6.3 2.9-9.5.2-.1.6-.3.8-.4 0 1.2.6 1.9 1.9 2 1.7.5 3.4 1 5.2 1.6.1-.7.1-2.2.2-2.9 0-1.5-.7-2.1-2.2-1.8-.8-2.2-1.7-4.4-2.6-6.5-.4-1.3-1.3-1.8-2.5-1.3-.2-.7-.5-2.1-.7-2.8 2.6.9 5 2.1 7.6 2.7 2.9.4 5.3-1.6 7.5-3.2.9-.6 1.6-1.4 2-2.5 2.6 2.4 4.6 5.3 6.6 8.3 1.7-1.9 3.5-3.8 5.3-5.7 1.5.8 3.1 1.5 4.7 2.3.5.2 1.7.6 2.2.9-.9 2.5-1.6 5.1-1.4 7.7 2.4 1.1 4-1.9 3.9-4 3.1-2.3 6.5-4.2 9.6-6.5 1.7-1.1 0-3.3-1.5-3.5l.2-.3c1.3-.3 2.6-.6 3.9-.8.7 2.4 3.3.6 1.5-1v-.8c.6.1 1.7.3 2.3.4.4 0 1.2.1 1.6.1.2-2.4.2-4.8 1.1-7 2-2.3 6-3.2 8.4-.9.8 1.5.9 3.3 1.4 5 2.9.2 5.1.5 8.1.8-.4 1.9-.8 3.7-1 5.6-5.2.3-10.5 4.6-9.3 10 1.5 2 3.4 3.6 5.3 5.3.9 1 1.8 2.2 2.6 3.4-1.3.3-1.8 1.1-1.4 2.4.5 3.7 1 7.3 1.7 11-1.3-1.1-2.5-2.2-3.8-3.3.5 1.5 1 3 1.6 4.6.2 1.3 1 1.9 2.3 1.7-.1 1.8-.2 3.6-.3 5.5-.4 0-1.3 0-1.8-.1-1.2-1.4-2.4-2.8-3.6-4.1 1.1 9 3 17.9 5 26.7 1.1-.6 2.2-1.2 3.4-1.8.4.2 1.2.6 1.7.9-1.3 1.9-2.6 3.8-3.8 5.8 1.3-.4 2.6-.8 3.9-1.2 1.2-.3 1.8-1.2 1.9-2.6 1.5-2.7 2.7-5.5 3.5-8.5 1.4-.5 1.6-2.6-.1-2.9l.1-.6c1.3 0 2.2-.8 2.5-2.1 1.5-.1 4.4-.4 5.8-.5.4-1.1.8-2.2 1.3-3.3 1-1.1-.4-3.1-1.6-1.9-.2-.6-.4-1.2-.5-1.8 5.4-1.7 5.1-7 4.8-11.4-5.1 1.5-10.3 2.5-15.6 2.6.7-3.1 1.6-6.2 2.6-9.2.8 1.3 2.3 3.8 3 5 .8 1.2 1.7 1.2 2.7.1.6-.7 1.2-1.4 1.9-2-1.5-1.2-3.1-2.3-4.5-3.5.6-.1 1.9-.2 2.6-.3 1.3.4 2.5.8 3.8 1.2.1-.8.3-2.4.3-3.3.2-1.5-.4-2.2-1.8-2.1-2.8.6-6 .7-7.8 3.2-.5-.3-1.6-.8-2.2-1 .8-1.6 1.7-3.1 2.4-4.7 1.8.2 3.2-1.2 3.5-2.9.4-1.4.9-2.8 1.4-4.1 1.3.1 2.2-.5 2.7-1.7.9-1.6 1.8-3.2 2.9-4.8.2-.6.7-1.8 1-2.5.9-2.7 1.7-5.4 2.5-8.2-2.3-.5-4.7-1-7-1.5.2-1.4-.4-2.2-1.8-2.6-1.5-2.1-2.9-4.1-4.3-6.2 1.2 0 2.3 0 3.5.1-1.5-1.6-3.1-3.2-4.6-4.8 2-.8 4.1-1.6 6.2-2.3.6 1.5 1.4 1.8 2.6.9-.7-3.1-2.3-5.8-4-8.4h7.2c2 2.9 3.4 6.2 5.1 9.3.7-1.7 2-5.2 2.6-6.9 1.4 4.7 2 9.7 1.3 14.7.8-.2 1.6-.3 2.5-.5 1.9-.1 2.7-2.1 2.9-3.8 2.6-2.1 5.2-5.1 8.8-4.7 3 .6 4.2 3.8 5.8 6-1.6-.7-3.2-1.3-4.8-2 .4-1.7-1.9-4.3-3.1-2.2-1.7 2.7-3.4 5.5-4.6 8.4.2 2.9 1.5 5.7 2.3 8.5 1.6.1 3.2.2 4.9.3-.3.6-.8 1.8-1 2.3-.6 1.5-1.3 3-1.9 4.5 1.9 1.9 3.7 3.9 5.5 5.9-2 1.4-4.1 2.9-5.8 4.6.6 2.6 2.1 4.9 3.4 7.2-.4.1-1.1.4-1.5.6-1.6 1.2-3.1 2.4-4.6 3.7 1.7 1.3 3.3 2.7 5.2 3.8 1.8 1.4 4 1.2 6.2.9.4 0 1.1 0 1.4-.1 1.2 0 2.2-.4 3.1-1.3 2.6 1.9 5.6.4 8.2-.8 1.3-.5 2.5-1.4 3.6-2.4.2.2.6.6.8.9.5 1.8 2.4 3.2 4.3 2.1.4-.1 1.1-.4 1.4-.5.1-3.7.2-7.3.2-11-.4-.1-1.3-.4-1.8-.5-1.4-.3-2.4.2-3.2 1.4-3.1-1.1-6.1-2.3-8.8-4 2.3-.3 4.7-.5 7-.6-.8-1.1-1.6-2.3-2.3-3.4-2.6.4-5.1.7-7.6 1.1 3.3-3.5 7.7-6.3 9.6-11 .1-.1.1-.3.2-.3.3 1.2 1.1 1.7 2.4 1.6l.7.2c2.1.8 2.2-2 1.3-3.2 0-.6-.1-2-.1-2.6 1.5.8 2.4-1.6 1-2.3-.4-.4-1.1-1.2-1.5-1.6 2.6.5 5.3 1 7.9 1.4-.1 1.4-.1 2.8-.2 4.3 2.5.4 5.6.3 8.1 1.4 1.6 2.5 2 5.6 2.8 8.4-3.7-.1-5.5-.2-8.7-.4 1.3 2.7 2.5 5.3 3.9 8-4.4-.9-10.7-.5-10.2 6 3.4-.8 6.8-1.3 10.3-1.4-.3 1.6-.5 3.2-.7 4.9-2.2.6-.9 3.6.8 1.7 1.3-1 2.6-1.9 3.9-2.9.8 3 1.6 6.1 2.4 9.2-1.6.6-3.2 1.3-4.7 1.9 4.4 1.3 8.9 1.1 13.4 1.3-.1-2.6-.2-5.2-.1-7.7-1.5-.3-2.9-.6-4.3-.9-.1-.6-.3-1.8-.4-2.4.5-.2 1.4-.5 1.9-.7.1-2.3.3-4.6.7-6.9-1.9.6-3.8 1.3-5.7 1.9.3-2.7.7-5.4 1-8.1.8-1.1 1.3-3.5-.7-3.5 2.9-6.6 11.6-3.5 17.3-4.6-.6-1.7-1.1-3.4-1.6-5.1-.2-1.5-1.7-2.3-3-2.1-2.8-.1-6.3-.3-8.8-.5 2.1-1.4 4.3-2.8 6.6-4.1 1.3.1 2.2-.4 2.5-1.7 1.4.7 2.8 1.6 4.3 2.4-.6-3.3-3-8 1.1-10.1.8 1.7 3.3.9 3.1-.9 1-.1 2-.1 3-.2 2.6 5.4 4.5 11.2 4.5 17.3 3.1-2.8 6.3-6.3 10.8-6.4 2.6.4 4.6 2.4 6.7 3.9-3.3-.3-6.5-.8-9.8-1.2-.9.8-1.7 1.6-2.5 2.4-1.5.6-.7 3 .9 2.3v.7c-1.6.6-2 1.5-1.3 2.7 4.8 1.9 9.8 3.4 14.8 4.9.7-1.3 1.5-2.5 2.3-3.8.1-.6.3-1.8.4-2.4-1.6-6.2-.8-12.6-.7-19 1.4.1 2-.6 2-2 0-.5 0-1.6 0-2.1 1.2.3 1.9-.2 2.1-1.5 5.7 2.9 11.8 5.5 15.5 11 3.6-.1 7.1-.1 10.8-.2-2.1 6.8-5.8 13-6.6 20.3-1.6.1-2.2.8-1.7 2.3.6 2 1.2 4.1 1.8 6.1.3 1.3 1.1 1.9 2.5 1.8 3.7 9 5.2 18.8 8.8 27.9 1.2 2.6 2.9 6.5 6.4 4.9 1.3-.2 2.7-.4 4.2-.7.6 1.8 1.2 3.7 1.8 5.5 0 .4-.1 1.2-.1 1.6 2.9-4.1 6.5-7.6 9.6-11.6 1.6.8 3.4.2 4.7-.9 3.6-2.3 7.2-4.6 10.6-7.3.6.3 1.2.6 1.9.9-.1 1.4.5 2.2 1.9 2.5 2.5.7 4.7 2.2 6.8 3.7 1.5 1.3 3.3 2.1 5.3 2.5.9.3 1.8.5 2.8.8-.4 1.5 1.2 2.9 2.7 2.3 2.1-.4 4.3-.6 6.5-.4-.1 1.9 2.4 3.4 3.5 1.5.2-.2.5-.6.6-.8 1.6-.6 3.3-1.3 4.8-2.2l.8-.2c.5.5 1.4 1.6 1.8 2.1-.8 3.4-1.8 6.7-2.8 10 2.2 1.4 4.4 2.8 6.7 4-.4 1.5 1.3 2.5 2.5 1.4 4.7-2 9.8-2.6 14.7-3.9 1.4 1.4 3.3 2 5.2 2 3.1.3 6.4 1 8.7 3.3.8 1.5 1.6 3 2.4 4.6.9-.1 1.8-.1 2.8-.2 4.9-1.4 5.8 4.5 7.5 7.7 1.2 3.4 4.7 4.9 7.6 6.5v185h-3000v-188c.5.3 1.4.9 1.8 1.2 1.4 0 4-.2 5.4-.2h.9c1.5.2 2.4-.4 2.7-1.8 3.8-.2 7.7-.3 11.5-.6.3 1.4 1.1 2 2.5 1.6 1.4-.4 2.8-.8 4.2-1.2 2.1-.6 0-3.1-1.5-2.6-.2-1.5-.4-3-.6-4.5 2.7-1.6 5.5-3.2 7.9-5.3l.5-.4c1-.8 1.3-1.8 1-3.1 2.2-1.1 4.2-2.7 5.9-4.5.7.1 2 .3 2.7.4l.3.7c1 2.8 3.3-1.1 1-2 .7-1.3 1.5-2.6 2.2-4 3.9-.1 7.8-.1 11.6.2 1.4.2 2.1-.3 2.3-1.6 2.9.9 5.9 1.4 9 1.1 1.7.1 3.7 0 4.8-1.6 1.3.3 2.6.7 3.9 1.1.8 1.2 1.9 1.5 3.2 1.1 6.1 2.1 12.3 3.5 18.6 4.7.6 0 1.9.1 2.5.1 1.2-.2 2.4-.4 3.7-.6.2.6.7 1.7.9 2.2 2 1.7 4.4 3.1 7.2 2.5 2.1 0 1.1-3.1-.5-3.2.2-1.8.4-3.5.6-5.2 1.5.2 3.1.3 4.7.5 1.3.3 2.7.3 3.9-.4.3.4 1 1.2 1.3 1.6 1.4 1.9 3-1.3 1.7-2.5 1.2-1.4 2.3-2.9 3.4-4.4 2.8 2.9 5.2 6.1 7.3 9.5-.9 1.2-.8 2.3.2 3.2.7.6 1.3 1.2 2 1.7.7-.9 1.4-1.9 2.1-2.8.6.2 1.7.7 2.3 1v1c-.2 1.6.4 2.4 1.8 2.4 1.7-.1 3.3-.2 5-.6 0-.6.1-2 .2-2.6 3.3-2.1 6.7-4.2 10.4-5.4.1-.7.3-1.5.4-2.2 1.2.1 2.3-.1 3.3-.8 1-.6 2-1.2 3-1.8-.9-1.5-1.8-2.9-2.7-4.3 1.8-1.3 3.6-2.5 5.5-3.8.3 1.4.7 2.8 1 4.2.2 2 2.6.6 2.5-.8 1.1-.6 2.2-1.2 3.2-1.8 1.1.9 3.8-.2 2.1-1.5-.8-.8-1.6-1.5-2.4-2.3-.2-1.4-.9-2.1-2.2-2.1.2-2.5.5-5 .7-7.5 2 .2 4 .5 5.9.7-.3-1.5-.7-3-1-4.5 2.5-2.3 3.9-5.4 4.8-8.6 3.1-.6 6.2-1.3 9.3-2.1 1.3.6 3.9.1 3.1-1.9 2-.3 4.1-.4 6.1-.6.2 1.2.3 2.4.5 3.6 3.1-1.6 6.1-3.3 9.4-4.1-.1 1.4 1.1 2.4 2.3 2.8 2 .8 4.2 1.6 6.3 2.1.1.6.3 1.8.4 2.4.2.2.5.7.7.9.3.1.9.4 1.2.5 1.3.3 2.1-.3 2.5-1.8 1.4-1.5 2.8-2.9 4.2-4.3.2.4.5 1.2.6 1.6l.1.9c-1.5-.5-2.4 2-.7 2.3.3.2.9.5 1.3.7l.7.4c.3-.6 1-1.9 1.3-2.6 1.6-.8 3.3-1.6 5-2.2 2.5-.5 4.9-1 7.4-1.4 5-1.1 6.6 5.3 8.3 8.8-.6.3-1.9 1-2.6 1.4l-.8-.6c-1.3-1.4-3.3.5-2.5 2 .1.6.2 1.9.3 2.6 2.3-.2 4.6-.3 6.9-.4 2.1.3 4.9-.5 4.4-3.2 0-1 .1-2 .1-3 1.5-.3 3-.6 4.6-.9 1 1.4 3 1.8 4.6 1.1 1.5 1.5 2.9 3.1 4.4 4.6 1.9-3.1 3.7-6.2 6-9 .8-.8 1.4-1.7 1.6-2.8.4 0 1.3.1 1.8.2 1.4.4 2.3-.1 2.7-1.4 2 .6 4.1 1.2 6.1 1.8-.8 1.6.6 3.5 2.4 3.2 2.7.3 5.4-.1 7.9-1 5.8-2 12-2.3 17.8-4.5.2 1.3.9 1.7 2.2 1.3-.6 1.3-1.2 2.5-1.9 3.6-1.2 1 0 3.1 1.4 2.1l.6-.2c1.3-.1 2.8-.1 3.9-.9.5 1.8.9 3.8 2.3 5.2 1.5-.2 2.9-.7 4.3-1.1.7 2.6 1.3 5.2 1.9 7.8 1.6-.7 3.2-1.4 4.8-2-.6 1.7 1.6 1.8 2.4.8 3.7-2.9 8.3-2.1 12.6-1.4.2 1.5 1 2.2 2.4 2.2 2.9-.5 5.7-1.3 8.7-1.4 1.3.1 2.1-.5 2.3-1.8.2-1 .4-2.1.7-3.1 1.1.2 2.1-.1 2.9-.9.2.4.6 1.2.8 1.6.4.5 1.3 1.5 1.7 2 1 1 1.9 2 3 2.9 1.1.9 2.3.9 3.5 0 3 2.6 7 4.6 7.8 8.8.1 2.5 3 3.3 4 .8.5.1 1.4.4 1.9.5-1.4 3.6-2.1 7.4-2.5 11.2 1.5-.5 3.1-1 4.6-1.5.4-.2 1.1-.5 1.4-.7 1.4-.8 2.8-1.7 4.2-2.5 1.7-.7 2.6-2.5 2.6-4.3.6-.2 1.1-.4 1.7-.6 1.7 2.4 3.7 4.5 5.8 6.5 0-1.1.1-2.1.1-3.2-1.7-1.6-2.5-4.1-1.3-6.3 2.9-4.5 7.1-7.7 10.3-11.9 2.5.7 5 1.4 7.4 2.4 1 1.1 2.8.7 2.9-.8 2.2-1.1 4.3-2.4 6.4-3.7.2 2.2.5 4.3.7 6.5-.1 2.1 2.5.9 2.5-.6 4.1-2.4 8.3-6.8 13.5-5-1.3.4-2.7.9-4 1.3.7 1.1 1.4 2.2 2.1 3.4-.3.2-.9.5-1.3.7-1.2 1-1.1 1.8.3 2.4 1.6-1 3.1-2.1 4.6-3.2.5 0 1.6 0 2.1 0-.2 1.3.4 2.1 1.8 2.4 0 .8 0 1.5 0 2.3 2.4.2 4.7.4 7 .6.4 1.7.7 3.4 1.1 5.1-.1 1.5 1.4 3.1 2.7 1.8 0 .2.1.5.2.6-.1 1-.3 2-.5 3 1.2 1.6 2.4 3.3 3.4 5-1.2.7-2 1.9-2.5 3.2-.2.4-.6 1.1-.7 1.5.9.3 1.9.5 2.8.8-.2 1.5.4 3 1 4.4l.1.4c.2 1.4 1.8 2.3 3.2 1.8 1.2 3.8-.6 7.6-1.7 11.2-1.4 2.6 1.8 3.9 3.9 3.1.4.4 1.1 1.2 1.5 1.5-1.7.2-5.2.6-7 .8 0 .5.1 1.4.1 1.8 4 1.1 7.9 2.7 11.8 4 .8-3.7 1.4-7.5 1.4-11.3-.2-3.9-2.5-7.6-2-11.5 1.7-2.6 4.2-4.4 6.3-6.7 3.2-3.3 5.1-7.6 7.7-11.3 1.3 1 2.9.1 4-.7 4.4-2.5 8.7-5.3 12.4-9 2.5-2.8 6.4-3.2 9.8-4.4.3 1.4 1.1 1.8 2.5 1.2 4.4-2 9.2-2.4 13.9-3 1 1.7 2.8 2.7 4.7 3 1.3.4 2.6.8 3.9 1.2.4-1 .9-2 1.3-3 1.2.3 2.4.4 3.6.3v.5c-.8 2.2 1.4 3.8 3.3 2.4 1.1 1.5 2.3 2.9 3.7 4.2 1.3 1.4 3.1 2.1 4.8 2.9 2.8 5.5 3.1 11.7 4.4 17.7-1.4.5-2.2 2.5-.9 3.5 1.2 1.3 2.4 2.7 3.6 4 6.7-.1 13.4.1 20-.6 1.9-1.2 2.8-3.3 3.4-5.4-.2-.6-.7-1.7-1-2.3 1.6-2.1 3.2-4.2 4.9-6.2-.4 2.2-.7 4.3-1.1 6.5 3.8-3.7 8.4-6.9 13.9-7.2-.1-.9-.2-1.9-.2-2.8 3.5.5 7.1 1.1 9.9 3.4-.1 1.5.6 2.4 2 2.7.2 2 .3 4.1.4 6.1 5-2 9.9.6 14.5 2.5-.7 1.7 1.5 3.3 2.8 1.8.9-.7 1.9-1.5 2.9-2.2-2-4.6-4.1-9.2-6.2-13.8l-.5-1.1c-.5-1.2-1-2.3-1.5-3.5.8.6 1.5 1.2 2.3 1.8 0 1.5.7 2.3 2.1 2.3h.9c.4 1.4 2.9 2 2.8 0 2 .6 3.9 1.1 5.9 1.5-2.1-1.9-4.4-3.6-6.7-5.2.3-3.7.6-7.3.8-11-3.5-3.8-6.8-7.6-10-11.5 3.1 2.4 6.2 4.8 9.3 7.2 0-3 0-6-.1-8.9.1-4.6-3.5-7.9-5.6-11.7 2.3 2.3 4.6 4.7 6.9 7 1.2-1.1 2.4-2.1 3.7-3.2-.2-2.5-.5-5.1-.7-7.6.3-2.5-2.1-4.1-4.4-3.6-1.6-1.8-3.4-3.4-5.1-5.1 3.3 1.7 6.6 3.4 9.9 5 .6-2.9 1.2-5.7 1.9-8.6.1 4.7.2 9.3.4 14 1.4-1.5 3.2-2.8 3.8-4.8.2-3.6-1-7.2-1.6-10.8 1.7 2.6 3.4 5.3 5.2 7.8l.5.6c.3-.3.8-.8 1.1-1.1.7-1.3 1.4-2.6 2.1-3.9.3-.3.8-1 1-1.3.3 1.8.5 3.6.8 5.4 3.4-2.5 5.4-6.1 6.1-10.3l.3-.6c.1 3 .1 5.9.1 8.9 1.4-1 2.7-2.2 4-3.3 6.2 3 13.2 3.4 19.9 4.8.2 1.3.4 2.5.7 3.8-1.3.1-1.9.8-1.8 2.2 0 1.7.1 3.4.2 5.1 1.2-.7 2.4-1.5 3.6-2.2 1.2 1.1 2.7 1.6 4.2 2 2.4 1 5.8 1.5 6.6 4.4 1.7 7.5 1.5 15.4-.3 22.9-1.3-.3-2.2.2-2.5 1.5-.6 1.7-1.2 3.4-1.8 5 2.1-.5 4.3-1 6.4-1.3h.6c-1.5 1.1-2.9 2.3-4.3 3.6-.1.5-.3 1.4-.4 1.9-.7 0-2.1.1-2.9.1-1.2-.2-3.5.8-2.7 2.3 2 5.3 8.3 2.1 12.3 1.4.4 1.4.9 2.8 1.3 4.3 1.7-.8 3.4-1.5 5-2.3.6.8 1.3 1.5 2 2.2 1.7 2.7 4.3-1 1-1.2l.2-.8c.8-3.5 1.7-7 2.5-10.5 1.7-.1 3-1.6 2.9-3.3.5-.1 1.5-.3 2-.5 1.3-.2 2-1 2.1-2.3l.8-.2c1.6-.1 3.1-1.2 3.2-2.9 1.3 0 2.7.1 4 .2 1.4-3.9 3.4-7.8 2.8-12 0-2.1-2.9-1.2-3.4.1-1 1.1-2 2.3-3 3.4-2.1-2-4.4-3.6-6.9-5-1.5-1-3.3-.7-5-.7-.1-.2-.4-.6-.6-.8 1.3-.4 3.8-1.2 5-1.6.1-.4.3-1.2.4-1.6 1.3 1.1 2.7 2.3 4 3.5 1.9-.4 3.8-.7 5.7-1-.2-4.9-.9-9.8-1.6-14.6-.1-1.4-.8-2-2.2-1.8 0-.5-.2-1.4-.2-1.9 1 .1 2 .3 3.1.4.1-1.4.3-2.9.4-4.3 2.5 2.8 4.8 5.8 7.2 8.8.6-3.2 1.4-6.3 2.2-9.4.2 1.6.7 4.9 1 6.5 3-1.7 6.1-3.4 9.3-5 1.6 3.2 3.9 6.1 6.3 8.8 0 1.5.7 2.3 2.1 2.3 1.1.1 2.2.1 3.3.1-1.2-2.5-2.6-4.9-4-7.3.5.1 1.4.4 1.8.6 1.3.5 2.1 0 2.4-1.4 1-3.6 1.9-7.1 2.5-10.8 1.4 0 2.7 0 4.1.1 1 .1 2-.1 3-.5.3 5.2 2.9 10 6.7 13.5-.5.8-1.1 1.6-1.6 2.4-1.1 1.2-1.2 3.1-.1 4.3-2.6 3-5.4 6.6-3.2 10.7 2.6-2.8 4.8-5.9 6.8-9.1 1.5.2 2.4-.5 2.8-1.9 5.5-2.6 11.5-4.1 17.6-4.8.1.5.2 1.4.3 1.8-2.4.5-4.7 1.1-7 1.6.6-1.6-1.7-2.1-2.3-.8-1.3 1.2-2.5 2.4-3.8 3.6-1-1.4-4.3-.3-2.6 1.3 1.9 2 3.9 3.9 5.3 6.3.5 1.2 1.4 1.8 2.7 1.7 1.7 1 3.4 2.1 5.1 3.1-4.2-.7-8.3-.2-12.5.1-.4-1.4-3.5-1.8-2.6.1.1.2.2.6.3.8.3 1.4 1.5 2.6 3 2.5 1 .2 2 .3 3 .5 0 1.3.7 2.1 1.9 2.4 1.4.4 2.7.9 4.1 1.3-.4 1.7 1.4 2.6 2.9 2.8l.5.3c-.5 1.4-.1 2.3 1.2 2.8l.5.2c2.1 1.5 4.1 3 6.2 4.4.1.6.2 1.7.2 2.3.5 0 1 .1 1.5.1 1.8.4 3.3-.8 4.7-1.7l.6.1c-.1.7-.2 2-.3 2.6-2.6 1.4.7 4 1.4 1.1.3-.5.8-1.4 1-1.9 1.4 2.7 1.9 6.8 5.5 7.5 3 1.2 5.8-1 7.7-3.1 0-.6-.1-1.8-.1-2.4 2.2-.9 4.5-1.9 6.6-2.9.8 1.6 4.4.8 2.9-1-1.6-1.9-3.6-3.4-4.9-5.5-.7-3.7.2-7.5.4-11.2 2.1.1 3.2-1.7 4-3.4.6-.6 1.3-1.3 1.9-1.9 2 .5 5.1-.5 4.6-3.1-.2-1.8-.4-3.5-.7-5.3-.2-1.4-1-1.9-2.4-1.6-.1-.4-.3-1.1-.4-1.4 1.3-.5 3.9-1.3 5.3-1.8-.2-5.1-2.5-9.8-3.4-14.8 2.5 1.4 5.1 2.9 7.6 4.2-1.6-4-3.2-8-4.5-12-.4-1.3-1.2-1.7-2.4-1.3-.2-2.1-.3-4.2-.4-6.4 5.1.4 10.3.8 15.3 1.9-.8 1.9-1.5 3.8-2.3 5.8 1.8 1 3.6 2 5.4 3 1-2.6 2.1-5.3 3.2-7.8.2 1.5.4 2.9.5 4.4-1.4.1-2 .8-1.8 2.1.2 1.4.4 2.7.6 4 .1 1.6.8 2.3 2.3 2.1.2 1.2.5 2.3.8 3.5 1.5-.7 2.9-1.5 4.4-2.2 1.6-.4 3-1.9 2.7-3.7 1.7-.9 3.3-1.8 4.9-2.8-2.8 3.8-3.8 8.5-4.1 13 5.5-1.1 11-2.8 16.7-3 .9-1.1 1.9-2.2 2.8-3.3 7.7 5.8 13.9 13.7 23 17.3.8 3.2 1.8 6.4 2.6 9.6.2.6.7 1.9.9 2.5 1.5 2.2 2.8 4.5 3.9 6.9.3 1.3 1.9 2.6 3 1.3 2.4-2.5 5.3-4.2 8.7-4.8.6-1.4 1.2-2.9 1.9-4.3 1.6.3 3.5-.7 3.4-2.5.1-.4.2-1.2.2-1.6.6 0 1.8 0 2.4.1 2.2-.7 4.4-1.1 6.6-1.4-.5-1.4-1-2.7-1.5-4.1 3.8-.9 7.4-2.5 10.3-5.1 2.9 5.8 8.3 11 7.4 18 3.5-3.6 5.8-8 7.3-12.8 1.8 1.7 3.5 3.4 5.3 5 0 1.5.6 2.3 2 2.4.3 0 1 .1 1.3.1.9-2.7 1.9-5.4 3.2-7.9 1.6.6 3 1.8 4.1 3.2.3 1.3 2.5 2 2.6.2.1-.5.4-1.4.5-1.9.4-.3 1.1-.8 1.4-1 3.9-1.7 8.2-2.5 12-4.6 0 .6 0 1.9-.1 2.5-.6 1.9 2.1 2.6 2.9 1 .3-.4 1-1.1 1.4-1.4.4-.4 1.1-1.3 1.5-1.7.8 1.7 1.6 3.4 2.4 5.2 2-.9 4-1.8 6-2.7.3.5.9 1.6 1.2 2.1 1 1.9 2 3.8 2.9 5.8 2.1-.4 4.2-.7 6.3-.8.8 1.8 2.4 3.3 4.5 3.2 3.2.2 6.5.4 9.8.5 1.1 1.2 2.7 1.6 4.2 1.1 6.8 2.8 14.6 1.1 20-3.4 5.4-4.6.5-12 .1-17.8 5.1 1.6 8.4 5.8 11.9 9.5.6-1.2 1.3-2.4 1.9-3.6.3.4.8 1.1 1.1 1.4-.5 3.6-.9 7.3-1.3 10.9 3.6-1.9 7.3-3.8 11.1-5.5-2.7 3.6-5.5 7.3-7.8 11.2 4-1 7.9-2.1 11.8-3.1-.8 1-1.6 2-2.4 2.9-.2.3-.7 1-.9 1.4-.3-.3-.7-1-1-1.3-.9-2.3-3.9-.2-2 1.4-.9.5-2.8 1.5-3.7 2-.5.3-1.4.8-1.9 1.1 4.1.6 8.3 1.3 12.4 1.7-.1 2.6 3.8 2.8 2.8 0-.3-1.7-.5-3.4-.6-5.2.7 0 2 .2 2.7.2 4.2 1.7 8.6 2.9 13 3.7-.3.6-.5 1.1-.8 1.7-.9 1.1-1.1 2.3-.7 3.5l.3.7c4.9-1.5 9.8-3.3 14.7-5.1-1-2.4-1.8-4.8-2.7-7.2-.3-1.3-1.1-1.7-2.3-1.3 1.1-3.1 2-6.3 2.9-9.5.2-.1.6-.3.8-.4 0 1.2.7 1.9 2 2 1.7.5 3.5 1 5.2 1.6 0-.7.1-2.2.2-2.9 0-1.5-.7-2.1-2.2-1.8-.8-2.2-1.7-4.4-2.6-6.5-.4-1.3-1.3-1.8-2.5-1.3-.2-.7-.5-2.1-.6-2.8 2.5.9 5 2.1 7.6 2.7 2.9.4 5.3-1.6 7.5-3.2 1-.6 1.6-1.4 2-2.5 2.6 2.4 4.6 5.3 6.6 8.3 1.8-1.9 3.5-3.8 5.3-5.7 1.5.8 3.1 1.5 4.7 2.3.5.2 1.6.6 2.2.9-.9 2.5-1.6 5.1-1.4 7.7 2.6 1.4 3.8-2.1 4-4.1 2.6-2.9 6.2-4.4 9.5-6.5 1.9-1 .1-3.3-1.4-3.4l.2-.3c1.3-.3 2.6-.6 3.9-.8.7 2.4 3.3.6 1.5-1v-.8c.6.1 1.7.3 2.3.4.4 0 1.2.1 1.6.1.2-3.4-.1-8.5 4.4-9 4-1.5 6.5 2.5 6.4 6.1 2.8.2 5.2.5 8 .8-.4 1.9-.7 3.7-1 5.6-5.1.3-10.4 4.6-9.3 10 1.5 2 3.4 3.6 5.3 5.3 1 1 1.8 2.2 2.6 3.4-1.3.3-1.8 1-1.5 2.3.4 3.7 1 7.3 1.7 11-1.3-1.1-2.5-2.1-3.7-3.2.5 1.5 1.1 3 1.6 4.6.2 1.3 1 1.9 2.2 1.8-.1 2-.3 4.1-.5 6.1-1.8-1.6-3.5-3.2-5.3-4.8 1.5 8.9 3.2 17.8 5 26.7 1.1-.6 2.3-1.2 3.4-1.8.4.2 1.2.6 1.6.9-1.3 1.9-2.6 3.8-3.8 5.8 1.3-.4 2.6-.8 3.9-1.2 1.2-.3 1.9-1.2 1.9-2.6 1.5-2.7 2.7-5.5 3.5-8.5 1.5-.5 1.6-2.6-.1-2.9l.1-.6c1.4-.1 2.2-.8 2.4-2.1 1.4-.2 4.3-.5 5.7-.6.5-1.1.9-2.1 1.4-3.1 1.1-1.1-.3-3.1-1.6-1.9-.2-.6-.3-1.2-.5-1.9 5.4-1.7 5.1-7 4.8-11.4-5.1 1.5-10.3 2.5-15.6 2.6.8-3.1 1.6-6.2 2.6-9.2.8 1.3 2.3 3.8 3 5 .8 1.2 1.7 1.2 2.7.1.6-.7 1.2-1.4 1.9-2-1.5-1.2-3.1-2.3-4.5-3.5.6-.1 1.9-.2 2.6-.3 1.3.4 2.5.8 3.8 1.2.1-.8.3-2.4.4-3.2.2-1.4-.4-2.1-1.8-2-2 .2-4.8.4-6.5.6-.3.6-.9 1.9-1.2 2.6-.5-.3-1.6-.8-2.1-1.1.8-1.6 1.6-3.2 2.3-4.8 1.8.2 3.2-1.2 3.5-2.9.4-1.4.9-2.8 1.4-4.1 1.3.1 2.2-.5 2.7-1.7.9-1.6 1.8-3.2 2.9-4.8.2-.6.7-1.8 1-2.5.9-2.7 1.7-5.4 2.5-8.2-2.3-.5-4.7-1-7-1.5.3-1.4-.4-2.2-1.8-2.6-1.5-2.1-2.9-4.1-4.3-6.2 1.2 0 2.3 0 3.5.1-1.5-1.6-3.1-3.2-4.6-4.8 2-.8 4.1-1.6 6.2-2.3.6 1.5 1.5 1.8 2.6.9-.7-3.1-2.3-5.8-4-8.4m-365 14.3c-1.2 1.2.7 3.4 2 2.3 1.2-1.2-.8-3.4-2-2.3m1475 0c-1.2 1.2.7 3.4 2 2.3 1.2-1.2-.8-3.4-2-2.3m-1047 18.3c-1.3 1.3 1 3.3 2.1 1.9 1.3-1.3-1-3.2-2.1-1.9m1475 0c-1.3 1.3.9 3.3 2.1 1.9 1.3-1.3-1-3.2-2.1-1.9m-1868 2.5c-1.5 1.6 2.2 2.9 2.1.7 1.4-1.6-2.2-2.9-2.1-.7m1475 0c-1.5 1.6 2.2 2.9 2.1.7 1.4-1.6-2.3-2.9-2.1-.7m-1060 2.9c-1.9-.1-2.4.6-1.5 2.3-.4.4-1.1 1.1-1.5 1.4 2.4-.4 4.8-1 7.2-1.7-.5-1.6-1-3.1-1.5-4.7-1 .9-1.9 1.7-2.7 2.7m1475 0c-1.9-.1-2.4.6-1.5 2.3-.4.4-1.1 1.1-1.5 1.4 2.4-.4 4.8-1 7.2-1.7-.5-1.6-1-3.1-1.5-4.7-1 .9-1.9 1.7-2.7 2.7m-1927 2.1c1.4 3.6 4.7-2.4 1-1.9-1.3-1.5-3 1.7-1 1.9m1475 0c1.4 3.6 4.7-2.4 1-1.9-1.4-1.5-3.1 1.7-1 1.9m-1577 4.6c-.2 2.6-.4 5.3-.5 7.9-.4.2-1.3.7-1.7.9-1.1 1.1-2.1 2.3-3 3.5.4.4 1.2 1.3 1.6 1.8-1.9 4-.6 8.7 2.2 11.9-1.9.6.4 3.6 1.3 1.8.7-2 3.2-4.1 1.7-6.3-1-2-2.3-4-3.5-5.9 1-.5 2-1 3.1-1.4 2-.8-.7-3.7-1.9-2.1l-.5-.9c.4-.1 1.1-.3 1.4-.4 2-2.1 4.1-4.2 6.3-6.1-.8-2.7-1.6-5.5-2.3-8.2-.3.3-.8.9-1.1 1.2-1.3-1.4-4.2.4-3.1 2.1m1475 0c-.3 2.6-.4 5.3-.5 7.9-.4.2-1.3.7-1.7.9-1.1 1.1-2.1 2.3-3 3.5.4.4 1.2 1.3 1.6 1.8-1.9 4-.6 8.7 2.2 11.9-1.9.6.3 3.6 1.3 1.8.7-2 3.2-4.1 1.7-6.3-1.1-2-2.3-4-3.5-5.9 1-.5 2-1 3.1-1.4 2-.8-.7-3.7-1.9-2.1l-.5-.9c.4-.1 1.1-.3 1.4-.4 2-2.1 4.1-4.2 6.3-6.1-.8-2.7-1.6-5.5-2.3-8.2-.3.3-.8.9-1.1 1.2-1.3-1.4-4.2.4-3.1 2.1m-1053-1.8l.7.4c-.6 1.6-1.2 3.1-1.7 4.7 1.3-.2 2.7-.4 4.1-.7.6-1.4 1-2.8 1.6-4.3-1.6-.1-3.1-.1-4.6-.2m1475 0l.7.4c-.6 1.6-1.2 3.1-1.7 4.7 1.3-.2 2.7-.4 4.1-.7.5-1.4 1-2.8 1.6-4.3-1.6-.1-3.1-.1-4.6-.2m-1310 6.1c-.1 1.4-.1 2.7-.1 4.1 1.6-.2 4.9-.6 6.5-.7-.3-.4-1-1.1-1.3-1.5 1.2-1.1 1.1-2-.4-2.7l.5-1.1c-1.5.3-2.9.5-4.3.9-.5-2.7-3.7.8-1 1m1475 0c-.1 1.4-.1 2.7-.1 4.1 1.6-.2 4.9-.6 6.5-.7-.3-.4-1-1.1-1.3-1.5 1.2-1.1 1.1-2-.4-2.7l.5-1.1c-1.5.3-2.9.5-4.3.9-.5-2.7-3.8.8-1 1m-1638-1.9c-.5 3.1.6 5.7 3.8 6.6.1-1 .3-3.1.4-4.1-.4-1.6-1.3-1.8-2.5-.8-.4-.4-1.3-1.2-1.7-1.6m1475 0c-.5 3.1.6 5.7 3.8 6.6.1-1 .3-3.1.4-4.1-.4-1.6-1.3-1.8-2.5-.8-.4-.4-1.3-1.2-1.7-1.6m-1892 7.2c2.4-.2.4-4-1.1-2.1-2.7-.1-.1 4.6 1.1 2.1m1475 0c2.4-.2.3-4-1.1-2.1-2.8-.1-.1 4.6 1.1 2.1m-1453 0c-1.7.3-.9 2.9.7 2.6 1.6-.3.8-2.9-.7-2.6m1475 0c-1.7.3-.9 2.9.7 2.6 1.6-.3.8-2.9-.7-2.6m-1958 .8c-.3.6-.8 1.7-1 2.3.3.5.9 1.4 1.2 1.9l-.5.6c-2.3 1.3 2.2 3.6 2 1l.5-.9c1.6 1.2 3.9-1.5 2.5-2.9l.6-.4c-1.7-.5-3.5-1.1-5.2-1.6m1475 0c-.3.6-.8 1.7-1 2.3.3.5.9 1.4 1.2 1.9l-.5.6c-2.4 1.3 2.1 3.6 2 1l.5-.9c1.6 1.2 3.8-1.5 2.5-2.9l.6-.4c-1.8-.5-3.5-1.1-5.2-1.6m-1131 5c-1.6 1.3 1.6 3.2 1.9 1.1 2.6-1.1-2-3.9-1.9-1.1m1475 0c-1.6 1.3 1.6 3.2 1.9 1.1 2.6-1.1-2-3.9-1.9-1.1m-948 2.4c2.5-.8-.5-4.3-1.8-2.2-2.9.5.8 4.9 1.8 2.2m1475 0c2.4-.8-.5-4.3-1.8-2.2-2.9.5.7 4.9 1.8 2.2m-2001 1.3c0 .8-.1 2.3-.1 3.1.8 0 2.3.1 3.1.2-.3-1.4-.6-2.9-.9-4.3v.8c-.5.1-1.6.2-2.1.3m670-.5c-1.5 1 .2 3.5 1.6 2.4 1.5-1-.2-3.5-1.6-2.4m3.5 4.7c1.4-.4 2.8-.8 4.3-1.2 0-1.3.1-2.7.1-4-1.5 1.7-3 3.5-4.4 5.2m802-4.2c0 .8-.1 2.3-.1 3.1.8 0 2.3.1 3.1.2-.3-1.4-.6-2.9-.9-4.3v.8c-.5.1-1.6.2-2.1.3m670-.5c-1.5 1 .1 3.5 1.6 2.4 1.4-1-.2-3.5-1.6-2.4m3.5 4.7c1.4-.4 2.8-.8 4.3-1.2 0-1.3.1-2.7.1-4-1.5 1.7-3 3.5-4.4 5.2m-2546-1.5c-1.2.8.1 2.9 1.3 1.9 1.2-.8-.2-2.9-1.3-1.9m1475 0c-1.2.8.1 2.9 1.3 1.9 1.2-.8-.2-2.9-1.3-1.9m-929 4.8c.1 2.4 4.8 2.3 4.8-.1-.3-1.4-.6-2.8-.9-4.1-1.4 1.3-2.8 2.6-3.9 4.2m1475 0c.1 2.4 4.8 2.3 4.8-.1-.3-1.4-.6-2.8-.9-4.1-1.4 1.3-2.9 2.6-3.9 4.2m-1853-2.4c.6 2.2 1.1 4.5 1.7 6.7 1.2-2.1 1.9-4.4 2.9-6.6-1.5 0-3.1-.1-4.6-.1m1475 0c.6 2.2 1.1 4.5 1.7 6.7 1.2-2.1 1.9-4.4 2.8-6.6-1.5 0-3.1-.1-4.6-.1m-1154 .5c1.6 5.8-.4 11.8.4 17.6-.3.6-.8 1.9-1 2.5l-.8.1c-1.2 1.5 2.2 2.7 2.1.8.4.2 1 .7 1.4.9-.6-7.4 4-14 3.6-21-1.4-.2-4.3-.6-5.7-.8m365 2.1l-.6-.2c.6 1.4 1.2 2.7 1.9 4 1.6-.8 3.2-1.5 4.7-2.4.1.9.3 2.5.4 3.4.5-2.2.8-4.5 1-6.8-1.9.5-5.6 1.5-7.5 2m1110-2.1c1.5 5.8-.4 11.8.4 17.6-.3.6-.8 1.9-1 2.5l-.8.1c-1.2 1.5 2.1 2.7 2.1.8.3.2 1.1.7 1.4.9-.6-7.4 4-14 3.6-21-1.4-.2-4.3-.6-5.7-.8m365 2.1l-.6-.2c.6 1.4 1.2 2.7 1.9 4 1.6-.8 3.2-1.5 4.7-2.4.1.9.3 2.5.4 3.4.5-2.2.8-4.5 1-6.8-1.9.5-5.6 1.5-7.4 2m-1450 1.7c-1.4.9.1 3.2 1.4 2.2 1.4-.9-.1-3.2-1.4-2.2m6.9.8l.7.6c-1.3.8-1.1 3.1.2 3.7-.3.4-.9 1.1-1.2 1.5 1.8-.4 3.6-.8 5.4-1.2-.1.4-.3 1.3-.4 1.7-3.1 1.1-5.2 3.6-6.2 6.7-.3 1.9 3.6 1.6 3.2-.2h1.6c-.2 2 4.1 2.3 4 .3 2.2.3 4.4.6 6.6.9 1.1-2.4 2.2-4.7 3.3-7.1-2.5 1.2-5.1 2.3-7.7 3.4 1-3.6 2.5-7 4.5-10.1-1.4.2-2.8.4-4.2.5l.6-.8c-1.5.6-3 1.2-4.5 1.8.2-1 .5-2 .8-3-2.3.4-4.5.9-6.7 1.3m1468-.8c-1.4.9 0 3.2 1.4 2.2 1.4-.9-.1-3.2-1.4-2.2m6.9.8l.7.6c-1.3.8-1.1 3.1.2 3.7-.3.4-.9 1.1-1.2 1.5 1.8-.4 3.6-.8 5.4-1.2-.1.4-.3 1.3-.4 1.7-3.1 1.1-5.2 3.6-6.2 6.7-.3 1.9 3.6 1.6 3.2-.2h1.6c-.2 2 4 2.3 4 .3 2.2.3 4.4.6 6.6.9 1.1-2.4 2.2-4.7 3.3-7.1-2.6 1.2-5.1 2.3-7.7 3.4 1-3.6 2.5-7 4.5-10.1-1.4.2-2.8.4-4.2.5l.6-.8c-1.6.6-3 1.2-4.5 1.8.2-1 .5-2 .8-3-2.3.4-4.5.9-6.7 1.3m-1874 2.4c-1.3-1.2-3.6.9-2.4 2.3-1.8 1-3.6 2-5.4 3 1.5 2.1 3.4 4.1 5.4 5.8 2.1-4.2 3.7-8.6 4-13.3-.4.5-1.2 1.6-1.6 2.2m20.4-2c-.2 1.9-.7 5.6-.9 7.4 1.2.5 2.4 1 3.6 1.4-.2-1.5-.5-4.6-.6-6.2.4-1.7-.2-2.4-1.9-2l-.2-.7m1455 2c-1.3-1.2-3.7.9-2.4 2.3-1.8 1-3.6 2-5.4 3 1.5 2.1 3.4 4.1 5.4 5.8 2.1-4.2 3.7-8.6 4-13.3-.4.5-1.2 1.6-1.6 2.2m20.4-2c-.2 1.9-.7 5.6-.9 7.4 1.2.5 2.4 1 3.6 1.4-.2-1.5-.5-4.6-.6-6.2.4-1.7-.2-2.4-1.9-2l-.2-.7m-1107 1.8c-1.6 0-1.8 2.7-.1 2.7 1.6.1 1.7-2.7.1-2.7m1475 0c-1.7 0-1.8 2.7-.1 2.7 1.6.1 1.7-2.7.1-2.7m-1403 5.7c1.8.4 3.7.9 5.6 1.1.6 2.7 3.6-1.1.9-1.2.1-.8.3-2.5.4-3.3.5-1.7-2.5-2.4-3.3-1-2.7-2.4-2.6 2.8-3.6 4.4m1475 0c1.8.4 3.7.9 5.6 1.1.6 2.7 3.6-1.1.9-1.2.1-.8.3-2.5.4-3.3.4-1.7-2.6-2.4-3.3-1-2.8-2.4-2.7 2.8-3.6 4.4m-2436-3c-2.6 1.2 2.1 3.9 1.9 1 1.6-1.3-1.7-3.1-1.9-1m1475 0c-2.6 1.2 2 3.9 1.9 1 1.6-1.3-1.7-3.1-1.9-1m-1150 3.3c-1.5 1 .2 3.5 1.6 2.4 1.5-1-.2-3.5-1.6-2.4m1475 0c-1.5 1 .1 3.5 1.6 2.4 1.5-1-.2-3.5-1.6-2.4m-1340 1c-1.5-.5-2.6 2-.9 2.5 1.5.5 2.6-2 .9-2.5m457 4.9c-1.4-1.8-3.9 1.5-1.7 2.2-1.1 1.2-2.2 2.4-3.3 3.5-2.3-1.2-4.9-2.2-7.3-3.1-.8.8-1.6 1.6-2.3 2.5 2.4 2.2 4.5 4.7 4.6 8.1 1.6.3 3.2.6 4.8.6.6.2 1.9.7 2.5.9 1.8 3.1 5.7 2.6 8.9 2.5.5 2.6 3.7-1 1-1.2.2-2.9.1-5.8-.1-8.7-1.5 1.5-2.9 3.1-4.3 4.7-.2-.8-.5-2.4-.7-3.2 1.6-.5 1.8-1.5.6-2.7 2.5-3.4 1.8-7.8 1.8-11.7-1.6 1.8-3.2 3.7-4.4 5.7m1018-4.9c-1.5-.5-2.6 2-.9 2.5 1.4.5 2.5-2 .9-2.5m457 4.9c-1.4-1.8-3.9 1.5-1.7 2.2-1.1 1.2-2.2 2.4-3.3 3.5-2.3-1.2-5-2.2-7.3-3.1-.8.8-1.6 1.6-2.3 2.5 2.4 2.2 4.5 4.7 4.6 8.1 1.6.3 3.2.6 4.8.6.6.2 1.9.7 2.5.9 1.8 3.1 5.5 2.6 8.9 2.5.5 2.6 3.6-1 1-1.2.1-2.9.1-5.8-.1-8.7-1.5 1.5-2.9 3.1-4.3 4.7-.2-.8-.5-2.4-.7-3.2 1.6-.5 1.8-1.5.6-2.7 2.5-3.4 1.8-7.8 1.8-11.7-1.6 1.8-3.2 3.7-4.4 5.7m-1987-4.6c1.4 3.6 2.9 7.2 4.4 10.8 1.7-.8 3.4-1.6 5.1-2.4-2.5-3.5-5.6-6.6-9.6-8.4m1475 0c1.3 3.6 2.9 7.2 4.4 10.8 1.7-.8 3.4-1.6 5.1-2.4-2.5-3.5-5.6-6.6-9.6-8.4m-921 1.1c0 .8.1 2.5.1 3.3 2.6.4 5.1.7 7.7.9-1.8-2.6-5-3.4-7.8-4.2m1475 0c0 .8.1 2.5.1 3.3 2.5.4 5.1.7 7.7.9-1.8-2.6-5-3.4-7.8-4.2m-1944 4.1c2.1 1.6 3.4-3 .8-2.8-1.9-1.2-3.1 2.9-.8 2.8m1475 0c2.1 1.6 3.4-3 .8-2.8-1.9-1.2-3.1 2.9-.8 2.8m-1502-2.3c-.5 1.5-.9 3-1.4 4.5 1.6-.8 3.1-1.5 4.7-2.3-1.1-.7-2.3-1.4-3.3-2.2m1475 0c-.5 1.5-1 3-1.4 4.5 1.6-.8 3.1-1.5 4.7-2.3-1.2-.7-2.3-1.4-3.3-2.2m-1429 8c-2.1 1.7-4.7 2.7-6.8 4.5l-.7.1c3 0 9.1 0 12-.1l-.8-.1c1.4-3.8 2.2-7.8.7-11.7-1.6 2.3-2.8 5-4.5 7.2m1476-1.7c-1.6 3.2-5.5 4-8 6.2l-.7.1c3 0 9.1 0 12-.1l-.8-.1c1.4-3.8 2.2-7.8.7-11.7-1.2 1.8-2.2 3.6-3.3 5.5m-1099-2c-.2 2.1 3.5.8 2.1-.7.1-2.1-3.5-.8-2.1.7m1475 0c-.2 2.1 3.5.8 2.1-.7.1-2.1-3.5-.8-2.1.7m-1871-.4c0 1.7 0 3.5.1 5.2 1.2-1 4-1.1 3.7-3.2-1.2-.8-2.5-1.4-3.8-2m1475 0c0 1.7 0 3.5.1 5.2 1.2-1 4-1.1 3.7-3.2-1.3-.8-2.5-1.4-3.8-2m-1601 5.7c2.4.9 2.4-3.7 0-3.1-2.4-.8-2.5 3.9 0 3.1m1475 0c2.4.9 2.4-3.7 0-3.1-2.5-.8-2.5 3.9 0 3.1m-1448-2.1c-1.9.4-1.3 3.6.7 2.9 1.9-.4 1.3-3.6-.7-2.9m222 .4c-1.6 1.3-2.8 3-3.6 4.8 1.8-.7 3.6-1.4 5.4-2.3l-.9-1.2c2.6.3.1-3.7-.9-1.4m1253-.4c-1.9.4-1.3 3.6.7 2.9 1.9-.4 1.3-3.6-.7-2.9m222 .4c-1.6 1.3-2.8 3-3.6 4.8 1.8-.7 3.6-1.4 5.4-2.3l-.9-1.2c2.6.3.1-3.7-.9-1.4m-1692 2.1c-1.2 1.3 1.1 3.3 2.3 2 1.2-1.3-1.1-3.2-2.3-2m1475 0c-1.2 1.3 1 3.3 2.3 2 1.1-1.3-1.1-3.2-2.3-2m-1642 17.7c-1.3 1.2.9 3.4 2 1.9 1.3-1.3-.8-3.3-2-1.9m1475 0c-1.3 1.2.8 3.4 2 1.9 1.3-1.3-.8-3.3-2-1.9"/><path d="m1222 13c1.3.7 1.3 1.4 0 2-1.3-.7-1.3-1.3 0-2"/><path d="m2697 13c1.3.7 1.3 1.4 0 2-1.3-.7-1.3-1.3 0-2"/><path d="m851 20.5c1.5-.1 1.4 2.4 0 2.4-1.5.1-1.4-2.3 0-2.4"/><path d="m2326 20.5c1.5-.1 1.4 2.4 0 2.4-1.5.1-1.4-2.3 0-2.4"/><path d="m1226 24c3.3.9 7.1 1.1 9.1 4.2-1-.2-2.9-.5-3.9-.6-1.1-.3-2.3-.5-3.4-.4-.6-1-1.3-2.1-1.9-3.1"/><path d="m2701 24c3.2.9 7.1 1.1 9.1 4.2-1-.2-2.9-.5-3.9-.6-1.2-.3-2.3-.5-3.4-.4-.7-1-1.3-2.1-1.9-3.1"/><path d="m663 28.3l.8-.2c.1.7.4 2 .5 2.7l-.7.2c-.1-.7-.4-2-.5-2.7"/><path d="m1273 29.5c1.7-.4 5-1.1 6.6-1.5-2.3 1.4-4.7 2.6-7 4-.4-.4-1.3-1.3-1.7-1.8.5-.2 1.6-.6 2.1-.8"/><path d="m2138 28.3l.8-.2c.1.7.4 2 .5 2.7l-.7.2c-.1-.7-.4-2-.5-2.7"/><path d="m2748 29.5c1.7-.4 5-1.1 6.6-1.5-2.3 1.4-4.8 2.6-7 4-.4-.4-1.3-1.3-1.7-1.8.5-.2 1.6-.6 2.1-.8"/><path d="m1226 34c2.2-1.2 4.5-2.3 6.8-3.4 0 .9-.1 2.6-.1 3.4-1.5.2-3.1.4-4.6.4-.5-.1-1.6-.4-2.1-.5"/><path d="m2701 34c2.2-1.2 4.5-2.3 6.8-3.4 0 .9-.1 2.6-.1 3.4-1.5.2-3.1.4-4.6.4-.5-.1-1.6-.4-2.1-.5"/><path d="m1177 32c1.3.7 1.3 1.4 0 2-1.3-.7-1.3-1.3 0-2"/><path d="m2652 32c1.3.7 1.3 1.4 0 2-1.3-.7-1.3-1.3 0-2"/><path d="m1224 35.6l.2-.6c.1.3.3 1 .4 1.3.4 1.2.8 2.4 1.2 3.6-1.3-.4-2.9-.3-3.9.7-1.6 1.1-3 2.5-4.7 3.5-2.7 0-5.3-1.1-7.8-1.9 0-.8-.1-2.5-.1-3.4 4.1-.6 8.2-1.2 12.4-1.7 1.1.1 1.9-.5 2.2-1.5"/><path d="m2699 35.6l.2-.6c.1.3.3 1 .4 1.3.3 1.2.8 2.4 1.2 3.6-1.4-.4-2.9-.3-3.9.7-1.6 1.1-3 2.5-4.6 3.5-2.7 0-5.3-1.1-7.8-1.9 0-.8-.1-2.5-.1-3.4 4.1-.6 8.2-1.2 12.4-1.7 1.1.1 1.8-.5 2.2-1.5"/><path d="m1112 38c1.8.5.5 3.2-1 2.7-1.8-.5-.6-3.2 1-2.7"/><path d="m2587 38c1.8.5.5 3.2-1.1 2.7-1.9-.5-.6-3.2 1.1-2.7"/><path d="m1267 43c-.7 3.1-5-1.1-1.9-1.9.2 1 .8 1.6 1.9 1.9"/><path d="m2742 43c-.7 3.1-5-1.1-1.8-1.9.2 1 .8 1.6 1.8 1.9"/><path d="m1107 41.9c1.6-.7 2.5 2 .8 2.4-1.6.7-2.5-1.9-.8-2.4"/><path d="m2582 41.9c1.5-.7 2.5 2 .8 2.4-1.6.7-2.5-1.9-.8-2.4"/><path d="m1137 44c4-.8-.9 4 0 0"/><path d="m2612 44c4-.8-.9 4 0 0"/><path d="m1104 45c1.6-.5 2.2 0 1.7 1.7-1.6.5-2.2 0-1.7-1.7"/><path d="m2579 45c1.6-.5 2.2 0 1.7 1.7-1.7.5-2.2 0-1.7-1.7"/><path d="m332 52c2.7.1 5.1 1.4 6 4.1-1.2-.5-2.3-1.1-3.4-1.8-.3-1-.9-1.7-1.9-2l-.8-.3"/><path d="m1807 52c2.7.1 5.1 1.4 6 4.1-1.2-.5-2.3-1.1-3.4-1.8-.3-1-1-1.7-1.9-2l-.8-.3"/><path d="m733 58.8c-1.7 2.8-4-2.5-.7-1.3.2.3.5.9.7 1.3"/><path d="m2208 58.8c-1.7 2.8-4-2.5-.7-1.3.2.3.5.9.7 1.3"/><path d="m719 71c.5-.3 1.4-.9 1.8-1.2l.6.4c.2 1.3-.4 1.9-1.6 1.8-.2-.3-.5-.7-.7-1"/><path d="m2194 71c.4-.3 1.3-.9 1.8-1.2l.6.4c.2 1.3-.4 1.9-1.6 1.8-.2-.3-.6-.7-.7-1"/><path d="m166 73c4-.8-.8 4 0 0"/><path d="m1641 73c4-.8-.9 4 0 0"/><path d="m1452 76c1.3.7 1.3 1.3 0 2-1.3-.7-1.3-1.3 0-2"/><path d="m2927 76c1.3.7 1.3 1.3 0 2-1.3-.7-1.3-1.3 0-2"/><path d="m712 79c1.4-.2 2.8-.4 4.2-.2.3.2.8.5 1 .7-1.6.5-3.2.8-4.8.9-.1-.3-.3-1-.5-1.4"/><path d="m2187 79c1.4-.2 2.8-.4 4.2-.2.3.2.8.5 1 .7-1.6.5-3.2.8-4.8.9-.1-.3-.3-1-.5-1.4"/><path d="m483 105c1.4-.4 1.9 0 1.5 1.4-1.4.4-1.9 0-1.5-1.4"/><path d="m1958 105c1.4-.4 1.9 0 1.4 1.4-1.4.4-1.9 0-1.4-1.4"/><path d="m1360 8c0-1.5.7-2 2.1-1.5-.2 1.3-.9 1.8-2.1 1.5" style="opacity:.8"/><path d="m2835 8c0-1.5.7-2 2.1-1.5-.2 1.3-.9 1.8-2.1 1.5" style="opacity:.8"/><path d="m1231 7.5c1.2-.5 2-.2 2.6.9-1.2.9-2.1.6-2.6-.9" style="opacity:.8"/><path d="m2706 7.5c1.1-.5 2-.2 2.6.9-1.2.9-2.1.6-2.6-.9" style="opacity:.8"/><path d="m1258 9.8c1.2-2.1 3.5.5 3.1 2.2-1.2-.5-2.3-1.1-3.1-2.2" style="opacity:.8"/><path d="m2733 9.8c1.2-2.1 3.5.5 3.1 2.2-1.2-.5-2.4-1.1-3.1-2.2" style="opacity:.8"/><path d="m1358 12c0-1.4.6-2.1 2-2 0 1.4-.6 2.1-2 2" style="opacity:.8"/><path d="m2833 12c-.1-1.4.6-2.1 2-2 0 1.4-.7 2.1-2 2" style="opacity:.8"/><path d="m1326 11.7c.9-.7 1.9-1.1 3.1-.9.2 1.8-2.3 2.6-3.1.9" style="opacity:.8"/><path d="m2801 11.7c.8-.7 1.9-1.1 3.1-.9.2 1.8-2.3 2.6-3.1.9" style="opacity:.8"/><path d="m1248 16.5c-.2-1.8 1.5-2.9 2.9-3.8-.2 1.7-.9 3.7-2.9 3.8" style="opacity:.8"/><path d="m2723 16.5c-.2-1.8 1.4-2.9 2.9-3.8-.2 1.7-.9 3.7-2.9 3.8" style="opacity:.8"/><path d="m856 16c1.3-.4 2.1 0 2.4 1.3-1.4.5-2.2.1-2.4-1.3" style="opacity:.8"/><path d="m2331 16c1.3-.4 2.1 0 2.4 1.3-1.4.5-2.3.1-2.4-1.3" style="opacity:.8"/><path d="m876 19c-.3-1.4.3-2.1 1.8-2.1.2 1.4-.4 2.1-1.8 2.1" style="opacity:.8"/><path d="m2351 19c-.3-1.4.3-2.1 1.8-2.1.2 1.4-.4 2.1-1.8 2.1" style="opacity:.8"/><path d="m1318 21c.3-1.6 1.1-2.1 2.5-1.7-.3 1.2-1.1 1.8-2.5 1.7" style="opacity:.8"/><path d="m2793 21c.3-1.6 1.1-2.1 2.5-1.7-.3 1.2-1.1 1.8-2.5 1.7" style="opacity:.8"/><path d="m675 22c-3.3-.7.3-4.3.3-.6l-.3.6" style="opacity:.8"/><path d="m781 22.6c-.2-2.3 3.2-3.3 3-.5-1 .4-2 .6-3 .5" style="opacity:.8"/><path d="m2150 22.3c-3.1-1.5.7-4.2.4-.6l-.4.6" style="opacity:.8"/><path d="m2256 22.6c-.2-2.3 3.2-3.3 3-.5-1 .4-2 .6-3 .5" style="opacity:.8"/><path d="m1230 20.8c1.5.4 2.1 1.2 1.8 2.6-1.3-.3-1.9-1.2-1.8-2.6" style="opacity:.8"/><path d="m2705 20.8c1.4.4 2 1.2 1.8 2.6-1.3-.3-1.9-1.2-1.8-2.6" style="opacity:.8"/><path d="m877 23c1.3.1 2.1.9 2.3 2.1-1.5.1-2.2-.6-2.3-2.1" style="opacity:.8"/><path d="m884 26.5c-.1-1.8 1.2-3.1 2.7-3.7.3 1.8-1.1 3.3-2.7 3.7" style="opacity:.8"/><path d="m2352 23c1.3.1 2.1.9 2.3 2.1-1.5.1-2.3-.6-2.3-2.1" style="opacity:.8"/><path d="m2359 26.5c-.2-1.8 1.1-3.1 2.7-3.7.2 1.8-1.1 3.3-2.7 3.7" style="opacity:.8"/><path d="m1287 23.9c1.4.7.5 3-1 2.3.3-.6.8-1.7 1-2.3" style="opacity:.8"/><path d="m2762 23.9c1.4.7.4 3-1 2.3.3-.6.8-1.7 1-2.3" style="opacity:.8"/><path d="m663 28.3c-2.6-2.2 1.5-3.4.8-.2l-.8.2" style="opacity:.8"/><path d="m667 28.4c-2-1.3.8-4.2 1-1.3-.3.3-.8 1-1 1.3" style="opacity:.8"/><path d="m1194 28c-.5-2.6 3.2-1.8 2.3.4-.6-.1-1.7-.3-2.3-.4" style="opacity:.8"/><path d="m1320 25.8c1.4-.2 2.8.7 3 2.1-1.4.4-2.9-.7-3-2.1" style="opacity:.8"/><path d="m2138 28.3c-2.6-2.2 1.5-3.4.8-.2l-.8.2" style="opacity:.8"/><path d="m2142 28.4c-2-1.3.8-4.2 1-1.3-.3.3-.8 1-1 1.3" style="opacity:.8"/><path d="m2669 28c-.5-2.6 3.2-1.8 2.3.4-.6-.1-1.7-.3-2.3-.4" style="opacity:.8"/><path d="m2795 25.8c1.3-.2 2.8.7 3 2.1-1.4.4-3-.7-3-2.1" style="opacity:.8"/><path d="m1228 27c1.1 0 2.2.2 3.4.4.2 2.3-4.3 1.6-3.4-.4" style="opacity:.8"/><path d="m1260 27c3.1-.3 1.2 3.9-1 2.3.3-.6.8-1.8 1-2.3" style="opacity:.8"/><path d="m1343 29c-1.5.7-2.4-1.7-.9-2.3.2.6.7 1.7.9 2.3" style="opacity:.8"/><path d="m2703 27c1.1 0 2.2.2 3.4.4.2 2.3-4.3 1.6-3.4-.4" style="opacity:.8"/><path d="m2735 27c3-.3 1.2 3.9-1 2.3.3-.6.8-1.8 1-2.3" style="opacity:.8"/><path d="m2818 29c-1.6.7-2.4-1.7-.9-2.3.2.6.7 1.7.9 2.3" style="opacity:.8"/><path d="m1194 28.7c1.9 1.6-.8 3.3-1.5 1 .4-.2 1.1-.7 1.5-1" style="opacity:.8"/><path d="m1271 30c-1.6-1.4 1.9-2.7 2.1-.8-.5.2-1.6.6-2.1.8" style="opacity:.8"/><path d="m1286 28.7c.9 1.2.8 4-1.3 3.2 0-1.2.5-2.3 1.3-3.2" style="opacity:.8"/><path d="m2669 28.7c1.8 1.6-.8 3.3-1.5 1 .4-.2 1.1-.7 1.5-1" style="opacity:.8"/><path d="m2746 30c-1.6-1.4 1.9-2.7 2.1-.8-.5.2-1.6.6-2.1.8" style="opacity:.8"/><path d="m2761 28.7c.9 1.2.8 4-1.3 3.2 0-1.2.4-2.3 1.3-3.2" style="opacity:.8"/><path d="m1282 30c1.2-.6 2-.1 2.4 1.6-1.3.1-2.1-.4-2.4-1.6" style="opacity:.8"/><path d="m1341 32c-.8-1.2-.3-2.1 1.3-2.7.3 1.3-.2 2.2-1.3 2.7" style="opacity:.8"/><path d="m2757 30c1.2-.6 2-.1 2.4 1.6-1.3.1-2.2-.4-2.4-1.6" style="opacity:.8"/><path d="m2816 32c-.8-1.2-.3-2.1 1.3-2.7.3 1.3-.2 2.2-1.3 2.7" style="opacity:.8"/><path d="m663 31l.7-.2c.2.4.5 1.1.6 1.5-.3.3-.9.8-1.1 1.1l-.5-.6c.1-.5.2-1.4.2-1.9" style="opacity:.8"/><path d="m1157 33.9c-.9-1.3.6-4.1 2-2.5-.4 1.1-1.1 1.9-2 2.5" style="opacity:.8"/><path d="m1189 30.9c1.5.2 3.2 2.5 1.4 3.4-.9-.8-2.1-2.2-1.4-3.4" style="opacity:.8"/><path d="m1358 33.5c-1.7-.2-1.3-2.8.4-2.4-.1.6-.3 1.8-.4 2.4" style="opacity:.8"/><path d="m2138 31l.7-.2c.2.4.5 1.1.6 1.5-.3.3-.8.8-1.1 1.1l-.5-.6c.1-.5.2-1.4.2-1.9" style="opacity:.8"/><path d="m2632 33.9c-1-1.3.6-4.1 2-2.5-.4 1.1-1.1 1.9-2 2.5" style="opacity:.8"/><path d="m2664 30.9c1.5.2 3.2 2.4 1.5 3.5-1-.8-2.2-2.2-1.5-3.5" style="opacity:.8"/><path d="m2833 33.5c-1.7-.2-1.3-2.8.4-2.4-.1.6-.3 1.8-.4 2.4" style="opacity:.8"/><path d="m1263 32c1.6-.5 2.2 0 1.7 1.7-1.6.5-2.2 0-1.7-1.7" style="opacity:.8"/><path d="m2738 32c1.6-.5 2.2 0 1.7 1.7-1.7.5-2.2 0-1.7-1.7" style="opacity:.8"/><path d="m772 34.7c.3-1.4 1.1-1.8 2.4-1.4-.3 1.4-1.1 1.9-2.4 1.4" style="opacity:.8"/><path d="m1235 35.6c-2-.5-.5-2.7 1-2.5-.3.6-.7 1.9-1 2.5" style="opacity:.8"/><path d="m2247 34.7c.3-1.4 1.1-1.8 2.4-1.4-.3 1.4-1.1 1.9-2.4 1.4" style="opacity:.8"/><path d="m2710 35.6c-2-.5-.5-2.7 1-2.5-.3.6-.7 1.9-1 2.5" style="opacity:.8"/><path d="m1225 35c.4-.2 1.2-.6 1.6-.8.5.1 1.6.4 2.1.5.3 1.6-2.2 2.6-3.3 1.6-.1-.3-.3-1-.4-1.3" style="opacity:.8"/><path d="m2700 35c.4-.2 1.2-.6 1.6-.8.5.1 1.6.4 2.1.5.3 1.6-2.2 2.6-3.3 1.6-.1-.3-.3-1-.4-1.3" style="opacity:.8"/><path d="m649 35c2.3-.5 4.6 1.1 4.4 3.6-1.8-.7-3.2-2.1-4.4-3.6" style="opacity:.8"/><path d="m740 35c1.4-.2 2.1.4 2.2 1.8-1.4.2-2.1-.4-2.2-1.8" style="opacity:.8"/><path d="m899 35c.5.2 1.5.5 2.1.7.1 2.1-3.5.8-2.1-.7" style="opacity:.8"/><path d="m1176 36c.4-2.4 3.7-1.2 2.2.9-.5-.2-1.6-.6-2.2-.9" style="opacity:.8"/><path d="m1222 37c-.1-1.6.6-2.1 2.2-1.5-.3 1.1-1 1.6-2.2 1.5" style="opacity:.8"/><path d="m2124 35c2.2-.4 4.7 1.1 4.4 3.6-1.9-.7-3.2-2.1-4.4-3.6" style="opacity:.8"/><path d="m2215 35c1.3-.2 2.1.4 2.2 1.8-1.4.2-2.2-.4-2.2-1.8" style="opacity:.8"/><path d="m2374 35c.5.2 1.6.5 2.1.7.1 2.1-3.5.8-2.1-.7" style="opacity:.8"/><path d="m2651 36c.4-2.4 3.7-1.2 2.2.9-.5-.2-1.7-.6-2.2-.9" style="opacity:.8"/><path d="m2697 37c-.1-1.6.6-2.1 2.2-1.5-.3 1.1-1.1 1.6-2.2 1.5" style="opacity:.8"/><path d="m698 38c-.2-1.4.4-2.1 1.8-2.2.2 1.4-.4 2.1-1.8 2.2" style="opacity:.8"/><path d="m2173 38c-.2-1.4.4-2.1 1.8-2.2.2 1.4-.4 2.1-1.8 2.2" style="opacity:.8"/><path d="m813 37c2.1-1 2.5 2.1.3 1.8-.1-.5-.2-1.4-.3-1.8" style="opacity:.8"/><path d="m1143 37c1.3-.4 2.1 0 2.5 1.3-1.4.5-2.2.1-2.5-1.3" style="opacity:.8"/><path d="m2288 37c2.1-1 2.5 2.1.3 1.8-.1-.5-.2-1.4-.3-1.8" style="opacity:.8"/><path d="m2618 37c1.2-.4 2.1 0 2.5 1.3-1.4.5-2.2.1-2.5-1.3" style="opacity:.8"/><path d="m789 42c-1.1-1.2-1.1-3.1.1-4.3 1.1 1.2 1.2 3.1-.1 4.3" style="opacity:.8"/><path d="m862 40c-2.1-.1-.4-3.4 1-1.9-.2.5-.7 1.4-1 1.9" style="opacity:.8"/><path d="m1307 37.6c2 .1 1.5 2.5.7 3.5-.9-1.1-1.1-2.3-.7-3.5" style="opacity:.8"/><path d="m1313 40c-.8-1.7-.3-2.5 1.5-2.3-.3 1-.8 1.7-1.5 2.3" style="opacity:.8"/><path d="m1380 40c-.4-1.4.2-2.2 1.7-2.3 0 1.3-.6 2.1-1.7 2.3" style="opacity:.8"/><path d="m2264 42c-1.2-1.2-1.1-3.1.1-4.3 1.1 1.2 1.2 3.1-.1 4.3" style="opacity:.8"/><path d="m2337 40c-2.1-.1-.4-3.4 1-1.9-.2.5-.7 1.4-1 1.9" style="opacity:.8"/><path d="m2782 37.6c2 .1 1.5 2.5.7 3.5-.9-1.1-1.2-2.3-.7-3.5" style="opacity:.8"/><path d="m2788 40c-.9-1.7-.3-2.5 1.5-2.3-.3 1-.8 1.7-1.5 2.3" style="opacity:.8"/><path d="m2855 40c-.4-1.4.1-2.2 1.7-2.3 0 1.3-.6 2.1-1.7 2.3" style="opacity:.8"/><path d="m769 39c1.4.2 2.1 1 2.1 2.3-1.4-.1-2-.8-2.1-2.3" style="opacity:.8"/><path d="m804 39.9c.6-1.4 2.9-.8 2.3.8-.6-.2-1.8-.6-2.3-.8" style="opacity:.8"/><path d="m2244 39c1.4.2 2.1 1 2.1 2.3-1.4-.1-2.1-.8-2.1-2.3" style="opacity:.8"/><path d="m2279 39.9c.6-1.4 2.9-.8 2.3.8-.6-.2-1.8-.6-2.3-.8" style="opacity:.8"/><path d="m702 40.9c1.7-1.7 4.1-.1 4.2 2-1.5-.4-3.1-1-4.2-2" style="opacity:.8"/><path d="m1097 40.9c.8-2.5 2.9.3 1.1 1.4-.3-.4-.8-1.1-1.1-1.4" style="opacity:.8"/><path d="m1222 40.6c1-1 2.6-1.1 3.9-.7 0 1.8-3.1 2.1-3.9.7" style="opacity:.8"/><path d="m1230 42c.3-1.5 1.2-2.1 2.7-1.7-.5 1.2-1.4 1.8-2.7 1.7" style="opacity:.8"/><path d="m2177 40.9c1.7-1.7 4.1 0 4.1 2.2-1.6-.4-3-1-4.1-2.2" style="opacity:.8"/><path d="m2572 40.9c.8-2.5 2.9.3 1.1 1.4-.3-.4-.8-1.1-1.1-1.4" style="opacity:.8"/><path d="m2697 40.6c1-1 2.5-1.1 3.9-.7 0 1.8-3.2 2.1-3.9.7" style="opacity:.8"/><path d="m2705 42c.3-1.5 1.2-2.1 2.7-1.7-.5 1.2-1.4 1.8-2.7 1.7" style="opacity:.8"/><path d="m1024 43.7c-2.1-1.3.6-4.4 1.5-1.7-.4.4-1.1 1.3-1.5 1.7" style="opacity:.8"/><path d="m1177 44.9c1-1.6 2.5-2.9 4-4.1-.2 2-1.4 5.5-4 4.1" style="opacity:.8"/><path d="m1265 41c1.7-.5 2.3.1 1.9 1.9-1-.2-1.6-.9-1.9-1.9" style="opacity:.8"/><path d="m2499 43.7c-2.1-1.3.6-4.4 1.5-1.7-.4.4-1.1 1.3-1.5 1.7" style="opacity:.8"/><path d="m2652 44.9c1-1.6 2.3-3 3.9-4 0 2-1.6 5.1-3.9 4" style="opacity:.8"/><path d="m2740 41c1.7-.5 2.3.1 1.8 1.9-1-.2-1.7-.9-1.8-1.9" style="opacity:.8"/><path d="m760 44.7c-1-1.7 1.9-3.5 3.1-2.1-.8 1-1.8 1.9-3.1 2.1" style="opacity:.8"/><path d="m793 43.9c.5-1.3 1.4-1.9 2.8-1.9-.4 1.4-1.3 2-2.8 1.9" style="opacity:.8"/><path d="m1207 42c1.8 1.7 3.6 3.5 5.3 5.3-1.8-1.7-3.7-3.4-5.3-5.3" style="opacity:.8"/><path d="m2235 44.7c-1.1-1.7 1.9-3.5 3.1-2.1-.8 1-1.8 1.9-3.1 2.1" style="opacity:.8"/><path d="m2268 43.9c.4-1.3 1.4-1.9 2.8-1.9-.4 1.4-1.4 2-2.8 1.9" style="opacity:.8"/><path d="m2682 42c1.8 1.7 3.6 3.5 5.3 5.3-1.8-1.7-3.7-3.4-5.3-5.3" style="opacity:.8"/><path d="m797 44.8c-1.7-1.6 1.7-2.7 2.6-1.3-.7.8-1.6 1.2-2.6 1.3" style="opacity:.8"/><path d="m854 43c1.4-.4 2.2.2 2.4 1.6-1.3.3-2.1-.2-2.4-1.6" style="opacity:.8"/><path d="m1182 43c1.5.1 3.1.1 4.6.2-.5 1.4-1 2.9-1.6 4.3-.2-1-.3-1.9-.4-2.9-.5-.3-1.4-.8-1.9-1.1l-.7-.4" style="opacity:.8"/><path d="m2272 44.8c-1.7-1.6 1.6-2.7 2.6-1.3-.7.8-1.6 1.2-2.6 1.3" style="opacity:.8"/><path d="m2329 43c1.4-.4 2.2.2 2.4 1.6-1.4.3-2.1-.3-2.4-1.6" style="opacity:.8"/><path d="m2657 43c1.5.1 3.1.1 4.6.2-.5 1.4-1 2.9-1.6 4.3-.2-1-.3-1.9-.4-2.9-.5-.3-1.4-.8-1.9-1.1l-.7-.4" style="opacity:.8"/><path d="m1020 44c1.1-.1 2.1.2 2.9 1-.8 1.6-3.5.9-2.9-1" style="opacity:.8"/><path d="m1034 44c1.8-1.6 3.7 1.5 1.2 2.1-.3-.5-.9-1.6-1.2-2.1" style="opacity:.8"/><path d="m2495 44c1.1-.1 2.1.2 2.9 1-.8 1.6-3.5.9-2.9-1" style="opacity:.8"/><path d="m2509 44c1.8-1.6 3.6 1.5 1.2 2.1-.3-.5-.9-1.6-1.2-2.1" style="opacity:.8"/><path d="m1007 47c-1.7-1.6 1.2-3.7 1.4-1-.3.3-1.1.8-1.4 1" style="opacity:.8"/><path d="m1148 45c1.5-.3 2.2.3 2.2 1.8-1.2.1-2-.5-2.2-1.8" style="opacity:.8"/><path d="m2482 47c-1.8-1.6 1-3.7 1.3-1.1-.3.3-1 .8-1.3 1.1" style="opacity:.8"/><path d="m2623 45c1.5-.3 2.2.3 2.2 1.8-1.3.1-2-.5-2.2-1.8" style="opacity:.8"/><path d="m1143 46c1.4-.3 2.1.4 2 2-1.3-.1-1.9-.8-2-2" style="opacity:.8"/><path d="m1225 49c.5-1.6 1.8-2.9 3.5-2.9-.3 1.7-1.7 3.1-3.5 2.9" style="opacity:.8"/><path d="m1382 46c1.4-.2 2.2.4 2.5 1.8-1.4.1-2.3-.5-2.5-1.8" style="opacity:.8"/><path d="m2618 46c1.4-.3 2 .3 1.9 2-1.3-.1-1.9-.8-1.9-2" style="opacity:.8"/><path d="m2700 49c.5-1.5 1.7-2.9 3.5-2.9-.3 1.7-1.7 3.1-3.5 2.9" style="opacity:.8"/><path d="m2857 46c1.3-.2 2.2.4 2.5 1.8-1.4.1-2.3-.5-2.5-1.8" style="opacity:.8"/><path d="m215 46.7c1.6-.7 2.6 1.5 2.3 2.8-1.3-.3-2.4-1.4-2.3-2.8" style="opacity:.8"/><path d="m739 47c.8-1.2 2.9.1 2 1.3-.8 1.1-2.9-.1-2-1.3" style="opacity:.8"/><path d="m1284 48c.8-1.2 1.8-1.7 3.1-1.4.2 1.8-2 2.2-3.1 1.4" style="opacity:.8"/><path d="m1347 49c-2.8-.3.5-3.8 1-1-.2.3-.7.8-1 1" style="opacity:.8"/><path d="m1690 47c1.5-.8 2.6 1.3 2.4 2.6-1.3-.3-2.5-1.2-2.4-2.6" style="opacity:.8"/><path d="m2214 47c.8-1.2 2.9.1 2 1.3-.8 1.1-2.9-.1-2-1.3" style="opacity:.8"/><path d="m2759 48c.7-1.2 1.8-1.7 3.2-1.4.1 1.8-2 2.2-3.2 1.4" style="opacity:.8"/><path d="m2822 49c-2.8-.3.5-3.8 1-1-.2.3-.7.8-1 1" style="opacity:.8"/><path d="m196 49.7c.8-1.1 1.8-1.7 3.1-1.9.8 1.9-1.8 2.5-3.1 1.9" style="opacity:.8"/><path d="m286 49.9c.5-1.3 1.4-1.8 2.7-1.4-.4 1.3-1.3 1.8-2.7 1.4" style="opacity:.8"/><path d="m322 48c1.5-.5 2.2-.1 2.2 1.3-1.3.4-2-.1-2.2-1.3" style="opacity:.8"/><path d="m1186 48.8c1.3-1 2.1-.8 2.5.8-1 .5-1.9.2-2.5-.8" style="opacity:.8"/><path d="m1352 48c1.5.7 1.6 1.6.4 2.7-.9-.8-1-1.7-.4-2.7" style="opacity:.8"/><path d="m1671 49.7c.8-1.1 1.8-1.7 3.1-1.9.8 1.9-1.8 2.4-3.1 1.9" style="opacity:.8"/><path d="m1761 49.9c.5-1.3 1.4-1.8 2.7-1.4-.4 1.3-1.3 1.8-2.7 1.4" style="opacity:.8"/><path d="m1797 48c1.5-.5 2.2-.1 2.2 1.3-1.3.4-2-.1-2.2-1.3" style="opacity:.8"/><path d="m2661 48.8c1.3-1 2.1-.8 2.5.8-1.1.5-1.9.2-2.5-.8" style="opacity:.8"/><path d="m2827 48c1.4.7 1.6 1.6.4 2.7-.9-.8-1-1.7-.4-2.7" style="opacity:.8"/><path d="m233 49c1.6-2.1 2.8 1.1.6 1.6-.2-.4-.5-1.2-.6-1.6" style="opacity:.8"/><path d="m241 51c2.4-.7 4.9-1.1 7.4-1.4-2.5.4-5 .8-7.4 1.4" style="opacity:.8"/><path d="m1003 48.9c.7 0 2 .1 2.6.2-.1 1.8-2.3 1.1-2.6-.2" style="opacity:.8"/><path d="m1708 49c1.6-2.1 2.8 1.1.6 1.6-.2-.4-.5-1.2-.6-1.6" style="opacity:.8"/><path d="m1716 51c2.4-.7 4.9-1.1 7.4-1.4-2.5.4-5 .8-7.4 1.4" style="opacity:.8"/><path d="m2479 48c.6.3 1.8.8 2.4 1-.3 2.1-2.7.4-2.4-1" style="opacity:.8"/><path d="m282 52.6c-1.6-1.1-.2-3.5 1.6-2.8-.2 1.1-.8 2-1.6 2.8" style="opacity:.8"/><path d="m297 54c-1.8.3-3.2-1.6-2.4-3.2 1.4.3 2.2 1.9 2.4 3.2" style="opacity:.8"/><path d="m852 53c1.3-1.4 2.8-2.5 4.6-3.1.5 2.6-2.5 3.6-4.6 3.1" style="opacity:.8"/><path d="m955 51c-.3-1.8 2.5-1.6 2.4.1-.6 0-1.8 0-2.4-.1" style="opacity:.8"/><path d="m1757 52.6c-1.6-1.1-.2-3.5 1.6-2.8-.2 1.1-.8 2-1.6 2.8" style="opacity:.8"/><path d="m1772 54c-1.8.3-3.2-1.6-2.4-3.2 1.4.3 2.2 1.9 2.4 3.2" style="opacity:.8"/><path d="m2327 53c1.3-1.4 2.8-2.5 4.6-3.1.5 2.6-2.5 3.6-4.6 3.1" style="opacity:.8"/><path d="m2430 51c-.4-1.8 2.5-1.6 2.4.1-.6 0-1.8 0-2.4-.1" style="opacity:.8"/><path d="m224 51.6c2.1-.4 3 2.7.4 2.4-.1-.6-.3-1.8-.4-2.4" style="opacity:.8"/><path d="m728 52c1.3-.2 4-.7 5.4-.9-1.3.4-3.8 1.2-5 1.6l-.3-.6" style="opacity:.8"/><path d="m803 51c1.4-.4 2.3.2 2.7 1.7-1.3.1-2.2-.5-2.7-1.7" style="opacity:.8"/><path d="m993 51c1.4.3 2.1 1.1 2 2.4-1.4-.1-2-1-2-2.4" style="opacity:.8"/><path d="m1045 51c2.2-.5 3.8 1.3 4.5 3.2-2.1.1-3.7-1.4-4.5-3.2" style="opacity:.8"/><path d="m1213 53c-.3-1.3.2-2.1 1.5-2.3.5 1.3 0 2.1-1.5 2.3" style="opacity:.8"/><path d="m1699 51.6c2.1-.3 3 2.7.4 2.4-.1-.6-.3-1.8-.4-2.4" style="opacity:.8"/><path d="m2203 52c1.3-.3 4-.8 5.3-1-1.3.4-3.8 1.2-5 1.6l-.3-.6" style="opacity:.8"/><path d="m2278 51c1.4-.4 2.3.2 2.7 1.7-1.3.1-2.3-.5-2.7-1.7" style="opacity:.8"/><path d="m2468 51c1.4.2 2.1 1 2 2.4-1.4-.1-2.1-.9-2-2.4" style="opacity:.8"/><path d="m2520 51c2.2-.5 3.8 1.3 4.5 3.2-2.1.1-3.7-1.4-4.5-3.2" style="opacity:.8"/><path d="m2688 53c-.3-1.3.1-2.1 1.4-2.4.5 1.3.1 2.1-1.4 2.4" style="opacity:.8"/><path d="m233 54c-1.7-.3-.8-2.9.7-2.3-.2.6-.5 1.8-.7 2.3" style="opacity:.8"/><path d="m767 54c-1.2 2.5-3.9-2.2-1.1-2.1.3.5.9 1.6 1.1 2.1" style="opacity:.8"/><path d="m1135 52c1.5 0 1.2 2.4-.2 2.4-1.5 0-1.3-2.4.2-2.4" style="opacity:.8"/><path d="m1232 51.8c1.4-.1 2 .6 1.8 2-1.4 0-2-.6-1.8-2" style="opacity:.8"/><path d="m1259 52c.4-.1 1.1-.4 1.5-.6 1.8 1.7-1.7 3.1-1.5.6" style="opacity:.8"/><path d="m1708 54c-1.7-.3-.8-2.9.7-2.3-.2.6-.5 1.8-.7 2.3" style="opacity:.8"/><path d="m2242 54c-1.2 2.5-3.9-2.2-1.1-2.1.3.5.8 1.6 1.1 2.1" style="opacity:.8"/><path d="m2610 52c1.5 0 1.2 2.4-.2 2.4-1.6 0-1.3-2.4.2-2.4" style="opacity:.8"/><path d="m2707 51.7c1.4-.1 2 .6 1.8 2.1-1.4 0-2-.7-1.8-2.1" style="opacity:.8"/><path d="m2734 52c.4-.1 1.1-.4 1.5-.6 1.8 1.7-1.7 3.1-1.5.6" style="opacity:.8"/><path d="m234 54.9c0-1.2.7-2 2-2.2-.3.6-1 1.9-1.3 2.6l-.7-.4" style="opacity:.8"/><path d="m324 55c-1.4 1-2.6-1.1-1.4-2.1.3.5 1.1 1.5 1.4 2.1" style="opacity:.8"/><path d="m325 54.8c.6-1.5 3.3-3.5 3.9-.9-1.1.8-2.6.8-3.9.9" style="opacity:.8"/><path d="m332 52.6c1 .3 1.6 1 1.9 2-1.8.4-2.4-.3-1.9-2" style="opacity:.8"/><path d="m729 53c1.7 0 3.5-.3 5 .7-1.5 1.5-4.1 1.5-5-.7" style="opacity:.8"/><path d="m758 53.6c.4-.2 1.3-.7 1.7-.9.3 1 .5 2 .7 3-.3.1-1.1.3-1.4.4-.3-.6-.8-1.9-1-2.5" style="opacity:.8"/><path d="m951 55c.4-1.5 1.8-2.5 3.4-2.5.1 1.8-1.8 2.9-3.4 2.5" style="opacity:.8"/><path d="m1709 54.9c0-1.2.6-2 2-2.2-.3.6-1 1.9-1.3 2.6l-.7-.4" style="opacity:.8"/><path d="m1799 55c-1.4 1-2.6-1.1-1.4-2.1.4.5 1 1.5 1.4 2.1" style="opacity:.8"/><path d="m1800 54.8c.6-1.5 3.3-3.5 3.9-.9-1.1.8-2.6.8-3.9.9" style="opacity:.8"/><path d="m1807 52.6c.9.3 1.6 1 1.9 2-1.8.4-2.4-.3-1.9-2" style="opacity:.8"/><path d="m2204 53c1.6 0 3.5-.3 5 .7-1.5 1.5-4.1 1.5-5-.7" style="opacity:.8"/><path d="m2233 53.6c.4-.2 1.3-.7 1.7-.9.2 1 .5 2 .7 3-.4.1-1.1.3-1.4.4-.3-.6-.8-1.9-1-2.5" style="opacity:.8"/><path d="m2426 55c.4-1.5 1.8-2.5 3.4-2.5.1 1.8-1.8 2.9-3.4 2.5" style="opacity:.8"/><path d="m226 55c.3-1.3 1.1-1.9 2.5-1.8-.3 1.6-1.2 2.2-2.5 1.8" style="opacity:.8"/><path d="m744 55c.5-1.4 3.4-2.2 3.4-.1-1.1.5-2.2.6-3.4.1" style="opacity:.8"/><path d="m933 53.8c1.4-.1 2.8 2.1.9 2.5-.2-.6-.7-1.9-.9-2.5" style="opacity:.8"/><path d="m1225 55c-.5 2.4-3.8.7-2.1-1.1.5.3 1.6.8 2.1 1.1" style="opacity:.8"/><path d="m1701 55c.2-1.3 1.1-1.9 2.5-1.8-.3 1.6-1.2 2.2-2.5 1.8" style="opacity:.8"/><path d="m2219 55c.5-1.4 3.4-2.2 3.4-.1-1.1.5-2.2.6-3.4.1" style="opacity:.8"/><path d="m2408 53.8c1.4-.1 2.8 2.1.9 2.5-.2-.6-.7-1.9-.9-2.5" style="opacity:.8"/><path d="m2700 54.8c-.9 2.2-3.9 1-2.2-1 .5.3 1.6.8 2.2 1" style="opacity:.8"/><path d="m796 56c-1-2 2.2-1.5 2.6-.1-.6 0-1.9.1-2.6.1" style="opacity:.8"/><path d="m846 58c0-2.2 2.3-2.9 4-3.4-.8 1.6-1.9 3.4-4 3.4" style="opacity:.8"/><path d="m1059 55c1.5-.6 3.2-.2 4.2 1.1-1.5.5-3.2.1-4.2-1.1" style="opacity:.8"/><path d="m1227 56c-1.2-1.9 2.1-1.6 2.6-.3-.6.1-1.9.2-2.6.3" style="opacity:.8"/><path d="m1278 58c-.3-2 1.9-4.5 3.6-2.4-1 1.1-2.2 1.9-3.6 2.4" style="opacity:.8"/><path d="m1300 56c-1.6 1.9-2.9-1.1-.8-1.7.2.4.6 1.2.8 1.7" style="opacity:.8"/><path d="m1311 57c-1.6.3-2.2-2.3-.4-2.4.1.6.3 1.8.4 2.4" style="opacity:.8"/><path d="m2271 56c-1-2 2.1-1.5 2.6-.1-.6 0-1.9.1-2.6.1" style="opacity:.8"/><path d="m2321 58c-.1-2.2 2.3-2.9 4-3.4-.8 1.6-2 3.4-4 3.4" style="opacity:.8"/><path d="m2534 55c1.5-.6 3.2-.2 4.2 1.1-1.6.5-3.2.1-4.2-1.1" style="opacity:.8"/><path d="m2702 56c-1.2-1.9 2-1.6 2.6-.3-.6.1-1.9.2-2.6.3" style="opacity:.8"/><path d="m2753 58c-.3-2 1.9-4.5 3.6-2.4-1 1.1-2.3 1.9-3.6 2.4" style="opacity:.8"/><path d="m2775 56c-1.6 1.9-3-1.1-.8-1.7.2.4.6 1.2.8 1.7" style="opacity:.8"/><path d="m2786 57c-1.6.3-2.2-2.3-.4-2.4.1.6.3 1.8.4 2.4" style="opacity:.8"/><path d="m267 55.8c1.6-.5 3.5-.3 4.6 1.1-1.6.7-3.6.3-4.6-1.1" style="opacity:.8"/><path d="m1139 56c1.2-.4 2 .1 2.3 1.3-.6-.2-1.9-.5-2.6-.6l.2-.7" style="opacity:.8"/><path d="m1742 55.8c1.6-.5 3.5-.3 4.6 1.1-1.6.7-3.6.3-4.6-1.1" style="opacity:.8"/><path d="m2614 56c1.2-.4 2 0 2.4 1.3-.7-.1-1.9-.4-2.6-.5l.2-.7" style="opacity:.8"/><path d="m305 57c1.3-.9 2.5 1.1 1.2 1.9-.3-.5-.9-1.4-1.2-1.9" style="opacity:.8"/><path d="m308 60c.5-1.2 1.4-2.2 2.5-2.9 1.4 1.4-.9 4.1-2.5 2.9" style="opacity:.8"/><path d="m371 59c-.2-1.7 2.4-2.8 2.9-.9-.8.8-1.8 1.1-2.9.9" style="opacity:.8"/><path d="m733 58c1.1-2.5 3.4 1.7.7 1.3-.2-.3-.5-1-.7-1.3" style="opacity:.8"/><path d="m755 57c1.2-1.1 2.5.7 1.6 1.8-.4-.5-1.2-1.4-1.6-1.8" style="opacity:.8"/><path d="m759 57c1.2-1.6 3.9 1.3 1.9 2.1-.9-.5-1.5-1.2-1.9-2.1" style="opacity:.8"/><path d="m796 56.9c1.4.1 3.2.9 3 2.5-1.5 0-2.8-1.1-3-2.5" style="opacity:.8"/><path d="m1283 56.9c1.6.3 3.1.9 4.3 2.1-1.9 1.1-3.8-.3-4.3-2.1" style="opacity:.8"/><path d="m1780 57c1.3-.9 2.5 1.1 1.2 1.9-.3-.5-.9-1.4-1.2-1.9" style="opacity:.8"/><path d="m1783 60c.5-1.2 1.4-2.2 2.5-2.9 1.3 1.4-.9 4.1-2.5 2.9" style="opacity:.8"/><path d="m1846 59c-.2-1.7 2.4-2.8 2.9-.9-.9.8-1.8 1.1-2.9.9" style="opacity:.8"/><path d="m2208 58c1.1-2.5 3.4 1.7.7 1.3-.2-.3-.5-1-.7-1.3" style="opacity:.8"/><path d="m2230 57c1.2-1.1 2.4.7 1.6 1.8-.4-.5-1.2-1.4-1.6-1.8" style="opacity:.8"/><path d="m2234 57c1.2-1.6 3.8 1.3 1.9 2.1-.9-.5-1.5-1.2-1.9-2.1" style="opacity:.8"/><path d="m2271 56.9c1.3.1 3.1.9 3 2.5-1.5 0-2.8-1.1-3-2.5" style="opacity:.8"/><path d="m2758 56.9c1.6.3 3.1.9 4.3 2.1-1.9 1.1-3.8-.3-4.3-2.1" style="opacity:.8"/><path d="m251 60.8c-.7-1.5 1.2-3.4 2.5-2-.6 1.1-1.4 1.7-2.5 2" style="opacity:.8"/><path d="m257 57.9c1.3 1.9-1.5 3-2.6 1.4.6-.4 1.9-1 2.6-1.4" style="opacity:.8"/><path d="m1106 60c-2-1.6 1.1-3.7 2-1.4-.5.4-1.5 1-2 1.4" style="opacity:.8"/><path d="m1267 61c-.5-1.9 1.9-2.5 3.1-1.3-.8.9-1.9 1.3-3.1 1.3" style="opacity:.8"/><path d="m1726 60.8c-.7-1.5 1.2-3.4 2.5-2-.6 1.1-1.4 1.7-2.5 2" style="opacity:.8"/><path d="m1732 57.9c1.3 1.9-1.5 3-2.6 1.4.6-.4 1.9-1 2.6-1.4" style="opacity:.8"/><path d="m2581 60c-2-1.6 1-3.6 2-1.4-.5.3-1.5 1-2 1.4" style="opacity:.8"/><path d="m2742 61c-.5-1.9 1.9-2.5 3.1-1.3-.9.9-1.9 1.3-3.1 1.3" style="opacity:.8"/><path d="m375 59.7c1.3-1.5 2.6.8 1.7 2-.4-.5-1.3-1.5-1.7-2" style="opacity:.8"/><path d="m1109 60c.2-.3.7-1 .9-1.4 2.4.4.2 3.7-.9 1.4" style="opacity:.8"/><path d="m1115 59.9c-.5-2.1 2.4-1.1 2.7.2-.7-.1-2-.2-2.7-.2" style="opacity:.8"/><path d="m1260 60c2 .5 4.1.8 6.2.9-2.1.2-4.4.4-6.2-.9" style="opacity:.8"/><path d="m1850 59.7c1.3-1.5 2.5.8 1.7 2-.4-.5-1.3-1.5-1.7-2" style="opacity:.8"/><path d="m2584 60c.2-.3.7-1 .9-1.4 2.4.4.2 3.7-.9 1.4" style="opacity:.8"/><path d="m2590 59.9c-.5-2.1 2.4-1.1 2.7.2-.7-.1-2-.2-2.7-.2" style="opacity:.8"/><path d="m2735 60c2 .5 4.1.8 6.2.9-2.1.2-4.4.4-6.2-.9" style="opacity:.8"/><path d="m262 59.8c.4 2.6-2.3 3.4-4.4 3.2 1-1.6 2.6-2.6 4.4-3.2" style="opacity:.8"/><path d="m308 60.9c.1 2.6-4.4.3-2-1 .5.3 1.5.8 2 1" style="opacity:.8"/><path d="m650 60c.5.3 1.4.8 1.9 1.1-.3 2.1-3.5.2-1.9-1.1" style="opacity:.8"/><path d="m802 60c1.5.2 2.1 1 1.9 2.4-1.3-.3-1.9-1.1-1.9-2.4" style="opacity:.8"/><path d="m1177 63c-1.1 2.7-4.7-1.7-1.8-2.2.3 1 .9 1.7 1.8 2.2" style="opacity:.8"/><path d="m1737 59.8c.4 2.6-2.4 3.4-4.4 3.2 1-1.6 2.6-2.6 4.4-3.2" style="opacity:.8"/><path d="m1783 60.9c.1 2.6-4.4.3-2-1 .5.3 1.5.8 2 1" style="opacity:.8"/><path d="m2125 60c.5.3 1.4.8 1.9 1.1-.3 2.1-3.5.2-1.9-1.1" style="opacity:.8"/><path d="m2277 60c1.5.2 2.1 1 1.9 2.4-1.3-.3-1.9-1.1-1.9-2.4" style="opacity:.8"/><path d="m2652 63c-1.1 2.7-4.7-1.7-1.8-2.2.3 1 .9 1.7 1.8 2.2" style="opacity:.8"/><path d="m1227 62c.9-.9 1.8-.9 2.7.1-1 1.1-1.9 1.1-2.7-.1" style="opacity:.8"/><path d="m2702 62c.9-.9 1.8-.9 2.7.1-1 1.1-1.9 1.1-2.7-.1" style="opacity:.8"/><path d="m368 63.9c.1-1.5.9-2.1 2.3-1.8-.2 1.3-1 1.9-2.3 1.8" style="opacity:.8"/><path d="m1843 63.9c.1-1.5.8-2.1 2.3-1.8-.2 1.3-1 1.9-2.3 1.8" style="opacity:.8"/><path d="m342 63.7c.6.2 1.8.6 2.4.8-.8 1-3 .9-2.4-.8" style="opacity:.8"/><path d="m357 63c1.3-.2 3.4.5 2.4 2.2-1.4 0-2.2-.7-2.4-2.2" style="opacity:.8"/><path d="m431 63.9c.7-.2 2.2-.6 2.9-.8-.1 1.6-1.9 1.9-2.9.8" style="opacity:.8"/><path d="m545 63c2.2-.7 4.3.9 4.7 3-1.9-.4-3.7-1.3-4.7-3" style="opacity:.8"/><path d="m555 65c.3-2.5 4.1-2.4 3.6.3-1.2.1-2.5 0-3.6-.3" style="opacity:.8"/><path d="m653 64v-.8c.3 1.4.6 2.9.9 4.3-.8 0-2.3-.1-3.1-.2 0-.8.1-2.3.1-3.1-.3 2.5 2.8 2 2.1-.3" style="opacity:.8"/><path d="m938 63c1.1-.6 2.7 0 3 1.3-1 1.3-2.7 0-3-1.3" style="opacity:.8"/><path d="m1321 63c1.5-1.2 3.1 1.4 1.6 2.4-1.5 1.2-3.1-1.4-1.6-2.4" style="opacity:.8"/><path d="m1817 63.7c.6.2 1.8.6 2.4.8-.8 1-3 .9-2.4-.8" style="opacity:.8"/><path d="m1832 63c1.2-.2 3.4.5 2.4 2.2-1.4 0-2.2-.7-2.4-2.2" style="opacity:.8"/><path d="m1906 63.9c.7-.2 2.2-.6 2.9-.8-.2 1.6-2 1.9-2.9.8" style="opacity:.8"/><path d="m2020 63c2.2-.7 4.2.9 4.7 3-1.9-.4-3.7-1.3-4.7-3" style="opacity:.8"/><path d="m2030 65c.3-2.5 4.1-2.4 3.7.3-1.3.1-2.5 0-3.7-.3" style="opacity:.8"/><path d="m2128 64v-.8c.3 1.4.6 2.9.9 4.3-.8 0-2.3-.1-3.1-.2 0-.8.1-2.3.1-3.1-.3 2.5 2.8 2 2.1-.3" style="opacity:.8"/><path d="m2413 63c1.1-.6 2.7 0 3 1.3-1 1.3-2.8 0-3-1.3" style="opacity:.8"/><path d="m2796 63c1.4-1.2 3.1 1.4 1.6 2.4-1.5 1.2-3.2-1.4-1.6-2.4" style="opacity:.8"/><path d="m379 65c.6-1.6 2.7-1 3.5 0-1.3.9-2.4.8-3.5 0" style="opacity:.8"/><path d="m455 65c1.2-.1 2.4-.1 3.6-.1-1.5 1.1-3 2.2-4.6 3.2.9-.9.8-1.7-.3-2.4.3-.2.9-.5 1.3-.7" style="opacity:.8"/><path d="m808 64c1.5.2 2.4 1.5 2.9 2.8-1.4-.2-3.3-1.1-2.9-2.8" style="opacity:.8"/><path d="m1854 65c.6-1.6 2.6-1 3.5 0-1.3.9-2.5.8-3.5 0" style="opacity:.8"/><path d="m1930 65c1.2-.1 2.4-.1 3.6-.1-1.5 1.1-3 2.2-4.6 3.2.8-.9.7-1.7-.3-2.4.3-.2.9-.5 1.3-.7" style="opacity:.8"/><path d="m2283 64c1.5.2 2.4 1.5 2.9 2.8-1.5-.2-3.3-1.1-2.9-2.8" style="opacity:.8"/><path d="m441 65.9c.6-.1 1.9-.4 2.5-.6 0 1.4-2.6 2.7-2.5.6" style="opacity:.8"/><path d="m461 64.9c1.4.1 2 .9 1.8 2.4-1.4-.3-2-1.1-1.8-2.4" style="opacity:.8"/><path d="m529 65c1.3-.5 2.1-.1 2.5 1.2-1.3.6-2.1.2-2.5-1.2" style="opacity:.8"/><path d="m1113 65c.9 0 1.9 0 2.8 0 1 2.8-2.9 2.6-2.8 0" style="opacity:.8"/><path d="m1213 65c1.5-.3 2.2.3 2.2 1.8-1.3.1-2-.5-2.2-1.8" style="opacity:.8"/><path d="m1916 65.9c.6-.1 1.9-.4 2.5-.6 0 1.4-2.6 2.7-2.5.6" style="opacity:.8"/><path d="m1936 64.9c1.4.1 2 .9 1.8 2.4-1.4-.3-2-1.1-1.8-2.4" style="opacity:.8"/><path d="m2004 65c1.3-.5 2.1-.1 2.5 1.2-1.3.6-2.2.2-2.5-1.2" style="opacity:.8"/><path d="m2588 65c.9 0 1.8 0 2.8.1 1 2.9-3 2.5-2.8-.1" style="opacity:.8"/><path d="m2688 65c1.5-.3 2.2.3 2.3 1.7-1.3.2-2-.4-2.3-1.7" style="opacity:.8"/><path d="m562 67.9c-1.9 1.4-4.1-.2-3.3-2.4 1.4.3 2.6 1.2 3.3 2.4" style="opacity:.8"/><path d="m1129 69c-.4-1.2-.2-2.4.7-3.5.9 1 1.3 3.5-.7 3.5" style="opacity:.8"/><path d="m2037 67.9c-1.9 1.4-4.1-.2-3.3-2.4 1.4.3 2.5 1.2 3.3 2.4" style="opacity:.8"/><path d="m2604 69c-.5-1.2-.2-2.4.7-3.5.9 1 1.3 3.5-.7 3.5" style="opacity:.8"/><path d="m737 70c.2-1.6 1.5-3.1 3.2-2.9-.1 1.7-1.6 2.8-3.2 2.9" style="opacity:.8"/><path d="m811 66.8c1.3.6 1.7 1.6 1.2 2.8-1.3-.5-1.7-1.4-1.2-2.8" style="opacity:.8"/><path d="m2212 70c.2-1.6 1.5-3.1 3.2-2.9-.1 1.7-1.6 2.8-3.2 2.9" style="opacity:.8"/><path d="m2286 66.8c1.3.7 1.7 1.6 1.2 2.9-1.3-.5-1.7-1.5-1.2-2.9" style="opacity:.8"/><path d="m721 69.9c-.2-3.9 4.7.1.6.4l-.6-.4" style="opacity:.8"/><path d="m2196 69.9c-.3-3.9 4.7.1.6.4l-.6-.4" style="opacity:.8"/><path d="m1432 68c1.4.3 2.1 1.2 1.9 2.5-1.4-.3-2-1.1-1.9-2.5" style="opacity:.8"/><path d="m2907 68c1.4.3 2.1 1.2 1.9 2.5-1.4-.3-2-1.1-1.9-2.5" style="opacity:.8"/><path d="m710 72c.3-1.3 1.1-1.8 2.5-1.5-.3 1.4-1.1 1.9-2.5 1.5" style="opacity:.8"/><path d="m734 72c-.1-1.4.6-2.2 2.1-2.3-.1 1.3-.8 2.1-2.1 2.3" style="opacity:.8"/><path d="m813 69.8c2.3 1 5.9 1.2 6.2 4.4-2.1-1.4-4.1-2.9-6.2-4.4" style="opacity:.8"/><path d="m2185 71.9c.3-1.3 1.2-1.8 2.6-1.8-.3 1.5-1.2 2.1-2.6 1.8" style="opacity:.8"/><path d="m2209 72c-.2-1.4.5-2.2 2.1-2.3-.1 1.3-.8 2.1-2.1 2.3" style="opacity:.8"/><path d="m2288 69.9c2.2.8 4.6 1.5 6.7 2.5-.1.4-.3 1.3-.3 1.7-2.2-1.4-4.3-2.8-6.4-4.2" style="opacity:.8"/><path d="m565 72c2.3-1.6 4.3.7 4.8 2.9-1.7-.7-3.5-1.4-4.8-2.9" style="opacity:.8"/><path d="m720 72c-.6 4-4.8-1.1-.7-1 .2.2.6.7.7 1" style="opacity:.8"/><path d="m759 70.8c.3.5 1 1.4 1.3 1.8-1 1.8-3.2-1.2-1.3-1.8" style="opacity:.8"/><path d="m800 71c1.6-.1 3.2-.2 4.8-.1 0 2.4-4.7 2.5-4.8.1" style="opacity:.8"/><path d="m1107 71l.6.2c1.9.7 3.9 1 6 1.2v.2c-1.5.9-3.1 1.7-4.7 2.4-.7-1.3-1.3-2.7-1.9-4" style="opacity:.8"/><path d="m2040 72c2.3-1.5 4.3.6 4.7 2.9-1.7-.8-3.5-1.5-4.7-2.9" style="opacity:.8"/><path d="m2195 72c-.6 4-4.8-1.1-.7-1 .2.2.6.7.7 1" style="opacity:.8"/><path d="m2234 70.8c.3.5 1 1.4 1.3 1.8-1 1.8-3.2-1.2-1.3-1.8" style="opacity:.8"/><path d="m2275 71c1.6-.1 3.2-.2 4.8-.1 0 2.4-4.7 2.5-4.8.1" style="opacity:.8"/><path d="m2582 71l.6.2c1.9.7 3.9 1 6 1.2v.2c-1.5.9-3.2 1.7-4.7 2.4-.7-1.3-1.3-2.7-1.9-4" style="opacity:.8"/><path d="m176 72c1.3 0 2 .7 2.2 2.1-1.5 0-2.3-.8-2.2-2.1" style="opacity:.8"/><path d="m1651 72c1.3 0 2 .7 2.2 2.1-1.6 0-2.3-.8-2.2-2.1" style="opacity:.8"/><path d="m391 73c1.3.1 2.7.4 4 .8-.9 2.5-3.9 1.7-4-.8" style="opacity:.8"/><path d="m715 75c-.4-1.3 0-2.2 1.2-2.7 1.8.2.3 2.2-.6 2.6h-.6" style="opacity:.8"/><path d="m729 76c.2-1.6 1.1-3.2 2.9-3.3.2 1.7-1.2 3.2-2.9 3.3" style="opacity:.8"/><path d="m1866 73c1.3.1 2.6.4 4 .8-1 2.5-3.9 1.7-4-.8" style="opacity:.8"/><path d="m2190 75c-.4-1.3 0-2.2 1.2-2.7 1.8.2.3 2.2-.6 2.6h-.6" style="opacity:.8"/><path d="m2204 76c.1-1.6 1.1-3.2 2.8-3.3.2 1.7-1.2 3.2-2.8 3.3" style="opacity:.8"/><path d="m821 77c.5-2.2 2.9-2.6 4.7-1.7-1.4 1-2.9 2.1-4.7 1.7" style="opacity:.8"/><path d="m1146 76c1.5-.6 3-1.2 4.5-1.8l-.6.8c-1.5 2-3 4.2-5.1 5.7.1-.4.3-1.3.4-1.7.2-1 .5-2 .7-3" style="opacity:.8"/><path d="m1415 76c.9-1.8 3.2-2 4.7-.9-1.3 1.1-3.1 1.7-4.7.9" style="opacity:.8"/><path d="m1441 74c2.3-1.5 4.4.4 5.3 2.5-2-.4-3.8-1.2-5.3-2.5" style="opacity:.8"/><path d="m2296 77c.4-2.3 2.9-2.6 4.7-1.7-1.4 1-2.9 2.1-4.7 1.7" style="opacity:.8"/><path d="m2621 76c1.5-.6 3-1.2 4.5-1.8l-.6.8c-1.5 2-3 4.2-5.1 5.7.1-.4.3-1.3.4-1.7.2-1 .4-2 .7-3" style="opacity:.8"/><path d="m2890 76c.9-1.8 3.1-2 4.7-.9-1.3 1.1-3.1 1.7-4.7.9" style="opacity:.8"/><path d="m2916 74c2.2-1.5 4.4.4 5.3 2.5-2-.4-3.8-1.2-5.3-2.5" style="opacity:.8"/><path d="m471 75c1.4 0 2.3.5 2.7 1.8-1.3 1.4-2.9-.3-2.7-1.8" style="opacity:.8"/><path d="m762 75c1.7-.4 2.3.3 1.9 2-1.1-.3-1.7-.9-1.9-2" style="opacity:.8"/><path d="m826 75c1.1.2 1.8.8 2.1 1.9-.3.5-.8 1.4-1 1.9-.4-.3-1.1-.9-1.4-1.1.1-.7.2-2 .3-2.6" style="opacity:.8"/><path d="m848 76c.9-.5 1.9-.9 2.9-1 1.5 1.8-2.1 2.5-2.9 1" style="opacity:.8"/><path d="m1141 75c1.5.8 1.5 2.7.2 3.7-1.3-.6-1.5-2.9-.2-3.7" style="opacity:.8"/><path d="m1946 75c1.4 0 2.3.5 2.7 1.8-1.3 1.4-2.9-.3-2.7-1.8" style="opacity:.8"/><path d="m2237 75c1.6-.4 2.3.3 1.9 2-1.1-.3-1.7-.9-1.9-2" style="opacity:.8"/><path d="m2301 75c1.1.2 1.8.8 2.2 1.9-.3.5-.8 1.4-1 1.9-.4-.3-1.1-.9-1.4-1.1.1-.7.2-2 .3-2.6" style="opacity:.8"/><path d="m2323 76c.9-.6 1.8-.9 2.9-1 1.5 1.8-2.2 2.5-2.9 1" style="opacity:.8"/><path d="m2616 75c1.5.8 1.5 2.7.2 3.7-1.3-.6-1.5-2.9-.2-3.7" style="opacity:.8"/><path d="m179 78c.5-.4 1.6-1.1 2.1-1.5 1.7 1.3-1 2.4-2.1 1.5" style="opacity:.8"/><path d="m739 79c-1.3-1.3 1-3.5 2.4-2.3-.6 1-1.3 1.9-2.4 2.3" style="opacity:.8"/><path d="m1233 76c1.3-1.1 2.7.9 1.6 1.9-.4-.5-1.2-1.5-1.6-1.9" style="opacity:.8"/><path d="m1654 78c.5-.4 1.6-1.1 2.1-1.5 1.7 1.3-1 2.4-2.1 1.5" style="opacity:.8"/><path d="m2214 79c-1.3-1.3 1-3.5 2.4-2.3-.6 1-1.3 1.9-2.4 2.3" style="opacity:.8"/><path d="m2708 76c1.2-1.2 2.6.8 1.6 1.9-.4-.5-1.2-1.4-1.6-1.9" style="opacity:.8"/><path d="m404 81c-.3-1.9.6-4 2.6-4.3 0 1.8-.9 3.6-2.6 4.3" style="opacity:.8"/><path d="m1206 78c.7-1.4 3.7-.8 3.3 1-1.2.4-2.3-.4-3.3-1" style="opacity:.8"/><path d="m1879 81c-.3-1.9.6-4 2.6-4.3-.1 1.8-1 3.6-2.6 4.3" style="opacity:.8"/><path d="m2681 78c.7-1.4 3.7-.8 3.3 1-1.2.4-2.3-.4-3.3-1" style="opacity:.8"/><path d="m502 79c.7-1.6 2.7-1.2 4-.7-1.1.9-2.7 1.7-4 .7" style="opacity:.8"/><path d="m717 79c2.6.1 5.2.2 7.8.3-1.7.1-5.1.3-6.8.4-.3-.2-.8-.5-1-.7" style="opacity:.8"/><path d="m1449 78c1.2.2 2.7.9 2.7 2.3-1.5.6-3-.8-2.7-2.3" style="opacity:.8"/><path d="m1462 80c.2-2.6 2.8-3.3 4.8-2.2-1.6.9-3.2 1.6-4.8 2.2" style="opacity:.8"/><path d="m1468 78c1.3-.8 2.6.9 1.8 2.1-.5-.5-1.4-1.6-1.8-2.1" style="opacity:.8"/><path d="m1977 79c.7-1.6 2.6-1.2 4-.7-1.1.9-2.7 1.7-4 .7" style="opacity:.8"/><path d="m2192 79c2.5.1 5.2.2 7.8.3-1.7.1-5.1.3-6.8.4-.3-.2-.8-.5-1-.7" style="opacity:.8"/><path d="m2924 78c1.2.2 2.6.9 2.7 2.3-1.5.6-3-.8-2.7-2.3" style="opacity:.8"/><path d="m2937 80c.2-2.6 2.7-3.3 4.8-2.2-1.6.9-3.2 1.6-4.8 2.2" style="opacity:.8"/><path d="m2943 78c1.3-.8 2.6.9 1.8 2.1-.5-.5-1.4-1.6-1.8-2.1" style="opacity:.8"/><path d="m173 80c.6-.2 1.9-.6 2.5-.8 0 1.4-2.4 2.8-2.5.8" style="opacity:.8"/><path d="m244 80c.2 2.8-4.5.1-1.9-1 .5.3 1.4.8 1.9 1" style="opacity:.8"/><path d="m711 79c.4 0 1.2 0 1.6 0 .1.4.4 1 .5 1.4-.6.1-1.8.3-2.4.4.1-.5.3-1.4.4-1.9" style="opacity:.8"/><path d="m841 81c-1.7.1-1.7-2.3-.1-2.4 0 .6.1 1.8.1 2.4" style="opacity:.8"/><path d="m1400 81c2.5-1.1 5.1-1.1 7.2.8-.5 1.3-.9 2.7-1.2 4-.6-1.9-1.2-3.7-1.8-5.5-1.4.2-2.8.5-4.2.7" style="opacity:.8"/><path d="m1648 80c.6-.2 1.9-.6 2.5-.8 0 1.4-2.4 2.8-2.5.8" style="opacity:.8"/><path d="m1719 80c.2 2.8-4.5.1-1.9-1 .5.3 1.4.8 1.9 1" style="opacity:.8"/><path d="m2186 79c.4 0 1.2 0 1.6 0 .1.4.4 1 .5 1.4-.6.1-1.8.3-2.4.4.1-.5.3-1.4.4-1.9" style="opacity:.8"/><path d="m2316 81c-1.7.1-1.7-2.3-.1-2.4 0 .6.1 1.8.1 2.4" style="opacity:.8"/><path d="m2875 81c2.5-1.1 5.1-1.1 7.2.8-.5 1.3-.9 2.7-1.2 4-.6-1.9-1.2-3.7-1.8-5.5-1.4.2-2.8.5-4.2.7" style="opacity:.8"/><path d="m644 80c1.4.2 2.1 1 2.1 2.3-1.4 0-2.1-.8-2.1-2.3" style="opacity:.8"/><path d="m1458 80c1.3 0 2.5.7 3.5 1.5-1.1 1.9-3.7.4-3.5-1.5" style="opacity:.8"/><path d="m2119 80c1.4.3 2.1 1 2.1 2.3-1.4 0-2.1-.8-2.1-2.3" style="opacity:.8"/><path d="m2933 80c1.3 0 2.5.7 3.5 1.5-1.1 1.9-3.7.4-3.5-1.5" style="opacity:.8"/><path d="m705 83c-.9-1.5 1.4-2.5 2.7-2.3-.2 1.3-1.4 2.3-2.7 2.3" style="opacity:.8"/><path d="m2180 83c-.9-1.5 1.4-2.5 2.7-2.3-.3 1.3-1.4 2.3-2.7 2.3" style="opacity:.8"/><path d="m399 84c-2.1-1.6 1.4-3.2 1.4-.7-.4.2-1.1.5-1.4.7" style="opacity:.8"/><path d="m567 82c1.5-1.2 3.1 1.4 1.6 2.4-1.5 1.2-3.1-1.4-1.6-2.4" style="opacity:.8"/><path d="m637 86c1.9-1.5 3.8-2.9 5.9-4.2l.5 1.1c-2.1 1.1-4.2 2.1-6.3 3.1" style="opacity:.8"/><path d="m647 82c.7 0 2.1 0 2.8 0 .1 1.9-2.4 1.3-2.8 0" style="opacity:.8"/><path d="m1209 81.9c2.7.1-.3 3.8-.9 1.2.2-.3.7-.9.9-1.2" style="opacity:.8"/><path d="m1225 84c.2-1.4 1-2.1 2.4-2.1-.3 1.4-1.1 2.1-2.4 2.1" style="opacity:.8"/><path d="m1874 84c-2.1-1.6 1.4-3.2 1.4-.7-.4.2-1.1.5-1.4.7" style="opacity:.8"/><path d="m2042 82c1.4-1.2 3.1 1.4 1.6 2.4-1.5 1.2-3.1-1.4-1.6-2.4" style="opacity:.8"/><path d="m2112 86c1.9-1.5 3.8-2.9 5.8-4.2l.5 1.1c-2.1 1.1-4.2 2.1-6.3 3.1" style="opacity:.8"/><path d="m2122 82c.7 0 2.1 0 2.8 0 .1 1.9-2.4 1.3-2.8 0" style="opacity:.8"/><path d="m2684 81.9c2.7.1-.3 3.8-.9 1.2.2-.3.7-.9.9-1.2" style="opacity:.8"/><path d="m2700 84c.2-1.4 1-2.1 2.5-2.1-.3 1.4-1.1 2.1-2.5 2.1" style="opacity:.8"/><path d="m59.9 86c.1-1.5.9-2 2.3-1.6-.1 1.3-.9 1.8-2.3 1.6" style="opacity:.8"/><path d="m71 86c1.1-1.4 3-2.4 4.8-1.6-1.1 1.6-3.1 1.7-4.8 1.6" style="opacity:.8"/><path d="m163 87c-.5-2.4 3-3.6 3.3-.8-1 .6-2.1.9-3.3.8" style="opacity:.8"/><path d="m1535 86c.1-1.5.8-2 2.3-1.6-.2 1.3-.9 1.8-2.3 1.6" style="opacity:.8"/><path d="m1546 86c1.1-1.4 3-2.4 4.8-1.6-1.1 1.6-3.1 1.7-4.8 1.6" style="opacity:.8"/><path d="m1638 87c-.5-2.4 3-3.6 3.3-.8-1 .6-2.1.9-3.3.8" style="opacity:.8"/><path d="m80 85c1.4-.5 2.4-.1 3.2 1.1-1.3.5-2.4.1-3.2-1.1" style="opacity:.8"/><path d="m121 87c.6-1.9 3.1-2.3 3.9-.4-1.2.7-2.6.6-3.9.4" style="opacity:.8"/><path d="m724 87c.9-.6 2.4-.9 3.2.2l-.2.8c-.3.3-.7.9-1 1.2-.8-.6-1.5-1.3-2-2.2" style="opacity:.8"/><path d="m1225 85c1.7.3 1.5 2.4.1 2.9 0-.7-.1-2.1-.1-2.9" style="opacity:.8"/><path d="m1555 85c1.4-.5 2.4-.1 3.2 1.1-1.4.5-2.5.1-3.2-1.1" style="opacity:.8"/><path d="m1596 87c.5-1.9 3.1-2.3 3.9-.4-1.2.7-2.6.6-3.9.4" style="opacity:.8"/><path d="m2199 87c.9-.6 2.4-.9 3.2.2l-.2.8c-.3.3-.7.9-1 1.2-.8-.6-1.5-1.3-2-2.2" style="opacity:.8"/><path d="m2700 85c1.6.3 1.5 2.4.1 2.9 0-.7-.1-2.2-.1-2.9" style="opacity:.8"/><path d="m126 88c.4-.9 1-1.8 1.7-2.5 1.3 1.2-.3 4.4-1.7 2.5" style="opacity:.8"/><path d="m477 86c1.4 1.7-.8 3.6-2.5 3.2.5-1.3 1.3-2.5 2.5-3.2" style="opacity:.8"/><path d="m627 86c1.3.4 2 1.3 2 2.7-1.5-.3-2.1-1.2-2-2.7" style="opacity:.8"/><path d="m732 89c-2.3.1-1.1-4 .8-2.8-.4.9-.7 1.8-.8 2.8" style="opacity:.8"/><path d="m1601 88c.4-.9.9-1.8 1.7-2.5 1.3 1.2-.3 4.4-1.7 2.5" style="opacity:.8"/><path d="m1952 86c1.4 1.7-.8 3.6-2.5 3.2.5-1.3 1.3-2.5 2.5-3.2" style="opacity:.8"/><path d="m2102 86c1.3.4 2 1.3 2 2.7-1.5-.3-2.2-1.2-2-2.7" style="opacity:.8"/><path d="m2207 89c-2.3.1-1.1-4 .8-2.8-.4.9-.7 1.8-.8 2.8" style="opacity:.8"/><path d="m744 87c.7.9.5 2.7-1 2.5.3-.6.8-1.9 1-2.5" style="opacity:.8"/><path d="m1139 87c1-.3 2.1-.4 3.2-.2.5 1.9-3.4 2.2-3.2.2" style="opacity:.8"/><path d="m1143 87c1.3 0 2.7 0 4 .3.1 2-4.2 1.7-4-.3" style="opacity:.8"/><path d="m2219 87c.7.9.5 2.7-1 2.5.3-.6.8-1.9 1-2.5" style="opacity:.8"/><path d="m2614 87c1-.3 2-.4 3.2-.2.5 1.9-3.4 2.2-3.2.2" style="opacity:.8"/><path d="m2618 87c1.3 0 2.6 0 4 .3.1 2-4.2 1.7-4-.3" style="opacity:.8"/><path d="m1157 90c-2.2-.6.3-3.9 1.7-2.2-.5.8-1 1.5-1.7 2.2" style="opacity:.8"/><path d="m2632 90c-2.3-.6.3-3.9 1.7-2.2-.5.8-1.1 1.5-1.7 2.2" style="opacity:.8"/><path d="m102 91c-.1-1.8 2.7-1.7 2.5.1-.6 0-1.9-.1-2.5-.1" style="opacity:.8"/><path d="m1577 91c-.1-1.8 2.7-1.7 2.5.1-.6 0-1.9-.1-2.5-.1" style="opacity:.8"/><path d="m42 91c.6-1.3 2.6-1.3 2.7.4-.7-.1-2-.3-2.7-.4" style="opacity:.8"/><path d="m46 90c2.2.9 0 4.8-1 2 .3-.5.8-1.5 1-2" style="opacity:.8"/><path d="m108 90c1.5-.8 2.4 1.7.9 2.2-.2-.6-.7-1.7-.9-2.2" style="opacity:.8"/><path d="m742 90c.5.2 1.6.6 2.1.8.1 2-3.3.8-2.1-.8" style="opacity:.8"/><path d="m1129 91c.5-.2 1.5-.6 2.1-.7 1.4 1.6-2.2 2.9-2.1.7" style="opacity:.8"/><path d="m1517 91c.6-1.3 2.6-1.3 2.7.3-.7-.1-2-.3-2.7-.3" style="opacity:.8"/><path d="m1521 90c2.2.9 0 4.8-1 2 .3-.5.8-1.5 1-2" style="opacity:.8"/><path d="m1583 90c1.5-.7 2.4 1.7.9 2.2-.2-.6-.7-1.7-.9-2.2" style="opacity:.8"/><path d="m2217 90c.5.2 1.6.6 2.1.8.1 2-3.3.8-2.1-.8" style="opacity:.8"/><path d="m2604 91c.5-.2 1.6-.6 2.1-.7 1.4 1.6-2.3 2.9-2.1.7" style="opacity:.8"/><path d="m138 91c1 1.1 1.1 2.1.2 3.2-1-.9-1.1-2-.2-3.2" style="opacity:.8"/><path d="m1491 92c2-1 4.5-.3 5.2 2-1.9-.1-3.9-.6-5.2-2" style="opacity:.8"/><path d="m1613 91c1 1.1 1.1 2.1.2 3.2-1-.9-1.1-2-.2-3.2" style="opacity:.8"/><path d="m2966 92c2-1 4.5-.3 5.2 2-2 0-3.9-.6-5.2-2" style="opacity:.8"/><path d="m115 92c1.6.2 2.6 3.2.5 3.2-.6-1-.7-2.1-.5-3.2" style="opacity:.8"/><path d="m143 93c.6-1.6 2.8-.5 2.3 1-.6-.2-1.7-.7-2.3-1" style="opacity:.8"/><path d="m477 96c-.6-1.4-1.3-2.9-1-4.4 2.6.2 2.6 2.9 1 4.4" style="opacity:.8"/><path d="m601 94c-1.5.6-2.2-1.6-1-2.3.3.6.7 1.7 1 2.3" style="opacity:.8"/><path d="m1218 93c.7-2.1 3.5-.7 1.6.9-.4-.2-1.2-.6-1.6-.9" style="opacity:.8"/><path d="m1590 92c1.6.2 2.6 3.2.5 3.2-.6-1-.8-2.1-.5-3.2" style="opacity:.8"/><path d="m1618 93c.5-1.6 2.8-.5 2.3 1-.6-.2-1.7-.7-2.3-1" style="opacity:.8"/><path d="m1952 96c-.6-1.4-1.3-2.9-1-4.4 2.6.2 2.5 2.9 1 4.4" style="opacity:.8"/><path d="m2076 94c-1.6.6-2.2-1.6-1-2.3.2.6.7 1.7 1 2.3" style="opacity:.8"/><path d="m2693 93c.6-2.1 3.5-.7 1.7.9-.4-.2-1.2-.6-1.7-.9" style="opacity:.8"/><path d="m574 96c-1.3-1-.5-3 .9-3.5.4 1.2.3 2.8-.9 3.5" style="opacity:.8"/><path d="m607 96c-2.5.8-2.4-3.9 0-3.1-.1 1-.1 2.1 0 3.1" style="opacity:.8"/><path d="m2049 96c-1.5-.9-.3-3 .9-3.5.3 1.2.2 2.8-.9 3.5" style="opacity:.8"/><path d="m2082 96c-2.5.8-2.4-3.9 0-3.1-.1 1-.1 2.1 0 3.1" style="opacity:.8"/><path d="m152 97c-1.6-.2-1.2-2.3.2-2.6 0 .6-.1 2-.2 2.6" style="opacity:.8"/><path d="m856 94c1-2.3 3.5 1.7.9 1.4-.2-.3-.7-1-.9-1.4" style="opacity:.8"/><path d="m1161 97c-.3-1-.1-1.9.6-2.7 1.2 1.3 1 2.2-.6 2.7" style="opacity:.8"/><path d="m1474 94c.6.3 1.9 1 2.5 1.4-1.2 1.1-2.9.2-2.5-1.4" style="opacity:.8"/><path d="m1627 97c-1.7-.2-1.2-2.3.2-2.6 0 .6-.1 2-.2 2.6" style="opacity:.8"/><path d="m2331 94c.9-2.3 3.4 1.7.9 1.4-.2-.3-.7-1-.9-1.4" style="opacity:.8"/><path d="m2636 97c-.4-1-.2-1.9.6-2.7 1.2 1.3 1 2.2-.6 2.7" style="opacity:.8"/><path d="m2949 94c.6.3 1.9 1 2.5 1.4-1.2 1.1-2.9.2-2.5-1.4" style="opacity:.8"/><path d="m35 98c-1.8-.9-.5-2.8 1-3.1.4 1.3 0 2.3-1 3.1" style="opacity:.8"/><path d="m145 95c1.3.4 1.9 1.2 1.8 2.4-1.4 0-2-.8-1.8-2.4" style="opacity:.8"/><path d="m1510 99c-1.1-1.4-.3-3.2 1.4-3.5.1 1.4-.4 2.5-1.4 3.5" style="opacity:.8"/><path d="m1620 95c1.3.4 1.9 1.2 1.8 2.4-1.4 0-2-.8-1.8-2.4" style="opacity:.8"/><path d="m477 96c1.2-.4 3.1.3 3.2 1.8-1.3.5-2.9-.4-3.2-1.8" style="opacity:.8"/><path d="m1220 99c-.3-1.4.4-2.3 1.9-2.6-.1 1.4-.7 2.2-1.9 2.6" style="opacity:.8"/><path d="m1952 96c1.2-.4 3 .3 3.2 1.7-1.3.5-3-.3-3.2-1.7" style="opacity:.8"/><path d="m2695 99c-.3-1.4.3-2.3 1.9-2.6-.1 1.4-.7 2.2-1.9 2.6" style="opacity:.8"/><path d="m644 97c1.1.3 2 .9 2.8 1.8-1.2 1.5-3.5 0-2.8-1.8" style="opacity:.8"/><path d="m745 99c3.5-.8 7.1-.9 10.7 0l.8.1c-3 0-9.1 0-12 .1l.7-.1" style="opacity:.8"/><path d="m1505 97c1.4.7 2.8 1.5 4.1 2.4-1.7 2.5-4.5-.1-4.1-2.4" style="opacity:.8"/><path d="m2119 97c1.1.3 2 .9 2.7 1.8-1.3 1.5-3.5-.1-2.7-1.8" style="opacity:.8"/><path d="m2220 99c3.5-.8 7.1-.9 10.7 0l.8.1c-3 0-9.1 0-12 .1l.7-.1" style="opacity:.8"/><path d="m2980 97c1.7 1.5 3.4 3 5.1 4.4-.9 0-1.9.1-2.8.2-.8-1.5-1.6-3.1-2.4-4.6" style="opacity:.8"/><path d="m26.8 104c2.1-2.5 5.1-3.8 7.9-5.3-2.4 2.1-5.2 3.7-7.9 5.3" style="opacity:.8"/><path d="m1154 102c.9-1 2.4-.4 2.5.9-.6-.2-1.9-.7-2.5-.9" style="opacity:.8"/><path d="m2629 102c.9-1 2.3-.4 2.5.9-.6-.2-1.9-.7-2.5-.9" style="opacity:.8"/><path d="m1166 104c2.7.1-.5 3.8-1 1.2.3-.3.7-.9 1-1.2" style="opacity:.8"/><path d="m2641 104c2.7.1-.5 3.8-1 1.2.3-.3.7-.9 1-1.2" style="opacity:.8"/><path d="m27.5 109c1.5-.5 3.6 2 1.5 2.6-.9-.7-1.4-1.5-1.5-2.6" style="opacity:.8"/><path d="m483 112c-2.1.8-5.3-.5-3.9-3.1 1.4.8 2.7 1.9 3.9 3.1" style="opacity:.8"/><path d="m1958 112c-2.1.8-5.3-.5-3.8-3 1.4.8 2.7 1.9 3.8 3" style="opacity:.8"/><path d="m22.3 111c1.4-.3 2.2.3 2.5 1.6-1.4.4-2.2-.1-2.5-1.6" style="opacity:.8"/><path d="m8 113c.5-1.3 1.3-1.9 2.7-1.8-.3 1.4-1.1 2-2.7 1.8" style="opacity:.8"/><path d="m1.8 114c1.4-1.8 3.8-1.4 5.4-.2-1.3.1-4 .2-5.4.2" style="opacity:.8"/><path d="m472 114c1.2-1.5 3.4.6 2 1.9-1.1 1.5-3.3-.6-2-1.9" style="opacity:.8"/><path d="m1947 114c1.2-1.5 3.3.6 2 1.9-1.2 1.5-3.3-.6-2-1.9" style="opacity:.8"/></g></svg>