<svg height="163" viewBox="0 0 2106 130" width="2633" xmlns="http://www.w3.org/2000/svg"><g style="fill:#111"><path d="m506 18c2.2-.8 4.3-1.7 6.5-2.5.8 1.5 1.6 2.9 2.3 4.4-1.3-1-2.7-1.9-4-2.9-1.5 1.1-3 2.2-4.5 3.3l-.6.4c.1-.7.2-2.1.3-2.8" style="opacity:.8"/><path d="m308 17.9c2.1-.3 4.2-.5 6.3-.7.8 1.1 1.6 2.2 2.4 3.3-1.2 7.2-4.1 14-5.6 21 2 4.4 7.3 3.5 10.9 1.6 0 .4 0 .9 0 1.3-2.4 1.6-4.6 3.3-6.9 5-3.1 2.3-7.2 1.9-10.8 2.5-.2-.9-.4-1.8-.6-2.7 3.9.3 7.7.6 11.6.6 0-.7 0-2.1-.1-2.8-2.1-.6-6.4-1.8-8.5-2.4-.8 1.2-1.7 2.3-2.5 3.5.6-1.4 1.2-2.9 1.8-4.3 1.6.2 3.1.4 4.7.5-.4-7.9 2.8-15 4.3-22.7.3-3.3-3.7-3.5-6-4 .3 2.8 1.1 5.7.7 8.6-2 3.6-5.4 6.3-7.7 9.7-3 5.4-3.9 11.5-4.9 17.5-6.7-.2-13.4-.2-20-1-6.3-2-11.3 2.6-16.7 4.8-5.8 2-11.9 2.8-17.9 4.3 4.8-2.6 10.4-2.9 15.6-4.6 4-1.2 7.2-4 11-5.5 9-.7 17.9 1.2 26.9 1.1.5-9 3.4-18.6 10.8-24.6 3.5-2.5 1.1-7 1-10.3" style="opacity:.8"/><path d="m703 17.6c1.7-.2 5-.5 6.7-.7.2 2.4.2 4.9.5 7.3-4.8 4.8-5.8 11.8-7.7 18-.9-8.8 5.1-15.9 7.1-24-2.2-.2-4.5-.5-6.7-.7" style="opacity:.8"/><path d="m111 19.9c2.1-.7 4.2-1.3 6.3-1.9.9 1.6 1.8 3.3 2.7 5l-.6-.4c-2-1.2-4.1-2.3-6.3-3.2-.9 3.9-.2 8.6-3 11.8-4 4.8-7 10.3-8.9 16.3.5-7.8 5-14.6 10.8-19.6-.3-2.6-.6-5.3-.8-7.9" style="opacity:.8"/><path d="m702 21c-2.1-.2-.5-3.8 1.1-2.5-.1 1-.5 1.8-1.1 2.5" style="opacity:.8"/><path d="m889 20.8c2.5-1.2 5-3.1 8-2.6 1.6 1.9 2.9 4.3 2.6 6.8-2.4 5.7-5 11.3-8.4 16.4 3.2 1.8 6.2 6.8 10.3 4.7 4-1.4 5.5-6 9.3-7.6 2.2-1 4.5-1.7 6.9-2.4-4.8 2.8-9 6.5-13.3 9.9-4.6 3.6-11.3.7-13.7-4.1 1.5-7.8 8.7-14.5 6.5-22.8-2.3.5-4.6 1.1-7 1.6l-1.1.2" style="opacity:.8"/><path d="m1283 20c2.8-.3 5.1-.7 8-1.1.4 2.4.9 4.9 1.3 7.3l-.4-.8c-.9-1.8-1.6-3.6-2.4-5.4-1.9.4-3.7.7-5.6 1.1.6 2.2 1.3 4.4 1.9 6.6-8.7 4.1-12 13.3-16 21l-.4.7c1.4-5.7 3.5-11.3 6.9-16.2 2.4-2.3 5.5-3.8 8.3-5.6-.6-2.5-1.4-5.1-1.7-7.7" style="opacity:.8"/><path d="m1473 20.8c2.9-.8 5.5-1.5 8.6-2.1 1 7.7-3 14.4-5.6 21.3 3.2 2.2 6.1 5 9.8 6.5 3.9.8 7.7-.5 11.4-1.6-.7-1.4-1.4-2.9-2.1-4.3 4.9 0 9.7-.8 14.4-1.8 3.9-.2 6.2 3.9 8.8 6.2 3.1 4.4 8 8.2 8.9 13.8-.9.7-1.7 2.3-3 2-4.3-1-8.1-3.3-12.4-4.4-.1-1-.2-2-.3-3-5.4 2.2-9.4 6.7-12.5 11.4-2.4 3.4-.6 7.9-.9 11.7 6 4.2 11.8 8.8 18.2 12.4 5.4 3.1 11.7 3 17.6 4.1-3.9 4.5-10.3 2.4-15 .4-6.3-3.1-13-5.6-18.9-9.4 4.4 1.5 8.8 3.3 13.2 5-5.1-3.6-10.4-7-14.9-11.2-5.5-8.6.4-19.9 8.9-23.8 7-.9 12.5 5.2 19.5 5.1-3.7-6-7.8-11.9-12.9-16.8-5.1-3.2-11.4-.8-17-1.1.6 1.3 1.1 2.5 1.7 3.7-9.5 2.8-17.7 9.7-27.9 9.7 5.2-1.1 10.2-3.1 15-5.4-4.8-1.7-9.6-3.4-14.5-4.9-.8 3.5-1.5 6.9-2 10.5.1-3.8.3-7.6.7-11.4 4 .8 8.1 1.7 12 2.7-2.3-2.1-4.6-4.1-6.5-6.5.5-7.2 6-13.3 5.3-20.9-1.8.9-3.7 1.7-5.2 3-.4 2-.1 4.1 0 6.2-7.1 4.9-12.2 12.5-13 21 .4 3.1 2 5.9 3 8.8-12 1-24-.8-36-.9-7.7-.8-14.2 3.9-21.5 5.1-4.5.9-9.2.9-13.7 1.1 12.7.3 23.5-7.5 36-7.7 11.4.5 22.8 2.3 34 1.4-1.3-2.9-4.5-5.7-3.2-9.1.9-3.1 2-6.1 3.1-9.2 1.8-5 6.2-8.6 10.6-11.4-.6-2.2-1.3-4.4-1.8-6.6m47 71.9c3.7.4 7.4.7 11.2.9-3.7-.4-7.5-.6-11.2-.9" style="opacity:.8"/><path d="m1665 20.7c2.3-.7 4.6-1.6 7-1.6 1.7 1.5 3.8 3.9 2.6 6.3-2.3 4.8-4.2 10-4 15.4 3 4.2 8.5 6.4 13.5 6.1 3.8-.5 4.7-4.8 6.9-7.2 5.1-.9 11.5-3.5 16 .5 5 4.3 9.2 9.6 13.3 14.7 2.1 2-.5 5.7-3 4.7-6.1-1.8-12.5-2.4-18.8-2.7-3.6 6.5-8 12.5-11.4 19 1.5-8.1 6.8-15 12.1-21 6.4-1.9 12.8 1.7 18.8 3.8.6-.8 1.3-1.6 2-2.3-5.4-5.3-9.4-12.3-15.9-16.3-4.2-1.2-10.4-1.6-13.2 2.5-3.2 4.6-9 5.7-13.6 8.4-4.6 2.8-10.2 3.1-15.3 4.1.5-4 1.2-7.9 2.4-11.8 4 1.3 7.9 2.6 11.9 3.8-2.4-1.7-4.8-3.3-7.1-4.8.4-5.7 1.5-11.3 3.5-16.6 1.2-2.8-1.5-5.1-2.6-7.3-2.5 3.1-3.4 7-3.5 11-4 3.8-9.7 7.2-9.8 13.5-1.4 5.2-.2 10.4 1.3 15.4-4.4 0-8.7 0-13-.3 4.1-.3 8.1-.7 12.2-1.1-1.3-2-2.6-4-3.9-6 1.4-4.4 2-8.9 3.4-13.3 2-4.4 6.6-6.7 10.3-9.6-.8-2.4-1.6-4.8-2.3-7.2m.3 24c-.8 2.9-2 5.9-2.5 8.9 5-.4 10.9-.3 14.7-4.1-3.9-2-8-3.4-12.2-4.7m36 10.4c-.3 1.8 3.3 1.8 3 0-.6-1.1-2.5-1.1-3 0" style="opacity:.8"/><path d="m2057 18.6c1.9.4 7.3.3 7.4 3.8 1.8 4.2-1.8 6.9-3.8 9.8.9-3 2.4-5.8 2.9-9-1.2-2.1-3.6-3-5.5-4.1l-.9-.5" style="opacity:.8"/><path d="m1085 21c2.7-.4 5.3-.7 8-1.1.1 2.6 1.1 5.5-.5 7.8-2.7 4.6-5 9.4-6.8 14.5 3.3 2.3 6.2 6.3 10.8 5.3 6.9-2.1 12.2-7.9 19-9.9 8.7 1.9 13.7 10.5 18.4 17.3 2.2 2.6-.5 7.5-3.8 5.6-5.3-2.5-11-3.7-16.9-4.6-1.5 1.6-4.5 4.7-6 6.3 2.3-2.6 4.1-5.8 6.9-8 6.3-.7 11.8 2.6 17 5.7 1-.9 2-1.9 3-2.8-4.5-5.6-8.3-12-14.2-16.3-2.4-2.5-5.8-1.3-8.4 0-9.5 4.7-18 11.2-28 14.4 3-1.3 6-2.7 9-4-4-2.3-8.1-4.2-12.4-5.7.3 3.5 1 6.9 2.2 10.2-1.2-1-2.3-2-3.5-3 .2-2.7.8-5.4 1-8 3.7 1.1 7.4 2.3 11 3.5-2.1-1.8-4.3-3.6-6.5-5.4 2.1-7.6 6.9-14 8.3-21.9-2.2.4-4.4.8-6.6 1.2 0 2.4-.2 4.7-.2 7-3.8 2.8-8.3 5-10.8 9-1.9 4.3-3.4 8.7-5 13.2.5-4.7 1.8-9.3 3.3-13.7 2.5-4.7 7.6-6.8 12-9.2 0-2.5-.8-4.9-.5-7.4" style="opacity:.8"/><path d="m2054 23c1-1.5 2.1-3 3.2-4.5-.2 2.9-.3 5.8-.4 8.7-.9-1.4-1.9-2.8-2.8-4.2" style="opacity:.8"/><path d="m506 40.7c2.7-6.7 5.3-13.6 8.9-19.9.3.5.8 1.6 1.1 2.2-3.6 4.3-5.5 9.6-7.3 14.8-1.2 2.5 1.1 4.6 2 6.7-1.5-1.3-3.1-2.5-4.7-3.7" style="opacity:.8"/><path d="m1859 24.4c2.6-2.2 5.5-3.6 9-4.3 2.9 8.1-2.2 15.4-3.6 23 2.5 2 5.1 4 7.5 6.1-3.1-1.5-6.2-3.1-9.2-4.6 1-7.9 6.7-15 4.7-23-2.4.8-4.8 1.7-7.2 2.5l-1.1.4" style="opacity:.8"/><path d="m507 21.4c.7 1.1 1.4 2.3 2 3.4-4.4 3.3-8.3 7-12.3 10.7l-.8.7c2.8-4.8 6.4-9 11.4-11.6-.1-1.1-.3-2.2-.4-3.3" style="opacity:.8"/><path d="m703 24c-1.7.7-2-2.6-.2-2.1.1.5.2 1.6.2 2.1" style="opacity:.8"/><path d="m890 21.5c1.1 2.1 2.2 4.3 3.3 6.4-3.9 2.1-7.7 4.2-11.6 6.1 2.8-2.7 6.3-4.7 9.6-6.7-.5-1.9-1-3.9-1.3-5.8" style="opacity:.8"/><path d="m116 30.4c.5-2.5 1.8-4.8 3-7-.8 2.4-1.8 4.7-3 7" style="opacity:.8"/><path d="m692 34.4c2.4-4.4 6.5-7.5 11-9.8-2.7 3.2-6.2 5.7-8.7 9-4.5 5.9-6.1 13.5-2.9 20.3-8.6.1-17-.9-25.6-2.3l-.8-.1c8.5 0 16.9.9 25.3 1.4-4.5-5.7-1.2-12.9 1.7-18.6" style="opacity:.8"/><path d="m1861 25.4c.7 2 1.3 4.1 2 6.1-2.6 2-5.2 4-7.7 6.1 2.1-2.6 4.4-5.1 6.6-7.6-.3-1.6-.7-3.1-1-4.7" style="opacity:.8"/><path d="m1285 43c1-6 3.1-11.9 6.6-17-2 5.5-4 11-5.7 16.7 5 3.9 11.3 3.9 17.3 3.3.1-1.7.3-3.4.4-5 5.4-.5 10.8-2 16.2-1.8 6.6 4.6 11 11.8 15 18.6l-.5-.6c-4.8-5.6-9-11.9-14.9-16.4-4.4-.7-8.9 1-13.2 1.6-4.2 5.3-11.2 7-17 9.6 1.2-.9 2.4-1.8 3.6-2.7-3.8-1.2-7.6-2.3-11.5-3.5-.4 2.4-.9 4.9-1.4 7.3 2.5-.3 5.8-.5 8.5-.9-3 1-6.3 1.6-9.3 2.3.3-3.3.7-6.6 1.1-9.9 3 .7 6 1.5 9 2.2-1.4-1.3-2.8-2.6-4.3-3.8" style="opacity:.8"/><path d="m2045 50c-1.2-9.3 4.1-17.7 11.9-22.5-2.6 4.1-6.3 7.4-8.7 11.6-1.5 3.5-2.6 7.1-3.2 10.9" style="opacity:.8"/><path d="m116 31l.3-1.1c.8 4.1-.2 8.2-.8 12.2 2.8 1 5.6 3.8 8.6 3.5 4.9-3.2 9-7.5 12.8-12 5.2 1.6 10.2 4 14.6 7.3-4.4-2-8.8-4.7-13.7-5.1-4.5 2.9-7.5 7.6-12.2 10.2-3.9 2.2-8.3-.6-10.8-3.5-.6-3.9.6-7.7 1.3-11.5" style="opacity:.8"/><path d="m330 32c.5-.5 1.1-1 1.7-1.6 7.1 4.2 14.5 8 20.8 13.5 2.3 1.9.3 4.7-.3 6.9-5.4-1.5-10.9-2.2-16.5-3.1-1.9 4.1-3.9 8.1-6.3 11.9 1.3-4 2.1-8.3 4.6-11.7 1.4-2.7 5.3.5 7.1-.7 3.2.4 6.4 1.1 9.5 1.7.8-.8 1.7-1.7 2.5-2.5-7.2-5.6-14.7-11-23-14.6" style="opacity:.8"/><path d="m528 31c8.8 3.3 16.8 8.2 23.9 14.3-.1 2.1-.9 4.1-1.5 6.2-2.6-.8-5.1-1.7-7.6-2.6 3.2.5 6.5-.1 9.2-2-6.4-4.6-12.6-9.8-19.9-12.9-1.2-.4-2.7-1.1-3.6.1-5.9 5.4-10.2 12.8-17.7 16.3-2.8.4-5.6-.3-8.3-.5 3.1-.1 6.3-.2 9.4-.3.1-.6.2-1.8.2-2.4-2.6-1.1-5.2-2.2-7.7-3.4-.6 1.6-1.1 3.2-1.7 4.9.3-1.9.5-3.8.8-5.7 2.6.6 5.2 1.4 7.8 1.8 1.6 0 4.8 0 6.5 0 3.4-4.6 7-9 10.3-13.7" style="opacity:.8"/><path d="m323 38c1.5-2.5 4.1-3.9 6.7-5-1.8 1.5-3.7 3-5.6 4.3l-1.1.7" style="opacity:.8"/><path d="m723 36c-.4-2.3 4.5-3.2 4.8-.7-1.6.2-3.2.5-4.8.7" style="opacity:.8"/><path d="m2058 44.5c.9-3.7 1.9-7.4 3-11-.1 3.3-.5 6.5-1.2 9.7 3.1 2 6.4 4.1 9.7 5.9-3.9-1.3-7.8-3-11.5-4.6" style="opacity:.8"/><path d="m875 47c1.2-4.5 4-8.4 6.3-12.4-2 5.9-6.9 12.6-2.8 18.8-1.5-1.8-4.4-3.6-3.5-6.3" style="opacity:.8"/><path d="m2070 48c2.1-7.6 9.3-13.7 17.4-12.7 6.5 2.8 11.8 8.2 16.8 13.4 2.5 2 .1 6.4-2.8 5.7-2.2-.3-4.3-1.2-6.3-1.9 3.4.3 6.8 0 10-.8-5.9-5.7-11.6-12.6-19.4-15.5-7.1 0-11.4 7-15.7 11.9" style="opacity:.8"/><path d="m709 46.8c4.4-3.4 7.6-8.2 12.6-10.6-3.3 3.8-6.3 8.2-10.8 10.8-2.5 1.2-4.6-.2-6.4-1.5 1.5.4 3 .9 4.5 1.4" style="opacity:.8"/><path d="m732 36c6.4 4 11.9 9.1 17.2 14.4-1.3 1.6-2.7 3.1-4.1 4.6-4-1.5-8.2-3-12.5-2.6-9-1.6-8.6 9.5-11.7 14.7 1.5-6 2.1-13.6 7.6-17.4 6.6.2 12.8 3.2 19.4 3-4.7-6-10-11.5-15.9-16.6m-2.8 14c-1.7.5-.8 3.1.8 2.4 1.7-.4.7-3.1-.8-2.4" style="opacity:.8"/><path d="m918 35.7c8.2 4.3 14.7 10.9 20.8 17.7-1.7 1.1-3.1 3.7-5.4 3-5.9-1.6-12-2.1-18-2.5-2.8 5.7-5.6 11.8-5.8 18.3-.1 1.7 1.5 2.9 2.4 4.1-1.3-.3-2.6-.6-3.9-.9 1.2-8.3 1.5-19 9.6-23.8 6.6-.1 12.9 3 19.5 3.8-4.8-7.9-12.2-13.7-19-19.7m1.1 16.6c-.4 1.8 3.4 1.8 3 0-.6-1.1-2.5-1.1-3 0" style="opacity:.8"/><path d="m497 36.6c.1 5.5-.3 11-.2 16.5-4.3-.4-8.5-.8-12.8-1.2 3.9-.2 7.7-.3 11.6-.3-.5-5-.4-10.2 1.4-15" style="opacity:.8"/><path d="m1892 37c8.4 3.1 14.2 10.1 20.7 15.9-.3 1.9-1 3.6-1.6 5.4-3.5-.9-6.8-1.9-10.2-3 3.9.7 7.9.7 11.7-.5-6.4-5-11.3-12.5-19-15.4-7.7 1.6-11.9 11.3-20.6 10 2.8-.7 5.8-1.4 7.8-3.6 3.3-3.5 8-5.3 11.3-8.8" style="opacity:.8"/><path d="m325 38c.5.7 1.1 1.5 1.6 2.3-1.3.5-2.6 1.1-3.9 1.6l-.9.4c1.1-1.4 2.2-2.8 3.3-4.3" style="opacity:.8"/><path d="m1853 41.8c-1.8-1-.3-4.5 1.7-3.6-.5 1.2-1 2.4-1.7 3.6" style="opacity:.8"/><path d="m152 41c3 1.2 6 2.6 9 3.9-.9 1.8-1.7 3.7-3 5.3-5.4.5-10.9-.6-16.3-.2-1.9 2.4-3 5.2-4.6 7.7 1-2.7 1.1-6 3-8.3 6.4-1.9 14 1.5 19.9-2.7-2.7-1.9-5.3-3.9-8-5.8" style="opacity:.8"/><path d="m1850 55c.8-4.2 1.5-8.5 2.7-12.6-.7 4.7-1 9.4-1.3 14-.8 0-1.6 0-2.4 0h-.4c.3-.4 1-1.1 1.4-1.5" style="opacity:.8"/><path d="m109 43c4.4 1.5 8.7 3.3 13 5-1.2 3.5-3.9 5.2-7.8 4.6 2.3-1.1 4.5-2.2 6.7-3.4-3.8-1.6-7.5-3.2-11.3-4.7.4 3 .7 6.1 1.2 9.1-.7-.4-2-1.1-2.6-1.4.2-3.1.5-6.1.9-9.2" style="opacity:.8"/><path d="m697 45.6c1.5-1.6 3.8-1.2 5.8-1.5-2.3 1.3-4.5 2.7-6.8 4.1.4.7 1.3 2 1.8 2.6 2.4-.1 4.8-.2 7.3-.3-.6-1.7-1.2-3.5-1.8-5.2 1.6 1.7 3.2 3.5 4.7 5.4-4 .5-8 1-12 1.4.1-2.2-.8-5 1.1-6.6" style="opacity:.8"/><path d="m887 43c3.4 1.8 6.7 3.8 9.9 5.9 0 .8.1 2.3.2 3.1-4.2.3-8.5.6-12.7 1 .7-3.4 1.5-6.7 2.5-9.9m1 1.5c-.9 2.5-1.6 4.9-2.3 7.5 3.5-.4 7.1-.8 10.7-1.2-2.8-2.1-5.6-4.2-8.4-6.3" style="opacity:.8"/><path d="m533 46.8c3 .7 6 1.5 9 2.1l.8.1c-2.3.7-6.7 2.2-9 2.9 2-1.3 3.9-2.4 5.9-3.6-2.9.4-5.6.8-8.5 1.4.5-1 1.1-2 1.7-3" style="opacity:.8"/><path d="m1860 46.6c3.2 1.3 6.2 2.7 9.4 4.2-2.8-.8-5.5-1.6-8.2-2.4-.9.9-1.9 1.9-2.8 2.8l-.3.3c.6-1.7 1.2-3.3 1.9-5" style="opacity:.8"/><path d="m2054 46.6c2.9.8 5.9 1.7 8.8 2.5 0 1.4.1 2.7.2 4.1-3.5.1-6.9.1-10.4 0 .5-2.2.9-4.4 1.3-6.6m1.2 1c-.5 1.6-1 3.2-1.4 4.8 3 .2 6-.1 9-.5-2.4-1.6-5-3-7.6-4.3" style="opacity:.8"/><path d="m101 48v.8c.2 2.3.5 4.5.7 6.7-10 .7-20-.4-30-.1-10.2.8-19.8 4.8-28.9 9.2-4.2 2.3-9 .3-13.3-.3 2.2 3.3 4.3 8.9 9.3 7.9 8.9-2 15.7-8.5 23-13.3-.3 2.8-.6 5.5-1 8.3l-.1.7c0-2.4 0-4.9.1-7.3-4.9 4.9-10.9 8.7-17.3 11.5-3.7 1.3-8.4 2.4-11.5-.6-2.2-2.7-2.4-6.5-3.6-9.7 2.8 1.2 5.7 2.3 8.6 3.4 2.9-.3 5.4-2.3 8.1-3.2 7.7-3.9 16-6.2 24.6-7.6 10.1-1.4 20.5 2.2 30.5-.5.1-1.9.3-3.9.5-5.8" style="opacity:.8"/><path d="m468 50.6c5.2-1.2 10.5.2 15.6 1.2-5.2-.4-10.7-1-15.8.8-3.6 1.5-6.9 3.6-10.6 5.1 3.5-2.4 6.8-5.3 10.7-7" style="opacity:.8"/><path d="m1270 49.6c1.7 2.7 3.2 5.6 4.5 8.5-15.3 3.6-30.8-2.4-46 .7 14.6-6 29.6 1.9 44-1.5-1-2.5-1.9-5.1-2.7-7.6" style="opacity:.8"/><path d="m521 78c3.1-9.2 5-18.8 9.8-27.3-2.3 9-5.3 17.8-8.3 26.5 3.3 2.9 7.7 4.9 9.8 8.9-3.1 3.7-6.9 6.7-10.2 10.2-2.9-.5-5.8-1-8.6-1.5 1.4-1.4 2.8-2.7 4.3-3.9l-.4 1.1c-.4 1-.8 2-1.1 3.1 2.4-.4 4.9-.8 7.4-1.3-1.6-.5-3.3-.9-4.9-1.4 3.5-.9 6.7-2.7 9.4-5.2-4.5-4-10.6-4-16.2-4.4-2.6 5.5-3.9 11.4-5.7 17-14.3-1.7-27-8.8-41-11.6 1.7-3.6 3.3-7.3 4.4-11.2-4.3-2-8.6-4.2-11.7-7.9 4.1 2.3 8.7 4.1 12.2 7.3-.4 3.9-1.4 7.6-2.5 11.3 6.8 1.6 13.6 3.5 20 6 5.6 2 11 4.8 17 4.4 3.1-4.3 2.7-10.2 5.7-14.6 1.3-2.9 5.7-.2 7.6-1.4 4.8-.9 8.3 2.3 11.3 5.4.5-.6 1.1-1.3 1.6-1.9-3.3-2.5-6.6-5.1-9.9-7.6" style="opacity:.8"/><path d="m1872 51c.2.9.3 1.9.7 2.8-3.7.9-7.5 1.5-11 2.2-.5-1.5-1-3-1.4-4.5 3.3 3.8 8.7 2.8 11.9-.6" style="opacity:.8"/><path d="m2085 50.9c2.9.6 5.9 1.4 8.9 1.9-4.3 1.8-8.5 3.4-12.4 5.8 1.2-2.5 2.3-5.1 3.5-7.7m-.8 2.9c2.4-.4 4.8-1 7-1.8-2.4.3-4.8.8-7 1.8" style="opacity:.8"/><path d="m657 55c1.9-2.1 4.5-3.3 7.4-3.6-2.5 1.1-4.9 2.4-7.4 3.6" style="opacity:.8"/><path d="m1072 51.9c1.5.7 3.1 1.9 2.9 3.8-1.8.7-3.8-2.2-2.9-3.8" style="opacity:.8"/><path d="m2045 52c0 .9 0 1.9 0 2.8-2.8.6-5.6 1.2-8.4 1.3 2.9-1.2 5.7-2.5 8.4-4.2" style="opacity:.8"/><path d="m847 55c4.6-2.8 10-1.6 14.9-.7-5.5-.8-11 .1-16 2.6-9 4.1-19.4 2.6-28.8 5.2-7.5 3.2-9 11.7-12.9 18 10.5-8.4 21.8-16.3 35-19-.5 2.7-.6 5.5-.9 8.2v.8c-.1-2.6-.1-5.1 0-7.7-7.5 2.8-15.7 4.6-21.7 10.1-4.5 3.5-8.9 8.9-15 7.8 2-2.6 4.4-5 5.5-8.2.9-5.6 5.6-9.6 10.5-11.7 9.8-1.9 20.5-.1 29.4-5.5" style="opacity:.8"/><path d="m1314 53c3.5 1.2 7 2.7 10.3 4.4-2.9-.8-5.7-1.7-8.5-2.8-2 1.2-4.1 2.5-6.1 3.6 1.4-1.7 2.9-3.5 4.3-5.2" style="opacity:.8"/><path d="m1892 55c.6-.8 1.3-1.6 1.9-2.4 1.9.9 4.5 1.8 6.6 2.6-3 1.3-6.3 2.3-9.5 3.2-5.9 8.5-9.9 18-15.5 26.9-2.1 5.5-2.4 11.5-3.5 17.2v-.6c-.2-6.6.3-13.5 3.6-19.4 5.3-8.9 9.5-18.5 15.8-26.8 2.3-.6 4.6-1.1 6.9-1.8-2.2.3-4.3.6-6.3 1.1" style="opacity:.8"/><path d="m2011 57c7-5.5 16.6-4.2 24.3-.9-8-1.9-16.6-2.6-24.3.9" style="opacity:.8"/><path d="m863 54.7c3.2 0 6.6-.1 9.8.5h-.9c-2.9-.1-6-.3-8.9-.5" style="opacity:.8"/><path d="m879 54c.2.4.5 1.2.7 1.6-2.4-.2-4.8-.5-7.2-.7 2.1-.3 4.3-.6 6.4-.9" style="opacity:.8"/><path d="m639 60c6-1.3 11.9-2.8 17.8-4.5-5.3 2.6-11.2 4.1-17 4.4h-.7" style="opacity:.8"/><path d="m1599 61.7c13.6-7.7 30.6-9 45-3.9-10.8-.9-21.9-3.1-32.5-.1-4.8 1.4-9.2 3.9-14 5.2-6.5.8-13 .5-19.4-1.1 3.4 2.9 6.7 6.2 10.9 8 10.2.9 17.8-7.4 26.7-11l-.3 1.1c-8.5 4.9-16.9 12.6-27.5 10.9-4.5-1.8-8-5.5-11.6-8.6.9-1.2 1.9-2.3 2.8-3.5 1.3 1.2 2.6 2.4 3.9 3.6 5.1-.9 10.4.4 15.5-.5" style="opacity:.8"/><path d="m1820 55.8c6.3-.7 13-1.8 19 1.4-6-1.1-12.2-1.2-18-1.4h-.8" style="opacity:.8"/><path d="m1847 55c.6.4 1.6 1.3 2.2 1.8-1.4.6-2.8 1.2-4.2 1.5.7-1.1 1.4-2.2 2.1-3.3" style="opacity:.8"/><path d="m1039 58c10.4-4 21.6-.1 32-.1-6 .1-12-.3-18-.6-11.9-.7-22.8 6.8-34.9 3.8 6.9-.1 14-.6 20.5-3" style="opacity:.8"/><path d="m1800 60c6.2-1.9 12.6-3.7 19-4.3-12 3.5-24.5 8.4-37 5.3 6-.1 12.2.7 18-1" style="opacity:.8"/><path d="m1073 58c-.3-1.5.4-2 1.9-1.6 0 1.2-.6 1.8-1.9 1.6" style="opacity:.8"/><path d="m1325 57c3.2 1.6 6.8 2.1 10.3 1.3-1 1-1.9 2-2.9 3.1-2.8-1-5.2-2.5-7.4-4.4" style="opacity:.8"/><path d="m1840 58c.9-1.4 4.2-1 4.1.9-1.5.4-2.9-.4-4.1-.9" style="opacity:.8"/><path d="m2005 58c1.7-.3 3.4-.6 5.1-.8-11.2 5.1-23.8 1.4-35.5 3.5 1.3 5.4 3.2 11.7 9.5 12.8l.8.3c-3-.4-5.2-.7-8-1.1-.7-3.1-2.6-5.6-4.8-7.8.6-.1 1.9-.3 2.5-.3-.6-1.3-1.3-2.6-1.9-3.9 10.2-5.1 21.6.2 32-2.6" style="opacity:.8"/><path d="m431 67c6.9-6.4 16-9.1 25.4-9.5-4 1.2-8.1 2-12 3.5-6.6 2.5-12.5 8.6-20 6.6 1.2 2.2 2.4 4.4 3.7 6.6 9.6-5.8 19.7-11 30-15-.1 2.8-.1 5.6-.2 8.3v.8c-.2-1.9-.6-5.8-.8-7.7-10 5.5-20.6 9.9-30.7 14.9-1.4-3-2.6-6.2-3.7-9.4 2.8.1 5.6.4 8.4.9" style="opacity:.8"/><path d="m129 71c2.1-4.5 5.3-8.5 7.9-12.7-3.1 7.4-7.8 14-10.3 21.7-.7 2-3 2.4-4.7 3.1 3.6-3.2 4.9-8 7-12.2" style="opacity:.8"/><path d="m1225 60c.4-1.7 1.3-2 2.7-.9-.8.7-1.7 1-2.7.9" style="opacity:.8"/><path d="m1303 74c.4-6 1.5-12 6.5-15.9-3.2 4.9-4.9 10.4-6.5 15.9" style="opacity:.8"/><path d="m1403 68.8c7.8-2.5 14.5-7.6 22-10.6-2 5.6-3.8 11.3-5.2 17-1.4 4.6-7.4 5-10.8 7.2-8 3.9-15.6 8.8-24.4 10.6 10.7-.3 19.6-7.2 30-8.6-4.8 9-11.7 16.6-19 23.6 9.6-4.6 14.3-14.8 22.6-21 7.4-5.8 16.3-12.8 26.4-9 11.2 3.5 22.8 5.6 34.6 5.5v1.5c-9.7-.8-19.6-.7-28.8-4.2-5.4-1.9-11.6-4.2-17-1.7-10.1 4.8-19 12-25.8 21-3.4 4.4-8 9.2-14 8.1 2.9-4.2 7.2-6.9 10.7-10.6 3.2-4 5.9-8.3 8.9-12.5-10.3 3-19.3 10.5-30.7 8.4 1.5-1.7 3.3-3.4 5.7-3.4 9.3-.8 15.8-8.8 24.7-11 2.5-1 5.9-2 6.4-5.1.8-5.1 2.1-10.3 4.6-14.9-10.2 6.4-20.9 13.7-33.6 11.7-4 .3-6.8-2.9-8.7-5.9 3.5-1.1 7.2-1.9 10.9-1.7-3.3.8-6.4 2.1-9.4 3.5 5.9 3.7 13.5 4.2 20 1.9" style="opacity:.8"/><path d="m630 60c2.9 0 6-.1 8.9 0-9.5.9-15.3 9.1-23 13.3 1.2 1.3 2.5 2.6 3.7 3.9 6-4.5 12.2-8.7 19.3-11.2-5.7 3.5-11.2 7.4-16.8 11-5.1 3.3-6.6-3.2-8.9-6.1 2 .1 4.1.2 6.2.3 3.5-3.8 7.2-7.5 10.8-11.2" style="opacity:.8"/><path d="m1221 61c.3-1.8 1.2-2.1 2.7-.9-.8.7-1.7 1-2.7.9" style="opacity:.8"/><path d="m1779 60c.5 0 1.5 0 2 .1l.4.8c2.1 3.9 3.6 9 8.1 10.7 8.9-.5 16-6.6 23-11 0 5.6 1 11.2 2.7 16.6l-.8-.2c-2.7-4.5-2.7-9.9-2.6-15-6.8 5.7-14.9 11.2-24 10.6-4.1-3.1-6-8.3-8.6-12.6" style="opacity:.8"/><path d="m2073 78c1.9-6.6 5.2-12.7 8.5-18.7-1.7 6.7-5.2 12.7-8.5 18.7" style="opacity:.8"/><path d="m234 74c8.3-4.6 15.7-11 24.7-14.5.3 3 0 6.3 1.2 9.1 2.1 2.9 5.2 5 7.6 7.6-.8 3.8-4.8 5.7-7.1 8.5 7 4 14.6 8.4 23 7.6-.6-.4-1.8-1-2.4-1.4 5 2 9.8 4.5 15 6.2 1.9.8 3.8-.9 4.4-2.6 2.5-3.8 3.9-8.1 5.5-12.4-6.3-1.3-12.6-2.9-18.7-5.1 6.6 1.2 13.2 2.7 19.8 4.1-2 6-3 13.7-8.7 17.4-4.3.3-8-2.9-11.6-5 1.5 1.8 2.9 3.6 4.3 5.4-3 .4-6 .8-8.9 1.4 6.4-.5 13.8 1.3 19.4-2.7 4.5-3.3 6.3-8.7 9.2-13.2 5.1-3.1 9.5 2 12 6-.9 1-1.9 1.9-2.9 2.7.4-1.7.7-3.5 1.1-5.2-3-1-5.8-2.5-8.8-3.1-1.9 2.1-3.5 4.6-5.2 6.9 1.9.4 3.7.7 5.6 1-3.8 2.2.7 2.9 3.4 2.2-.8-.8-1.6-1.5-2.5-2.1 1.8.2 3.6.3 5.4.3 2-.1 4-.3 6-.5-1.7-4.4-6.9-8.4-4.5-13.7 2.3-6.5 5.7-12.5 8.8-18.7-2 7.6-5 15-9.6 21.4 2.6 3.2 5.2 6.4 7.8 9.5-5.7 5.6-14.5 4.1-21.8 3.9-5.1 8.8-17 6.4-25.7 6.3 2.2-3.8 6.5-3.5 10.3-3.3-3.8-2.4-7.9-4-11.9-5.8-1.2 3.1-1.1 7.5-4.9 8.4l.8-.8c1-.8 2.8-2.6 1.3-3.8-1.7-.2-2 2.1-1.8 3.3 0-2 .2-4 .4-5.9-5.4-3-11.5-5.3-15.8-10 2.9-2.3 6.4-4.1 8.6-7-2.9-2.4-6-4.6-9-6.9.1-2.9.4-5.7.5-8.6-8.4 3.6-15.2 10-23.3 14-6.7 3.3-9.7-4.4-12.6-8.6 3.5-2.7 7.5-1.9 11 .1 2.6-1.9 5.5-3.6 8.6-4.6-1.2.9-2.4 1.8-3.6 2.6-3.8 3.3-9.3 1.6-13.9 1.9 2 3.4 4.5 9.8 9.6 7.7" style="opacity:.8"/><path d="m639 65.9c4.1-1.6 8.2-3.5 12.2-5.2 0 1.1 0 2.2.1 3.3-.3-.5-.9-1.4-1.2-1.8-3.6 2.5-7.6 4.8-12.1 4.1l1.1-.4" style="opacity:.8"/><path d="m998 68c6.5-1 11.8-5.9 18.4-6.4-4.4 1.6-8.6 3.8-12.2 6.8-3.7 3.4-4.7 8.5-6.3 13 5-5.3 10.2-10.7 17-13.2-6.7 4.2-11.5 10.6-18 15 .6-5.2 2-10.4 4.9-14.8-1.3-.2-2.6-.3-3.9-.5" style="opacity:.8"/><path d="m1194 70c6.6-5.4 15.2-7.2 23.6-7.7-8 2-15.8 4.8-23.6 7.7" style="opacity:.8"/><path d="m1229 63c.5-.1 1.4-.4 1.9-.6-.8 4.5-1.8 9-2.7 13.4 0-4.3.6-8.6.9-12.8" style="opacity:.8"/><path d="m1610 77c3-4.9 3.1-11 5.4-16.2-.8 5-1.3 9.9-1.8 14.9-1.2.4-2.4.8-3.5 1.3" style="opacity:.8"/><path d="m2004 63.9c1-1.5 3.9-3.2 3.6-.1-.6 1.3-3 1.4-3.6.1" style="opacity:.8"/><path d="m1105 67c0-1.8 1-3.3 2.1-4.6 1.3 1.5 0 5-2.1 4.6" style="opacity:.8"/><path d="m1212 68.8c5.5-2.2 11-4.4 16.6-6-5.1 3.1-10.7 5.4-16.6 6" style="opacity:.8"/><path d="m1016 68c5.9-1.8 12-2.8 18.2-3.8-1.4 7-2.2 14.2-3.3 21 .5-6.7.5-13.5 1.8-20-5.5 1.4-11 2.5-16.7 2.7" style="opacity:.8"/><path d="m651 64.8c1.5 10.8 15.5 12.9 17.8 23-3.8-6.4-10.9-9.9-16-15-2-2.1-1.7-5.3-1.9-8" style="opacity:.8"/><path d="m2011 77c-3.1-3.3-5.8-7.1-3.8-11.9.1 4.8 2.8 8.8 5.1 12.8-3.6 1-7.1 2.1-10.6 3.2 2.4 2.8 5 5.5 7.1 8.5 2.6 3.6 2.8 8 3.7 12.2-.1-3.9-.2-7.9-.3-11.8 2 .6 4 1.3 6 2-1.7-.1-3.3-.2-5-.3.1 3.8.3 7.6.5 11.4-1.5-.8-3-1.6-4.5-2.4.4-2.7 1.6-5.8-.2-8.4-2.9-4.2-6.7-7.7-9.8-11.8 3.8-1.3 7.7-2.4 11.7-3.5" style="opacity:.8"/><path d="m1985 73c4.7-2.8 9.9-4.7 14.9-6.9-4.1 3.9-9.5 5.7-14.9 6.9" style="opacity:.8"/><path d="m61 67c1.6 2.6 3.1 5.4 4.4 8.2-4.1.2-8.2.4-12.3.7-.6 6-.9 12.2-1.9 18-.4 0-1.3-.2-1.7-.2 2.1-6.1 1.9-12.8 2.5-19 3.9-.1 7.8-.1 11.6-.2-.9-2.5-1.9-5-2.7-7.5" style="opacity:.8"/><path d="m717 76c1.3-2.7 2.7-5.3 3.9-8-.4 2.8-.9 5.6-2.1 8.1-.4 0-1.3 0-1.8-.1" style="opacity:.8"/><path d="m1105 77c-.1-2.8 0-5.5.1-8.3.5 2.5 1 4.9 1.5 7.4 4.2.8 8.7.4 12.5 2.5 2.2 3 0 7.3.6 10.6 2.6 2.4 5.2 4.7 7.8 7.1-2.9-1.7-5.8-3.5-8.3-5.7-1.2-3.6-.6-7.6-.8-11.4-4.5-.8-9-1.5-13.5-2.1" style="opacity:.8"/><path d="m1204 71c2.4-.6 4.8-1.3 7.2-2.1-2.3 1-4.8 1.6-7.2 2.1" style="opacity:.8"/><path d="m1188 73c1.5-1 3-1.9 4.5-2.8-.1.7-.3 2-.4 2.7 3.6-.3 7.2-.7 10.8-1.4-4.5 2.8-9.9 2.2-14.9 1.5" style="opacity:.8"/><path d="m839 70c2.7 5 7.1 9.4 7.4 15.3-2.7-5-5.9-9.8-7.4-15.3" style="opacity:.8"/><path d="m284 75c1.2-1.3 3.5-.1 2.9 1.7-1.2-.2-2.2-.7-2.9-1.7" style="opacity:.8"/><path d="m1302 77c0-.4.2-1.2.2-1.6 10.3 3.4 21 6.9 28.5 15-1.5-.8-3-1.4-4.5-2.1 2.6 3 5.5 5.8 8.4 8.4-.7-1.5-1.5-3-2.2-4.5 1.8 1.3 3.5 2.7 5.2 4.2-1.9 0-4.2 1.3-5.8-.3-3.9-3.4-7.5-7.2-11.6-10.3l.3-.5c.2-.3.6-1 .8-1.4-6.4-2.5-12.9-4.8-19.3-7" style="opacity:.8"/><path d="m78 78c3.9-1.8 8.2-.3 12 .8-9-1.7-17 3.2-25.7 4.8 2.2 3.2 4.5 6.4 6.6 9.6-3-3.3-5.8-6.6-8.5-10 5.2-1.6 10.3-3.3 15.4-5.2" style="opacity:.8"/><path d="m279 80c-.3-2.3 1.8-3.5 3.7-4-.8 1.7-1.8 3.5-3.7 4" style="opacity:.8"/><path d="m482 76c7.7 1.5 15.2 4.1 22.8 5.9.6 4.8 1.2 9.6.9 14.4-1.9 0-5.8-.1-7.7-.1l.8-.2c8.7.6 5.6-7.7 5.3-12.9-7.3-1.5-14.4-4-21.5-6.1 1.2 3.3-.4 8.5 2.7 11 4 2.7 8.2 5.1 12.5 7.4-5.1-1.4-9.9-3.6-14.2-6.6-2.2-3.8-.7-8.7-1.6-12.8" style="opacity:.8"/><path d="m721 76c3.8.5 9.2-1.2 12 2.3 1 7 1.2 14 .2 21-1.3-.8-2.6-1.6-3.8-2.4 1.8-5.6 1.6-11.5.3-17.2-4.9.9-9.8 1.9-14.8 2.3 5.2-1.3 10.5-2.2 15.7-3.2.4 1.9 1.3 5.7 1.7 7.6-.1-2.7-.4-5.4-.4-8.1-3.6-.8-7.3-1.6-11-2.3m10.6 18.3c-1.5 0-1.5 2.4 0 2.4 1.5 0 1.5-2.4 0-2.4" style="opacity:.8"/><path d="m913 76c1.6 0 4.9 0 6.6-.1 3.3 6.2 11 8.6 13.6 15.2-1.8-1.5-3.5-3-5.4-4.5 1.9 1.8 3.8 3.4 5.9 4.9 2.4 1.4 3.7 3.9 4.3 6.5-5.1-1.6-7.6-6.5-11.3-9.9-3-2.1-6.5-3.5-9.9-4.9-1.7 3.3-3.3 6.6-4.8 9.9-3.4 1-6.9 1.9-10.4 2.5 1.2-1.9 2.6-3.8 4.7-4.8 3.2-1.5 5.1-4.7 7.7-7 4.2-1.4 8.5.2 12.5 1.4-4.1-3.6-7.5-8.6-13.5-9.2m-1.4 12.3c-1.3.5-2.4 2.5-1.6 3.8 1.7.6 3.4-3.1 1.6-3.8m-6.2 3.5c-1.6.3-1.3 3 .4 2.4 1.7-.2 1.2-2.9-.4-2.4m28 2.3c-.9 1.2 1.2 2.5 2 1.3.8-1.2-1.3-2.5-2-1.3" style="opacity:.8"/><path d="m1216 87c4-3.4 8-6.8 11.9-10.3-2.3 5.1-7.4 7.6-11.9 10.3" style="opacity:.8"/><path d="m1591 89c6.8-2.3 7.5-11.7 14.6-13.6-3.8 4.3-6.6 9.5-11.1 13-4.5 2.8-9.7 4-14.4 6.5 10 2.9 17.9-5.2 26.8-8.1-4.8 3-9.7 5.9-14.7 8.5-4.4 2.4-9.6.3-14-.4 3.7-3 8.3-4.5 12.8-6" style="opacity:.8"/><path d="m1801 77c2.4-1.3 5-1.3 7.6-.7h-1c-2.2.2-4.4.4-6.6.6" style="opacity:.8"/><path d="m1606 77c.7.2 2 .7 2.6.9-1 .8-2.7.6-2.6-.9" style="opacity:.8"/><path d="m1621 83c4.3-2.2 8.2-5.5 13.3-5.6 7.1.2 13 4.4 19.4 6.8-7.2-.4-13-5.8-20.4-5.8-4.3 1.3-7.9 4-12.3 4.6" style="opacity:.8"/><path d="m1687 76.9c9 11.2 17.4 24.4 31.9 28.9-.8 1.6-1.6 3.2-2.3 4.8-14.8-4.8-21-21.7-35.9-26.4-3 0-6 1.4-8 3.7-5.4 5.9-9.4 12.9-13.8 19.5.3-1.8.6-3.6.9-5.5-1.3 1.8-2.7 3.6-4 5.4 2.9-7.3 7.1-13.9 11.1-20.6-2 4.8-4.1 9.6-6.1 14.5 3.9-5.2 7.4-10.7 12-15.2 3.5-3.3 9-3.9 13-1 10.8 6.6 18.3 17.3 28.8 24.3.9-.8 1.9-1.5 2.9-2.3-13.4-5.8-24.4-16.9-30.5-30" style="opacity:.8"/><path d="m1243 80c3.9-3.2 9-.6 13.4.3-4.3-.3-9.4-2-13 1.1-4.5 3.9-8.8 7.9-13 11.9-4.1 3.6-4.3 9.5-5.4 14.4 1-4.7-.6-10.9 3.4-14.4 4.8-4.6 9.7-9 14.7-13.3" style="opacity:.8"/><path d="m1830 79c3.9-1.5 8.1 0 11.5 2.2-4-1.2-8.5-2.3-12.5-.4-5.5 2.6-11.8 2.7-17.8 3.2 2.2 5.4 4 12-.5 16.8-3.7.1-2-4.4-1.9-6.7 2-4.6-1.5-8.3-3.1-12.3-2.4 2-4.8 4-7.2 6 1.5-2.2 2.9-4.5 4.3-6.8 2.8 2 5.6 4.1 8.2 6.3-.3-1.4-.7-2.8-1-4.2 6.7-.8 13.5-2 19.9-4.4m-18 10.4c-1 3.4-1.8 6.7-2.5 10.2 2.5-2.8 3.7-6.5 2.5-10.2" style="opacity:.8"/><path d="m2018 87c2.7-3.1 4.8-7.1 8.6-9 5.2-.5 10.2 1.6 15 3.4-4.8-.7-9.4-1.9-14-2.8-3.1 2.9-6.3 5.6-9.5 8.3" style="opacity:.8"/><path d="m91 79c1.5.4 2.8 1.1 4.1 1.8-1.2 1.8-4.9.4-4.1-1.8" style="opacity:.8"/><path d="m677 79c11.3 2.9 23 3.1 34.4 6.6-11.2-1.4-22.5-2.3-33.5-5.2.2 2.3.4 4.7.6 7 3.5 1.2 7.1 2.3 10.7 3.5-3.9-.9-7.9-1.6-11.8-2.4 0-3.2-.3-6.4-.4-9.5" style="opacity:.8"/><path d="m1797 89c1.3-3.4 2.7-6.7 4.1-10-1.2 3.4-2.5 6.8-4.1 10" style="opacity:.8"/><path d="m2066 83c2.1-1.4 4.1-2.9 6.2-4.5-.5 1.3-1 2.7-1.5 4-1.6.2-3.1.3-4.7.5" style="opacity:.8"/><path d="m1052 80c9.5 1.9 19 4.3 28.9 3.9 6.3.1 12.6-1.2 18.9-1.1 6.5.8 11.7 5.5 17.4 8.3-.8 2.4-1.6 4.8-2.4 7.2 1.4-1.6 2.7-3.3 4.1-4.9 5.7 3.3 11.5 6.6 18 7.5-3.1-1.5-6.3-2.8-9.3-4.4 4 .7 8 1.6 12 2.5-1.3 1.1-2.5 2.3-4 3.1-6.1-.1-11.2-3.9-16-6.9-1.5 1.8-3 3.6-4.5 5.4-.8-1.4-1.5-2.8-2.3-4.3 1-1.4 2.1-2.9 3.1-4.3-5.6-2.7-10.6-7.5-17-8.2-9.5.7-19 2.1-28.7 1-5.7-1-11.3-2.4-17-3.7-.5 3.1-.6 6.3-1.1 9.5 0-2.7-.1-7.9-.2-10.6" style="opacity:.8"/><path d="m1110 81c1.6-.5 4.7-1.6 6.3-2.2.1 2.9.4 5.7.9 8.5-3.2-1-7.2-2.4-7.2-6.4m.7.9c1.8 1.5 3.6 3 5.6 4.4-.3-2-.6-3.9-.9-5.9-1.6.5-3.2 1-4.7 1.5" style="opacity:.8"/><path d="m55.7 79.9c7 5 12.3 12 15.9 19.8.3.6 1 1.9 1.3 2.5-1.2-.5-2.4-1-3.6-1.5-.4-7.9-7.4-12.7-11.6-18.8-.9.6-1.7 1.3-2.6 1.9.2-1 .5-3 .6-4" style="opacity:.8"/><path d="m96 81c4.6.9 9.3 1.5 14 2.3-4.8.2-9.6-.1-14-2.3" style="opacity:.8"/><path d="m265 82c3.3-.4 6.5-.8 9.8-1.3-.1 3.2 0 6.5-.1 9.7-4.1-1.6-9.5-2.8-9.7-8.4m1.7.9c.1.7.2 2 .3 2.7 2.3 1.1 4.6 2.2 6.8 3.3 0-1.8-.1-5.3-.1-7.1-2.3.4-4.7.8-7 1.1" style="opacity:.8"/><path d="m278 90c.4-3 1-6 1.3-9.1.2 3.4.7 6.9 1.2 10.3-.8-.4-1.7-.8-2.5-1.2" style="opacity:.8"/><path d="m470 87c.9-3.8 3.3-6.8 7.9-6.6.9 3 1.4 6.2 1.4 9.3-3.1-.8-6.3-1.8-9.3-2.7m1-1.3c2.2.8 4.4 1.7 6.6 2.6.3-.5.9-1.5 1.1-2-.8-1.6-1.7-3.2-2.6-4.7-1.8 1.3-3.6 2.7-5.2 4.2" style="opacity:.8"/><path d="m848 106c-3.7-9.7 2.7-19.5 9.9-25.8-4.8 7.8-12 15.9-9.9 25.8" style="opacity:.8"/><path d="m866 81c15.7 2 31.9-.5 47 3-15.8-.8-31.5-.1-47-2.2l-.1-.9" style="opacity:.8"/><path d="m1260 81c10.3 2.9 20.9 2.7 31.4 1.4 6.2-1.9 8.4 5 11.6 8.5-2.4-2.8-5.3-5.2-8.3-7.2-5.2-1-10.6.6-15.8.5-6.5.5-12.7-1.4-18.8-3.3" style="opacity:.8"/><path d="m859 81c5 5.7 9 12.4 16.3 15.6-3.2-1.4-6.8-2.2-9.5-4.4-2.7-3.5-4.8-7.3-6.8-11.2" style="opacity:.8"/><path d="m1302 82c2.7.3 5.4.6 8 .9-1.7.2-5.1.4-6.8.6 4.3 8.8 8.9 18 16.8 24.3 2.8 2.2 5.4 4.8 8 7.3-15 1.1-30-.4-45 1.1-20.9 1.1-41.8.4-63 .3-4.5 0-8.9-.9-12.9-2.9 4.8-.7 9.6-.8 14.4-1.1-.6-1.1-1.1-2.2-1.6-3.3.4-.3 1.3-.8 1.8-1.1.2 1.9.5 3.8.9 5.7-2.6.3-7.7.8-10.2 1.1 18.6.4 37 2 55.9-.2-10.8-.5-21.7-.2-32.5-1-4.8.5-8.1-2.9-11.7-5.3 3.7.4 7.2.7 10.9 1.1-1.5.5-4.4 1.6-5.9 2.1 29.4 3.7 59 .3 89 1.6-3.5-3.6-6.2-7.7-8.2-12.3 4.2 5.4 7.9 11.7 14.3 14.8-3-6.7-9.4-10.8-14.8-15.4-2.5-2.5-4.4-5.5-6.3-8.5 2 2.4 4.2 4.7 6.4 6.9-2.7-5.4-5.4-10.9-7.4-16.6m-27 32.4c0 1.7 3.9 1.7 3.9 0-1-1-3-1-3.9 0" style="opacity:.8"/><path d="m1490 82c3.1.7 6.3 1.3 9.4 2.2-2.7-.2-5.9-.4-8.4-.6-.2 7.8-1.6 15.8.8 23.4 5.7 6.5 14.9 7.1 23 6.1-7.8 1.3-15.5 3.3-23.5 2.7-25-.9-50-1.8-76-.9-4.8-.2-9.7 0-14.3-1.6 29-.6 58-.3 87-.8-1.2-8-2.1-16-3.2-23.9-.1-2.6-3-3.5-4.9-4.5 1.7 0 3.5.1 5.2.1 1.3 9.9 2.9 19.7 4.8 29.5 2.7.2 5.8.4 8.7.6-2.9-2.2-5.9-4.2-8.9-6.2-1.1-8.6-.4-17.3 0-26" style="opacity:.8"/><path d="m1601 82c1.3 0 2.7 0 4 0 0 .8 0 2.3 0 3-1.3 0-2.7 0-4 0 0-.8 0-2.3 0-3" style="opacity:.8"/><path d="m1842 82c6.3 1.7 12.9 2 19.4 2.9-2.3 6-2.9 14.6-10.1 16.8 4.8-4.1 6.8-10.1 8.9-15.9-6-1.2-13 0-18-3.8" style="opacity:.8"/><path d="m2008 81.9c2 0 6.1.2 8.1.2-.8 3.5-3.5 5.5-6.7 6.7-.3-1.7-1-5.2-1.4-6.9m1 1c.4 1.5.9 3 1.4 4.5 1.5-1.3 3.1-2.7 4.5-4.1-2-.1-3.9-.2-5.9-.3" style="opacity:.8"/><path d="m2042 82c4.4.8 8.7 1.2 13 1.8-6.4 9.9-14.9 18.6-20 29.4-2.5 1-5.1 1.8-7.6 2.7 4.4.1 8.7.3 13.1.5-.8-2.6-2.1-5.2-2-8 2.1-4.4 6.2-7.5 9.5-11 4.8.5 9.6 1 14.4 1.4.4-4.5.8-9 1.3-13.6.4-.3 1.3-.8 1.8-1.1-1 5.3-1.6 10.7-2.4 16-3.3-.3-9.9-1-13.3-1.3-4.6 2.5-7.7 6.8-11.2 10.5 1.1 1.5 2.2 3.1 3.2 4.8 16.7-.6 33.9-2.9 50 .3-14.9 1.1-29.8.8-44.6 2.3-18.8.8-37.6-.7-56-2.1 13.9-3 28 .7 42-1.5 2.4-6.7 6.6-12.3 11.7-17.2-.5-1.1-.9-2.2-1.3-3.4 3.8-1.5 7.1-3.9 9.3-7.4-4-.7-7.8-1.6-11.5-3.1m6.7 32c-1 1.7 1.9 3 2.9 1.5 1-1.7-1.9-3-2.9-1.5" style="opacity:.8"/><path d="m110 83c1.9 0 2 2.1 1.4 3.4-1.3-.3-2.4-2.3-1.4-3.4" style="opacity:.8"/><path d="m866 82.9c3.7 11.2 17 13.6 26.7 17.4-1.4.7-2.8 1.4-4.2 2 .5-.7 1-1.3 1.5-2-7.7-2.3-15.7-4.8-21.7-10.3-1.4-2.1-1.6-4.7-2.1-7.1" style="opacity:.8"/><path d="m1041 83c5.1-1.4 6.4 5.1 7.4 8.6 1.1 8.8 7 15.5 11.5 22.8 1.9-.1 5.6-.3 7.5-.4-3.4-2.4-7.4-4-10.3-7-3.7-4.3-5.3-10-5.1-15.6 1.7 6.2 3.1 14 9.3 17 3.9.9 6.4 4 8.7 7-9.6.8-19-1.2-28.7-1.8 5.5-1.1 11-1 16.6-.7-3-4.8-7-9-9-14.4-1.1-5.5-2.3-11.3-6-15.6-7 4.5-13.5 9.7-20.3 14.5 5.1-5.9 11.3-11.5 18.5-14.6" style="opacity:.8"/><path d="m1311 83c2.8.6 5.8 1.2 8.6 1.9-2.9-.3-6-.6-8.7-1l.1-1" style="opacity:.8"/><path d="m1608 87c4-1.4 8.1-2.4 12.3-3.5-4.1 1.2-8.2 2.4-12.3 3.5" style="opacity:.8"/><path d="m108 108c.2-9.3 3.4-19.7 12.7-23.7-7.8 5.5-10.6 14.9-12.7 23.7" style="opacity:.8"/><path d="m715 83c1.6 1.5 3.5 2.9 4.7 4.8-.3 1.4-.9 2.7-1.4 4.1-.5-3.2-1.8-6.1-3.3-8.9" style="opacity:.8"/><path d="m1654 84c4.3.5 8.8.9 13.2 1.5-4.7-.4-9.4-1-14-1.6h.8" style="opacity:.8"/><path d="m49 98c4-3.2 5.9-8.2 6-13.3-.4 3.6.7 7.7-1.3 11-1.9 2.3-5 2.8-7.6 3.9.5-1.9 1-3.8 1.8-5.6.4 1.4.7 2.7 1 4.1" style="opacity:.8"/><path d="m1226 86c1.1-.3 2.2-.7 3.3-1-4.1 6.6-7.4 13.6-7.4 21.5-2.7-7 .4-14.7 5.6-19.7-.4-.2-1.1-.6-1.4-.9" style="opacity:.8"/><path d="m1015 109c4.3-8.1 5.3-19.3 14.8-23.3-5.3 5.8-10 12.5-11.7 20.3-.9 4.4 3.3 7.5 6.3 10-1.2-3.5-3.7-6.6-4.4-10.3.8-2.6 1.8-5 2.9-7.5-.6 3-1.3 5.9-2 8.8 2.4 2.4 5.2 4.8 5.7 8.4-3.5 2.2-8-.2-11.6-1 1.6-.5 3.3-1.1 4.9-1.6-1.6-1.3-3.2-2.6-4.9-3.8" style="opacity:.8"/><path d="m1203 96c4.6-2.5 8.5-5.9 12.7-9-6.1 6.8-13.7 11.9-22.4 14.7 6.6-.9 13-3.2 18-7.5-3.5 5.7-10.3 8-16.6 8.7-1.6 0-4-.6-2.8-2.7 3.4-2 7.5-2.3 10.9-4.2" style="opacity:.8"/><path d="m1218 88c2.3-.9 4.6-1.8 6.9-2.5-2.3.9-4.6 1.7-6.9 2.5" style="opacity:.8"/><path d="m716 87c1 1.8 2 3.7 3 5.5-2.1.4-4.1.8-6.2 1.3.2-.4.6-1.2.8-1.6.8-1.7 1.7-3.4 2.4-5.1" style="opacity:.8"/><path d="m841 95c1.2-3.1 3.3-5.7 5.1-8.5-1.7 4.7-4.4 9.5-2.6 14.6-.9-2-2.7-3.9-2.4-6.1" style="opacity:.8"/><path d="m106 98c3-2.7 3.8-6.9 5.8-10.3-1 4.9-2.1 11.5-8.3 12-2.2.1-4.3-.2-6.4-.4l.3-.8c.6-1.1.5-2-.4-2.6-1.7-.3-1.2 2.1-.2 2.7-1.5-.5-3-1-4.5-1.5l.2-.5c.7-1.1.5-1.9-.4-2.6-1.7-.3-1.2 2.1-.2 2.7-1.1-.3-3.2-.8-4.3-1.1 1.5-.8 2.8-2.7 4.6-1.8 4.8 1.1 9 4.6 14 4.5" style="opacity:.8"/><path d="m2017 88c3.5 1.4 6.9 3 10.3 4.6-3.5-1.4-6.9-3-10.3-4.6" style="opacity:.8"/><path d="m2051 92c2.8-1.6 5.8-3.2 8.7-4.6.5 3.4.7 6.7 1.2 10-3.4-.3-6.7-.9-10-1.5 0-1.3 0-2.6 0-3.9m.4 2.6c3 .5 5.5 1 8.7 1.4-.5-2.5-1-4.9-1.5-7.4-2.5 1.9-4.8 3.9-7.2 6" style="opacity:.8"/><path d="m670 89c.9 3.3 2.3 6.6 4.7 9 5.4 5.9 11.4 11.2 17.3 16.7.2-1.5.4-3 .6-4.5l.1-.8c.3.7 1 2.1 1.3 2.8 7.3 0 14.6 0 22-.3 6.4 0 13.4-1.3 19.5 1.6-15.6 1-31 .9-46.9 1.4-16.5-.6-33-.9-49 0-4.3.5-8.5-.6-12.6-1.7 20.4-2 40.8.8 61-1-5.6-4.7-10.9-9.8-15.8-15.2-2.1-2.1-1.6-5.3-1.8-8" style="opacity:.8"/><path d="m702 89l5.9.7-.7.2c-.9.2-2.6.6-3.5.8 2.7 1.7 5.5 3.2 8.5 4.5-4.9 1.7-8-2.5-10.2-6.2" style="opacity:.8"/><path d="m1215 90c.4-1 1.1-1.6 2.2-1.8.2 1.8-.5 2.3-2.2 1.8" style="opacity:.8"/><path d="m1785 95c2.2-4.2 6.7-5.4 11-6.1-2.8 2-5.8 3.5-8.7 5.2 3.3-.5 6.6-1 10-1.4-4 1.4-8 2.9-12.3 2.3" style="opacity:.8"/><path d="m1797 92c-.5-1.2.2-2.3.9-3.2 1.4.7.7 3.5-.9 3.2" style="opacity:.8"/><path d="m1860 96c2.1-3.3 5.1-5.8 8.4-7.9.2 1.9.5 3.7.8 5.6v.7c-.6-1.5-1.2-3-1.7-4.4-2.5 2.1-4.9 4.1-7.5 6" style="opacity:.8"/><path d="m674 91c8.6.9 17 3.2 25 6-3.1-2-6.3-3.9-9.7-5.4 4.7.3 9.1 2.5 11.9 6.3-9.3-.1-17.7-5.4-27-5.9l-.4-1.1" style="opacity:.8"/><path d="m707 92c1-1.5 3.8-.5 4.3 1-1 0-2.9.1-3.9.2-.1-.3-.3-.9-.4-1.2" style="opacity:.8"/><path d="m1212 94c.9-.9 1.8-1.8 2.9-2.6 1.4 1.6-1.4 4.2-2.9 2.6" style="opacity:.8"/><path d="m2019 92c4.6 2.1 8.4 5.6 11.7 9.4-.9-2.7-1.8-5.3-2.6-8 1.8 2.7 3.2 5.7 4.4 8.8-1.3 0-2.6-.1-3.9-.1-2.4-4.1-6.1-6.9-9.6-10" style="opacity:.8"/><path d="m70.8 94c2.3-.1 2.6 4 .6 4.8-.2-1.2-.4-3.6-.6-4.8" style="opacity:.8"/><path d="m1869 95c1.2 6.7 2.5 13.5 3.2 20.3-8.3-.1-16.6-.3-24.9 0 21.9 1.4 44 4.2 66-.3-10.2-.1-20.6 1.5-30.7-.6-5.4-1.2-11-4.8-10.5-11 1.1 6 7.2 7.3 11.3 10.6 11.4.5 23-1.3 34 .6-14.4 5.8-30 3-45 3.4-26-1.1-52 2.7-78-2.9 25.5-.7 50.9-1.7 76-1.7-.7-6.1-1.3-12.3-1.6-18.4m-55.6 21c10.2 1.4 20.7 1.2 30.7-1.1-10.2-.3-20.5.6-30.7 1.1m-4.1-.4c.2.3.4 1 .6 1.3 2.6.6.8-3.5-.6-1.3" style="opacity:.8"/><path d="m676 96c5.1 4.3 10.5 8.4 15 13.3-6-3.1-11.2-7.7-15-13.3" style="opacity:.8"/><path d="m876 97c3.9 1.6 7.8 3.2 11.7 4.8-4.2-.9-8.6-1.6-11.7-4.8" style="opacity:.8"/><path d="m1856 103c1.2-2.2 2.4-4.3 3.8-6.3-.6 2.5-1.8 4.7-3.8 6.3" style="opacity:.8"/><path d="m104 100c.5.2 1.6.5 2.1.6.3 4.1.4 8.3.9 12.4-3.6.7-7.2 1.3-10.8 1.9 6.7.2 13.5.3 20 .5-2.5-2-4.9-4.2-7.2-6.4 1.9 1 3.7 2.1 5.5 3.3 10.7 1.2 21.3-.6 32 .2 9.5.5 19 .3 28.5 1.5-12.4 2.3-25 2.9-37.6 2.3-32-.7-65 1-97-.2-.5-.9-1-1.9-1.5-2.8 21.4-.7 42.8.7 64-.4 2.8-3.6 1.7-8.7.6-12.8m24 13.4c3.5.6 6.9 1.2 10.5 1.4-3-2.3-7-1.8-10.5-1.4m-42 1.4c3.3 0 6.7-.2 10-.4-3.3 0-6.7.2-10 .4" style="opacity:.8"/><path d="m1833 104c2.2-2.5 5.2-4.1 8.3-2.1-2 .2-4 .6-5.9.9 1.3.6 2.6 1.1 3.9 1.7-2.1-.2-4.2-.3-6.3-.5" style="opacity:.8"/><path d="m1842 101c3-.1 5.9-.1 8.9.1-2.7 0-5.5-.1-8-.1h-.8" style="opacity:.8"/><path d="m844 102c.9.7 1.6 1.7 1.8 2.8-1.6.9-3.2-1.8-1.8-2.8" style="opacity:.8"/><path d="m1851 102c1.1-.4 2.3-.8 3.4-.1-.1 1.7-3.1 1.6-3.4.1" style="opacity:.8"/><path d="m1840 104c3.4-.5 6.5-1.1 10-1.7-3.6 1.2-7.2 1.9-10.9 1.8l.9-.1" style="opacity:.8"/><path d="m846 105c.8 2.3 1.6 4.5 2.4 6.8-1-2.2-1.8-4.5-2.4-6.8" style="opacity:.8"/><path d="m848 107c5.3 2.6 10.6 5.8 16.8 6 5.9.2 11.8-1 17.7.4-10.5 1.2-21 3.1-31.6 1.6-10.8.7-21.7.7-32.5-.9 10.1-.6 20.3-1 30.5-.6 3.2.2 6.4.4 9.6.6-3.6-2.2-7.3-4.1-10.4-7" style="opacity:.8"/><path d="m1655 107l.6.6c2.3 2.2 4.4 4.6 6.1 7.3 2.1.1 6.3.2 8.5.3-3.8-2.2-7.6-4.4-11.2-6.9 3 1.4 5.8 3.8 9.3 4.2 16.7 1.1 33.7-1.3 50 2.1-9.4 1.3-18.9.7-28.3.8-18.2-1.3-36.7 3.9-54.6-1.3 7.8-1.9 15.8-.5 23.7-.3-1.5-2.2-3-4.4-4.3-6.7" style="opacity:.8"/><path d="m471 112c24.5-3.8 49-.2 74 0-16.9 3.3-34 3.6-51 3.7-7.7.2-15.5-1-22.7-3.7m19 .7c4 1.1 8.1.5 12-.6-3 .2-9 .5-12 .6" style="opacity:.8"/><path d="m235 113c30.5-2.6 61-.1 92-1.9 7.5-.6 14.9.4 22.4 1-22.6 2.2-45 2.1-68 2.1-15.3 0-30.9 2.7-46-1.3" style="opacity:.8"/><path d="m882 113c13.9-1.4 28.3-3.4 42 0-12.4 1.2-24.9 1.5-37 1.2-1.6-.1-3.2-.7-4.7-1.2" style="opacity:.8"/><path d="m1102 113c8.3-.8 16.3 1.9 24.5 1.9 5.7.2 11.6-.5 17 .9-12.4 2.3-25 1.9-37.5.2-9.2-.7-18.5.9-27.6-1.1 7.8-.6 15.6-1.2 23.4-1.9" style="opacity:.8"/><path d="m1193 112c4.8.3 9.5.7 14.3 1-.8 1.8-1.5 3.5-2.3 5.3-1.1-1.4-2.2-2.7-3.3-4.1-2.8.1-4.8.3-7.4.5-.5-.9-.9-1.8-1.3-2.7" style="opacity:.8"/><path d="m1607 113c5.2-.1 10.2.7 15.4 1.1-5.2-.2-10.8 1.9-15.4-1.1" style="opacity:.8"/><path d="m1623 115c3.6-1.4 7.7-1.8 11.4-.5-3.8.9-7.6 1.4-11.4.5" style="opacity:.8"/><path d="m511 17.2c1.3 1 2.7 1.9 4 2.9l-.3.6c-3.6 6.4-6.1 13.2-8.9 19.9 1.6 1.2 3.1 2.5 4.7 3.7l.5.4c-2.6-.5-5.2-1.2-7.8-1.8-.2 1.9-.5 3.8-.8 5.7l-.3 1.2c2.8.2 5.6.9 8.3.5 7.5-3.5 11.8-10.9 17.7-16.3.9-1.2 2.5-.5 3.6-.1 7.3 3.1 13.5 8.3 19.9 12.9-2.7 1.8-5.9 2.5-9.2 2l-.7-.1c-3-.6-6-1.4-9-2.1-.6 1-1.2 2-1.7 3l-.4.7c-4.8 8.5-6.6 18-9.8 27.3 3.3 2.5 6.6 5.1 9.9 7.6-.5.6-1.1 1.3-1.6 1.9-3-3.1-6.5-6.2-11.3-5.4-1.9 1.2-6.3-1.5-7.6 1.4-3 4.4-2.5 10.3-5.7 14.6-6.1.4-11.6-2.5-17-4.4-6.6-2.5-13.4-4.3-20-6 1.1-3.7 2.1-7.5 2.5-11.3-3.5-3.2-8-5-12.2-7.3v-1.1c.1-2.8.1-5.6.2-8.3-10.5 4.1-20.6 9.2-30 15-1.3-2.2-2.5-4.4-3.7-6.6 7.7 1.9 13.5-4.1 20-6.6 3.9-1.5 8-2.2 12-3.5l.7-.2c3.6-1.5 6.9-3.6 10.6-5.1 5.1-1.8 10.5-1.2 15.8-.8h.8c4.3.4 8.5.8 12.8 1.2-.1-5.5.3-11 .2-16.5v-1c3.9-3.7 7.9-7.5 12.3-10.7-.7-1.1-1.4-2.3-2-3.4l-.6-1c1.5-1.1 3-2.2 4.5-3.3m-29.3 59c.9 4.1-.6 9 1.6 12.8 4.3 3.1 9.1 5.2 14.2 6.6l.9.5-.8.2c1.9 0 5.8.1 7.7.1.3-4.8-.3-9.6-.9-14.4-7.6-1.9-15-4.4-22.8-5.9m-11.4 11c3.1 1 6.2 1.9 9.3 2.7 0-3.2-.5-6.3-1.4-9.3-4.6-.2-7 2.8-7.9 6.6"/><path d="m309 18c2.3.5 6.3.7 6 4-1.5 7.6-4.7 14.8-4.3 22.7-1.6-.2-3.1-.4-4.7-.5-.6 1.5-1.2 2.9-1.8 4.3l-.6 1.1c.2.9.4 1.8.6 2.7 3.6-.6 7.7-.2 10.8-2.5 2.3-1.7 4.5-3.4 6.9-5 0-.4 0-.9 0-1.3v-1.2c1.3-.5 2.6-1.1 3.9-1.6-.5-.8-1.1-1.5-1.6-2.3l-.7-.9c2-1.3 3.8-2.8 5.6-4.3l.8-.7c8.5 3.6 16 9 23 14.6-.9.8-1.7 1.6-2.5 2.5-3.2-.6-6.3-1.3-9.5-1.7-1.8 1.1-5.7-2-7.1.7-2.6 3.4-3.3 7.7-4.6 11.7l-.3.6c-3.1 6.2-6.5 12.2-8.8 18.7-2.4 5.2 2.8 9.2 4.5 13.7-2 .2-4 .4-6 .5h1.2c1-.8 2-1.7 2.9-2.7-2.5-3.9-7-9-12-6-2.8 4.5-4.7 9.9-9.2 13.2-5.7 4-13 2.1-19.4 2.7 2.9-.7 5.9-1 8.9-1.4-1.4-1.9-2.8-3.6-4.3-5.4 3.6 2.1 7.3 5.3 11.6 5 5.7-3.7 6.7-11.4 8.7-17.4-6.6-1.4-13.2-2.9-19.8-4.1l-.9-.2c.5-1.7-1.7-3-2.9-1.7l-.6.4c-1.9.5-4 1.8-3.7 4v.8c-.4 3-.9 6-1.3 9.1.8.4 1.7.8 2.5 1.2l.8.4c.6.3 1.8 1 2.4 1.4-8.4.8-15.9-3.6-23-7.6 2.3-2.8 6.4-4.7 7.1-8.5-2.4-2.7-5.5-4.7-7.6-7.6-1.2-2.9-.8-6.1-1.2-9.1-8.9 3.5-16.3 9.9-24.7 14.5-5.1 2.1-7.6-4.2-9.6-7.7 4.6-.2 10 1.4 13.9-1.9 1.2-.9 2.4-1.8 3.6-2.6l.6-.4c5.9-1.5 12-2.3 17.9-4.3 5.4-2.1 10.4-6.7 16.7-4.8 6.6.8 13.3.8 20 1 1-6 1.8-12.1 4.9-17.5 2.3-3.4 5.7-6 7.7-9.7.4-2.9-.5-5.7-.7-8.6m-44 64c.2 5.6 5.6 6.8 9.7 8.4.1-3.2 0-6.5.1-9.7-3.3.4-6.5.9-9.8 1.3"/><path d="m703 18.4l.1-.8c2.2.2 4.4.5 6.7.7-2 8.1-8 15.2-7.1 24 .5 1.1 1.1 2.1 1.8 3 1.8 1.3 4 2.8 6.4 1.5 4.5-2.5 7.4-6.9 10.8-10.8l.8-.2c1.6-.2 3.2-.5 4.8-.7 1.5 0 3 .3 4.4.7 5.8 5 11.1 10.5 15.9 16.6-6.6.3-12.9-2.8-19.4-3-5.6 3.9-6.2 11.4-7.6 17.4l-.2.7c-1.2 2.8-2.6 5.4-3.9 8 .4 0 1.3 0 1.8.1.5 0 1.6.2 2.1.2 3.7.6 7.4 1.4 11 2.3.1 2.7.3 5.4.4 8.1-.4-1.9-1.3-5.7-1.7-7.6-5.3 1-10.5 2-15.7 3.2l.6 1.2c1.5 2.8 2.8 5.7 3.3 8.9l.1.7c-1.1-1.8-2.1-3.6-3-5.5-1.5-.6-2.9-1.2-4.3-1.7-11.2-3.5-23-3.6-34.4-6.6.1 3.2.4 6.3.4 9.5 3.9.8 7.9 1.5 11.8 2.4l.8.2c3.4 1.5 6.6 3.4 9.7 5.4-8.2-2.9-16.6-5.2-25-6l.4 1.1c.5 1.5.9 3 1.5 4.5 3.8 5.6 9 10.2 15 13.3l1 .5c-.2 1.5-.4 3-.6 4.5-5.9-5.5-11.9-10.8-17.3-16.7-2.4-2.5-3.8-5.8-4.7-9l-.3-.8c-2.4-10.2-16.4-12.3-17.8-23v-.7c0-1.1-.1-2.2-.1-3.3-4.1 1.8-8.1 3.6-12.2 5.2l-.9.3c-7.1 2.4-13.3 6.7-19.3 11.2-1.2-1.3-2.5-2.6-3.7-3.9 7.9-4.2 13.7-12.4 23-13.3l.9-.1c5.9-.3 11.8-1.8 17-4.4l.6-.3c2.5-1.2 4.9-2.5 7.4-3.6l.9-.1c8.5 1.4 17 2.4 25.6 2.3-3.3-6.8-1.7-14.4 2.9-20.3 2.5-3.4 6-5.9 8.7-9l.4-.6c0-.5-.1-1.6-.2-2.1l-.6-1c.7-.7 1-1.6 1.1-2.5m-6.5 27c-1.9 1.7-1 4.4-1.1 6.6 4-.4 8-.9 12-1.4-1.5-1.8-3.1-3.6-4.7-5.4l-.5-1.3c-2 .2-4.3-.1-5.8 1.5"/><path d="m113 19.3c2.2.9 4.3 2 6.3 3.2l-.5.9c-1.2 2.2-2.4 4.5-3 7l-.2.8c-.8 3.8-1.9 7.7-1.3 11.5 2.5 2.9 6.9 5.7 10.8 3.5 4.7-2.6 7.7-7.3 12.2-10.2 4.9.4 9.3 3.1 13.7 5.1l.6.4c2.7 1.9 5.4 3.9 8 5.8-5.9 4.1-13.5.8-19.9 2.7-1.9 2.3-2.1 5.5-3 8.3l-.2.7c-2.6 4.2-5.8 8.1-7.9 12.7-2.2 4.1-3.5 9-7 12.2l-.7.4c-9.3 4-12.4 14.4-12.7 23.7.3.3 1 .9 1.3 1.2 2.4 2.2 4.8 4.3 7.2 6.4-6.7-.2-13.5-.3-20-.5 3.6-.6 7.2-1.2 10.8-1.9-.5-4.1-.6-8.3-.9-12.4-.5-.2-1.6-.5-2.1-.6l-1.2-.3c6.2-.5 7.3-7.1 8.3-12l.2-1c.6-1.3.5-3.5-1.4-3.4l-.8-.1c-4.6-.8-9.3-1.4-14-2.3l-.8-.3c-1.3-.7-2.7-1.4-4.1-1.8l-.9-.3c-3.9-1.1-8.2-2.6-12-.8-5.1 1.8-10.2 3.5-15.4 5.2 2.6 3.5 5.5 6.9 8.5 10v.9c.2 1.2.4 3.6.6 4.8l.2 1.3c-3.5-7.8-8.8-14.9-15.9-19.8-.1 1-.4 3-.6 4l-.1.9c-.1 5.1-1.9 10-6 13.3-.3-1.4-.7-2.7-1-4.1l1.9.3c.4 0 1.3.2 1.7.2 1-6 1.3-12 1.9-18 4.1-.2 8.2-.4 12.3-.7-1.3-2.8-2.8-5.5-4.4-8.2l-.5-.8c.4-2.8.7-5.5 1-8.3-7.4 4.9-14.3 11.3-23 13.3-5 .9-7.1-4.6-9.3-7.9 4.4.7 9.2 2.6 13.3.3 9-4.4 18.7-8.5 28.9-9.2 10-.3 20 .8 30 .1-.2-2.2-.6-4.5-.7-6.7l.2-.9c1.9-6 5-11.5 8.9-16.3 2.8-3.2 2.1-7.9 3-11.8m-4.3 24c-.4 3-.6 6.1-.9 9.2.6.3 2 1.1 2.6 1.4 1.1-.3 2.3-.5 3.4-1 3.9.6 6.6-1.1 7.8-4.6-4.3-1.8-8.6-3.5-13-5"/><path d="m890 20.6c2.3-.5 4.6-1 7-1.6 2.2 8.3-5 15-6.5 22.8 2.4 4.8 9 7.7 13.7 4.1 4.4-3.4 8.5-7 13.3-9.9l.7-.4c6.9 6 14.3 11.8 19 19.7-6.6-.8-12.9-3.9-19.5-3.8-8.2 4.7-8.4 15.6-9.6 23.8 1.3.3 2.6.6 3.9.9l.9.2c5.9.6 9.4 5.6 13.5 9.2-4-1.2-8.3-2.7-12.5-1.4l-.7-.2c-15.5-3.5-31.7-1-47-3l.1.9.2 1c.5 2.4.7 5 2.1 7.1 6.1 5.5 14 8 21.7 10.3-.5.7-1 1.4-1.5 2l-.8-.3c-3.9-1.6-7.8-3.2-11.7-4.8l-.6-.3c-7.2-3.2-11.3-9.9-16.3-15.6l-1.1-1.2c-7.1 6.2-13.6 16-9.9 25.8l.4.8c3 2.9 6.8 4.9 10.4 7-3.2-.2-6.4-.4-9.6-.6l-.3-.8c-.8-2.3-1.6-4.5-2.4-6.8l-.2-.7c-.2-1.2-.9-2.1-1.8-2.8l-.6-.7c-1.7-5.1 1-9.9 2.6-14.6l.3-.9c-.3-5.9-4.7-10.4-7.4-15.3l-.4-.8c.3-2.8.4-5.5.9-8.2-13.4 2.8-24.7 10.7-35 19 3.8-6.3 5.5-14.8 12.9-18 9.4-2.6 19.8-1.1 28.8-5.2 5-2.5 10.5-3.4 16-2.6h.8c2.9.2 5.9.4 8.9.5h.9c2.4.2 4.7.5 7.2.7-.2-.4-.5-1.2-.7-1.6l-.3-.8c-4.1-6.2.9-12.8 2.8-18.8l.3-.8c3.9-1.9 7.7-4.1 11.6-6.1-1.1-2.1-2.2-4.3-3.3-6.4l-.5-.9m-2.8 22.6c-1 3.3-1.9 6.6-2.5 9.9 4.2-.4 8.4-.7 12.7-1-.1-.8-.2-2.3-.2-3.1-3.3-2-6.5-4.1-9.9-5.9"/><path d="m1284 21c1.8-.4 3.7-.7 5.6-1.1.7 1.8 1.5 3.7 2.4 5.4l-.5.8c-3.5 5.1-5.6 10.9-6.6 17 1.4 1.3 2.9 2.5 4.3 3.8-3-.7-6-1.5-9-2.2-.4 3.3-.8 6.6-1.1 9.9 3-.7 6.3-1.3 9.3-2.3l.7-.3c5.9-2.7 12.9-4.3 17-9.6 4.3-.6 8.8-2.3 13.2-1.6 5.9 4.5 10 10.8 14.9 16.4l.9 1.2c-3.5.8-7.1.3-10.3-1.3l-.6-.3c-3.3-1.7-6.8-3.2-10.3-4.4-1.4 1.8-2.9 3.5-4.3 5.2l-.5.6c-5 4-6.1 10-6.5 15.9l-.1.9c0 .4-.2 1.2-.2 1.6 6.5 2.3 12.9 4.5 19.3 7-.2.3-.6 1-.8 1.4l-1.1-.3c-2.8-.7-5.8-1.4-8.6-1.9l-.8-.1c-2.7-.3-5.4-.6-8-.9 2 5.7 4.6 11.2 7.4 16.6-2.2-2.2-4.4-4.5-6.4-6.9l-.4-.6c-3.1-3.5-5.4-10.4-11.6-8.5-10.5 1.3-21 1.4-31.4-1.4-1.3-.4-2.5-.8-3.8-1.2-4.4-1-9.5-3.5-13.4-.3-5 4.3-9.9 8.8-14.7 13.3-4 3.6-2.4 9.8-3.4 14.4l-.1.9c3.5 2.4 6.9 5.8 11.7 5.3 10.8.8 21.6.5 32.5 1-18.6 2.2-37 .6-55.9.2 2.5-.3 7.6-.8 10.2-1.1-.3-1.9-.6-3.8-.9-5.7 0-.4-.1-1.2-.1-1.7 0-8 3.4-15 7.4-21.5-1.1.3-2.2.6-3.3 1l-.8.3c-2.3.7-4.6 1.6-6.9 2.5l-.7.3c-1 .2-1.7.8-2.2 1.8l-.5.5c-1 .8-2 1.7-2.9 2.6l-.5.4c-5.1 4.3-11.6 6.6-18 7.5 8.7-2.8 16.3-7.9 22.4-14.7l.5-.4c4.5-2.7 9.6-5.2 11.9-10.3l.2-.8c1-4.5 1.9-8.9 2.7-13.4-.5.1-1.4.4-1.9.6l-.9.3c-5.7 1.6-11.2 3.8-16.6 6l-.7.2c-2.4.8-4.8 1.4-7.2 2.1l-.7.2c-3.6.6-7.2 1.1-10.8 1.4.1-.7.3-2 .4-2.7l.9-.3c7.8-2.9 15.6-5.6 23.6-7.7 1.3-.3 2.7-.6 4.1-.7 1 0 1.9-.3 2.7-.9l1-.2c1 .1 1.9-.2 2.7-.9l.8-.5c15.4-3.1 30.9 2.9 46-.7-1.4-2.9-2.8-5.8-4.5-8.5l-.4-.7c4.1-7.9 7.4-17 16-21-.7-2.2-1.3-4.4-1.9-6.6"/><path d="m1475 21.9c1.6-1.3 3.4-2 5.2-3 .7 7.5-4.8 13.6-5.3 20.9 1.9 2.4 4.2 4.4 6.5 6.5-4-1-8.1-1.9-12-2.7-.4 3.8-.6 7.6-.7 11.4l1.4-.2c10.3 0 18.4-6.9 27.9-9.7-.6-1.3-1.2-2.5-1.7-3.7 5.7.3 12-2.1 17 1.1 5.1 4.9 9.1 10.8 12.9 16.8-7 .1-12.5-5.9-19.5-5.1-8.5 3.9-14.4 15.2-8.9 23.8 4.5 4.2 9.8 7.6 14.9 11.2-4.4-1.8-8.8-3.5-13.2-5l-.7-.2c-3.1-.9-6.3-1.5-9.4-2.2-.4 8.6-1.1 17.3 0 26 3 1.9 6.1 3.9 8.9 6.2-2.8-.2-5.9-.4-8.7-.6-1.9-9.8-3.5-19.6-4.8-29.5-1.8-.1-3.5-.1-5.2-.1h-.9c-11.8.1-23.4-1.9-34.6-5.5-10-3.7-19 3.2-26.4 9-8.3 6.2-13 16.4-22.6 21 7.5-6.9 14.4-14.5 19-23.6-10.5 1.4-19.3 8.3-30 8.6 8.8-1.9 16.4-6.7 24.4-10.6 3.5-2.2 9.5-2.5 10.8-7.2 1.4-5.8 3.2-11.4 5.2-17-7.6 3-14.3 8-22 10.6-6.6 2.4-14 1.8-20-1.9 3-1.4 6.1-2.7 9.4-3.5.4 0 1.1-.1 1.5-.1 4.6-.1 9.2-.1 13.7-1.1 7.3-1.2 13.8-5.9 21.5-5.1 12 0 24 1.9 36 .9-1-2.9-2.6-5.7-3-8.8.8-8.7 5.9-16.3 13-21 0-2.1-.4-4.1 0-6.2"/><path d="m1666 29.3c.1-3.9 1-7.8 3.5-11 1.1 2.3 3.8 4.6 2.6 7.3-2 5.3-3.1 10.9-3.5 16.6 2.4 1.6 4.8 3.2 7.1 4.8-4-1.2-7.9-2.5-11.9-3.8-1.2 3.8-1.9 7.8-2.4 11.8 5.1-.9 10.7-1.3 15.3-4.1 4.6-2.7 10.4-3.8 13.6-8.4 2.8-4.1 9-3.7 13.2-2.5 6.5 4.1 10.5 11 15.9 16.3-.7.8-1.3 1.6-2 2.3-6-2.1-12.4-5.7-18.8-3.8-5.4 6-10.6 12.9-12.1 21l.3 1c6.2 13.2 17 24 30.5 30-1 .8-2 1.5-2.9 2.3-10.6-7-18-17.7-28.8-24.3-4-2.9-9.6-2.3-13 1-4.6 4.6-8.1 10-12 15.2 2-4.8 4.1-9.6 6.1-14.5l.4-1.1c-4.4-.6-8.9-1-13.2-1.5l-.9-.2c-6.4-2.4-12.4-6.6-19.4-6.8-5.1.1-9 3.3-13.3 5.6l-.7.2c-4.2 1.1-8.3 2.1-12.3 3.5l-.7.3c-8.9 2.9-16.8 11-26.8 8.1 4.6-2.5 9.9-3.7 14.4-6.5 4.5-3.6 7.3-8.8 11.1-13l.5 1.7c0 1.5 1.7 1.7 2.6.9l1.2-.5c1.2-.4 2.3-.9 3.5-1.3.5-5 1.1-10 1.8-14.9l.2-1.3.3-1.1c-8.9 3.7-16.5 11.9-26.7 11-4.2-1.7-7.4-5.1-10.9-8 6.3 1.6 12.9 2 19.4 1.1 4.8-1.3 9.2-3.8 14-5.2 10.6-3.1 21.7-.8 32.5.1h.8c4.3.3 8.6.3 13 .3-1.5-5-2.8-10.2-1.3-15.4.1-6.3 5.8-9.7 9.8-13.5m-65 52.7c0 .8 0 2.3 0 3 1.3 0 2.7 0 4 0 0-.8 0-2.3 0-3-1.3 0-2.7 0-4 0"/><path d="m2057 18.5l1.2.6c2 1.1 4.4 2 5.5 4.1-.5 3.1-2 6-2.9 9-.1.3-.3 1-.4 1.3-1 3.7-2 7.3-3 11 3.8 1.7 7.6 3.3 11.5 4.6l.7-.7c4.2-4.8 8.5-11.8 15.7-11.9 7.8 2.9 13.5 9.8 19.4 15.5-3.3.8-6.7 1.1-10 .8h-.6c-3-.5-6-1.2-8.9-1.9-1.1 2.6-2.3 5.1-3.5 7.7l-.4.8c-3.3 6-6.7 12-8.5 18.7l-.3 1c-2 1.5-4.1 3.1-6.2 4.5l-.7.5c-.4.3-1.3.8-1.8 1.1-.5 4.5-.9 9-1.3 13.6-4.8-.4-9.6-.9-14.4-1.4-3.3 3.6-7.4 6.6-9.5 11-.1 2.8 1.2 5.4 2 8-4.5-.2-8.8-.4-13.1-.5 2.5-.9 5.1-1.7 7.6-2.7 5.1-10.8 13.5-19.5 20-29.4-4.4-.6-8.7-1-13-1.8l-.7-.2c-4.8-1.8-9.8-4-15-3.4-3.8 1.9-5.9 5.9-8.6 9l-.7 1c3.3 1.7 6.8 3.3 10.3 4.6l1 .4c.8 2.7 1.7 5.4 2.6 8-3.3-3.8-7.1-7.3-11.7-9.4l-.7-.3c-2-.7-4-1.3-6-2 .1 3.9.2 7.9.3 11.8-.9-4.1-1.2-8.7-3.7-12.2-2.2-3-4.8-5.7-7.1-8.5 3.5-1.1 7-2.2 10.6-3.2-2.3-4-5-8-5.1-12.8v-.8c.3-3.1-2.6-1.5-3.6.1-1 .9-2.1 1.7-3.3 2.2-5 2.2-10.2 4.1-14.9 6.9l-1.1.6c-6.3-1.1-8.2-7.4-9.5-12.8 11.8-2.1 24.3 1.6 35.5-3.5l.7-.3c7.7-3.5 16.2-2.7 24.3-.9l.9.1c2.8-.1 5.6-.8 8.4-1.3 0-.9 0-1.9 0-2.8 0-.4 0-1.3.1-1.8.6-3.8 1.7-7.4 3.2-10.9 2.4-4.2 6.1-7.5 8.7-11.6v-.8c.1-2.9.2-5.8.4-8.7m-2.9 28c-.4 2.2-.9 4.4-1.3 6.6 3.4.1 6.9 0 10.4 0-.1-1.4-.1-2.7-.2-4.1-3-.9-5.9-1.8-8.8-2.5m-46 35c.3 1.7 1 5.2 1.4 6.9 3.2-1.1 6-3.2 6.7-6.7-2-.1-6.1-.2-8.1-.2m43 10.1c0 1.3-.1 2.6 0 3.9 3.3.6 6.6 1.2 10 1.5-.5-3.4-.7-6.7-1.2-10-3 1.5-5.9 3.1-8.7 4.6"/><path d="m1086 22c2.2-.4 4.4-.8 6.6-1.2-1.4 7.8-6.2 14.4-8.3 21.9 2.2 1.8 4.3 3.5 6.5 5.4-3.7-1.2-7.3-2.4-11-3.5-.3 2.7-.8 5.4-1 8 1.1 1 2.3 2 3.5 3l1.1-.5c10.2-3.2 18.8-9.7 28-14.4 2.6-1.3 6-2.5 8.4 0 5.9 4.3 9.7 10.7 14.2 16.3-1 .9-2 1.9-3 2.8-5.1-3.1-10.7-6.4-17-5.7-2.8 2.1-4.6 5.4-6.9 8l-.5.7c-1.1 1.3-2.1 2.9-2.1 4.6v.9c-.1 2.8-.2 5.5-.1 8.3 4.5.7 9 1.4 13.5 2.1.2 3.8-.5 7.8.8 11.4 2.5 2.2 5.4 4 8.3 5.7l.6.3c3 1.6 6.2 2.9 9.3 4.4-6.6-.9-12.5-4.2-18-7.5-1.4 1.6-2.7 3.3-4.1 4.9.8-2.4 1.6-4.8 2.4-7.2-5.7-2.8-10.9-7.5-17.4-8.3-6.3-.1-12.6 1.2-18.9 1.1-9.8.4-19.3-2-28.9-3.9 0 2.7.1 7.9.2 10.6 0 .4 0 1.2 0 1.6-.2 5.6 1.3 11.4 5.1 15.6 2.9 3 7 4.5 10.3 7-1.9.1-5.6.3-7.5.4-4.5-7.3-10.4-14-11.5-22.8-1-3.6-2.3-10-7.4-8.6-7.2 3.2-13.4 8.7-18.5 14.6l-.4.6c-1.2 2.4-2.2 4.9-2.9 7.5.7 3.7 3.1 6.8 4.4 10.3-3-2.4-7.2-5.6-6.3-10 1.7-7.8 6.4-14.5 11.7-20.3.3-.3.8-.9 1.1-1.2 1.1-7 2-14.2 3.3-21-6.1 1.1-12.3 2-18.2 3.8l-.8.3c-7 2.5-12.2 7.9-17 13.2 1.6-4.5 2.6-9.6 6.3-13 3.6-3 7.8-5.2 12.2-6.8.6 0 1.9 0 2.6 0 12 3.1 23-4.5 34.9-3.8 6 .3 12 .7 18 .6h1.1c1.3.2 1.9-.4 1.9-1.6v-.9c.2-1.8-1.4-3.1-2.9-3.8l-1.3-.7c1.6-4.4 3.1-8.9 5-13.2 2.5-4.1 7-6.3 10.8-9 0-2.4.2-4.7.2-7m23.5 59c0 4 4 5.4 7.2 6.4-.5-2.8-.8-5.7-.9-8.5-1.6.5-4.7 1.6-6.3 2.2"/><path d="m1861 24c2.4-.8 4.8-1.7 7.2-2.5 2 8.2-3.7 15.4-4.7 23 3 1.5 6.1 3.1 9.2 4.6l.9.4c8.7 1.2 12.9-8.4 20.6-10 7.8 2.8 12.7 10.4 19 15.4-3.8 1.2-7.8 1.2-11.7.5l-.4-.1c-2.1-.8-4.8-1.7-6.6-2.6-.7.8-1.3 1.6-1.9 2.4l-.6.7c-6.3 8.3-10.5 17.9-15.8 26.8-3.3 5.9-3.8 12.8-3.6 19.4v.8c-.5 6.2 5.1 9.8 10.5 11 10.1 2.1 20.5.5 30.7.6-21.7 4.5-44 1.7-66 .3 8.3-.3 16.6 0 24.9 0-.7-6.8-2-13.5-3.2-20.3l-.1-.9c-.3-1.9-.5-3.8-.8-5.6-3.3 2.1-6.3 4.6-8.4 7.9l-.4.5c-1.4 2-2.6 4.2-3.8 6.3l-1.1-.5c-1.1-.7-2.4-.3-3.4.1l-.9.3c-3.5.6-6.6 1.2-10 1.7l-.9-.4c-1.3-.5-2.6-1.1-3.9-1.7 2-.4 3.9-.7 5.9-.9h.9c2.5 0 5.4.1 8 .1h.9c7.3-2.2 7.8-10.8 10.1-16.8-6.5-.9-13-1.2-19.4-2.9l-.7-.3c-3.4-2.2-7.6-3.6-11.5-2.2-6.4 2.4-13.2 3.5-19.9 4.4.3 1.4.6 2.8 1 4.2-2.6-2.2-5.4-4.4-8.2-6.3-1.4 2.3-2.8 4.6-4.3 6.8l-.4.6c-.8.8-1.5 2-.9 3.2l.3 1.2c-3.3.4-6.7.9-10 1.4 2.9-1.7 6-3.2 8.7-5.2l.4-.6c1.6-3.2 2.9-6.6 4.1-10l.4-1.2c2.2-.2 4.4-.4 6.6-.6 2.1-.1 4.3 0 6.5.3l.8.2c-1.7-5.4-2.7-11-2.7-16.6-7.2 4.5-14.4 10.6-23 11-4.5-1.6-6-6.8-8.1-10.7l1.3.3c12.7 3.1 25-1.8 37-5.3l.9-.2c6 .2 12.2.3 18 1.4l1 .4c1.3.5 2.7 1.3 4.1.9l1.1-.2c1.5-.4 2.8-1 4.2-1.5h.3c.8 0 1.6 0 2.4 0 .4-4.7.7-9.4 1.3-14l.3-.8c.6-1.1 1.2-2.3 1.7-3.6l.3-.7c2.5-2.1 5.1-4.2 7.7-6.1-.7-2-1.3-4.1-2-6.1l-.5-1.3m-.1 22.6c-.7 1.7-1.3 3.3-1.9 5l.3-.3.8.6c.4 1.5.9 3 1.4 4.5 3.7-.7 7.4-1.3 11-2.2-.3-.9-.5-1.9-.7-2.8l-1.7-.5c-3.1-1.5-6.2-2.9-9.4-4.2"/><path d="m927 87c1.8 1.4 3.6 2.9 5.4 4.5l.5.4c-2.1-1.5-4-3.2-5.9-4.9"/><path d="m911 89c1.8.6.2 4.4-1.6 3.8-.8-1.3.2-3.3 1.6-3.8"/><path d="m1327 88c1.5.7 3 1.4 4.5 2.1.7.5 1.2 1.1 1.7 1.8.8 1.5 1.5 3 2.2 4.5-3-2.6-5.8-5.4-8.4-8.4"/><path d="m703 91c.9-.2 2.6-.6 3.5-.8l.5 1.5c.1.3.3.9.4 1.2 1 0 2.9-.1 3.9-.2l1.6-.1c-.2.4-.6 1.2-.8 1.6l-.6 1.3c-2.9-1.3-5.8-2.8-8.5-4.5"/><path d="m1812 90c1.2 3.7.1 7.4-2.5 10.2.7-3.4 1.5-6.8 2.5-10.2"/><path d="m516 95c.4-1 .8-2 1.1-3.1l1.3.4c1.6.5 3.3.9 4.9 1.4-2.4.5-5 .9-7.4 1.3"/><path d="m905 92c1.7-.5 2.1 2.2.4 2.4-1.7.6-2.1-2.2-.4-2.4"/><path d="m1520 93c3.7.3 7.5.5 11.2.9-3.8-.2-7.5-.5-11.2-.9"/><path d="m91 96c-1-.6-1.5-2.9.2-2.7.9.7 1.1 1.6.4 2.6h-.7"/><path d="m316 95c-2.8.7-7.2 0-3.4-2.2l.9.1c.9.6 1.7 1.3 2.5 2.1"/><path d="m731 94c1.5-.1 1.5 2.4 0 2.4-1.5 0-1.5-2.4 0-2.4"/><path d="m933 95c.8-1.2 2.9.1 2 1.3-.8 1.2-2.9-.1-2-1.3"/><path d="m96 98c-1-.6-1.5-2.9.2-2.7.9.7 1.1 1.6.4 2.6h-.7"/><path d="m274 100c-.2-1.2.1-3.5 1.8-3.3 1.4 1.2-.3 3-1.3 3.8l-.5-.5"/><path d="m1309 100c5.4 4.6 11.8 8.7 14.8 15.4-6.4-3-10-9.4-14.3-14.8l-.5-.6"/><path d="m1656 107c1.3-1.8 2.7-3.6 4-5.4-.3 1.8-.6 3.6-.9 5.5l-.2 1.2c3.6 2.5 7.3 4.8 11.2 6.9-2.1-.1-6.3-.2-8.5-.3-1.7-2.7-3.8-5.1-6.1-7.3l.5-.6"/><path d="m490 113c3-.2 9-.5 12-.6-3.9 1.1-8 1.7-12 .6"/><path d="m128 113c3.5-.4 7.4-.9 10.5 1.4-3.5-.1-7-.8-10.5-1.4"/><path d="m86 115c3.3-.2 6.7-.4 10-.4-3.4.2-6.7.4-10 .4"/><path d="m1275 114c.9-1 3-1 3.9 0 0 1.7-3.9 1.7-3.9 0"/><path d="m1814 116c10.2-.5 20.5-1.4 30.7-1.1-10 2.3-20.5 2.5-30.7 1.1"/><path d="m2049 114c.9-1.5 3.9-.2 2.9 1.5-1 1.5-3.9.2-2.9-1.5"/><path d="m1810 115c1.4-2.2 3.2 1.9.6 1.3-.1-.3-.4-1-.6-1.3"/></g></svg>